<svg id="Layer_1" data-name="Layer 1" xmlns="http://www.w3.org/2000/svg" viewBox="0 0 268.26 118.28"><title>logo-redwoods</title><path d="M58,30.27l-.47.61-.2.27-.47.54-.81.95-.47.34-.47.41-.47.34-.54.34-.47.34-.54.34-.47.34-.61.2-.54.2-.61.2L49.65,36l-.61.07-.54.14-.61.07h-.61l-.68-.07L46,36.15,45.39,36l-.54-.2-.61-.27-.47-.41-.47-.34-.81-.95-.34-.54-.27-.61-.14-.54-.13-.61-.07-.68v-.61l.07-.61v-.61l.13-1.22L42,26.63l.07-.54.54-2.43L43,22l.27-1.22.47-1.42.2-.81.2-.68.54-1.62.34-1.15.27-.61.27-.81.2-.81.2-.61.2-.54.27-.61.74-2.23.34-.54L48,8l.54-.27.68-.14h.61l.68.07.61.07.61.2.61.27.34.47-.07.54-.13.61-.2.54-.2.61-.2.54-.2.61-.14.54-.74,2.23-.2.68-.61,1.62-.14.61-.2.54-.13.61-.2.61-.13.54-.14.61-.41,1.15-.13.61L48,24.06l-.14.68-.13.61-.07.54-.27,1.22-.2,1.82v.61l.07.61.13.61.27.54.34.47.47.27.61.2.88-.07,1.08-.2,1.08-.47L53.1,31l.68-.54.54-.41.41-.41.41-.47.54-.68.54-.61.41-.54.47-.74,1.08-2,.41-.74.27-.68.34-.74.68-2,.14-.61.2-.61.27-.61.2-.61.13-.54.2-.61.13-.61.27-.61.2-.54.2-.61.13-.61L62.56,12l.2-.54.27-.74.14-.34.27-.74.2-.54.27-.54.41-.41.61-.2.61-.13.68-.07.61-.07.68.07.61.13.54.34.34.47v.54l-.2.61-.2.54-.47,1.42-.2.81-.27.61-.2.54-.27.61-.27.81-.2.81-.27.61-.2.88-.34,1-.34.88-.2.61-.27.88-.2,1.08-.2.88-.14.61-.2.61-.14.61-.41,1.62-.07.68-.2,1.82-.07.68V30l.07.61.2.61.41.47.54.34.54.2h.68l.61-.14,1.22-.41.61-.27.54-.27.54-.41.54-.34L70.4,30l.27-.54-.07-.68L70.33,28l-.14-.68.2-.81.41-.68.54-.41.74-.2.81.07.61.07.41-.07.34-.41.68-1.08.34-.74.41-.74.27-.61.27-.54.27-.61.2-.88.47-1.42.2-.81.27-.88.13-.61.2-.61.13-.61.14-.81.2-.88.14-.68.14-.88.07-.81v-.68l.13-1.22.41-.61.81-.41,1.08-.13,1.08.07.95.34.68.68.27.74v1.28L84,12,84,12.7l-.14,1.22-.13.61-.14.68-.13.61-.2.54L83.1,17l-.41,1.22-.2.54-.13.61L82,20.54l-.27.54-.2.61-.61,1.22-.14.4-.34.74-.27.54-.27.47-.68,1.08-.34.47-.41.54-.34.47-.41.47-.2.41.34.34.68.14h.61l.61-.07,1.15-.34.61-.14,1.22-.68.54-.41.61-.54.54-.47.54-.61.47-.68.41-.47.41-.54.34-.54.41-.68.41-.74.27-.61.27-.54.41-.47.54-.34.88.07.47.68v.74l-.2.54-.81,1.62-.27.61-.47.68-.41.74-.41.54-.34.47-.81.95-.34.41-.81.95-.47.34-.54.41-.68.47-.74.41-1.69.74-.61.13-.61.07-.81.07H77l-.54-.14-.61-.2-.54-.07-.54.07-.47.41-.88.88L73,33l-.54.4-.54.27-.54.34-.47.27-.54.27-.61.34-.61.2-.54.27-.61.2-.68.27-.81.2-.81.14-.68.13h-.68l-.88-.07-1-.2-.88-.27-.61-.27L60.33,35l-.47-.61-.34-.61-.27-.88-.27-1-.2-1.08v-.88l-.07-.47h-.07l-.34.34Z" fill="#173a3e"/><path d="M109.73,19.46l-.34.47-.81.95-.95.81-.47.34-.61.34-.41.14-.68.41-.41.2-.61.27-.68.2-.61.2-.61.07-.68.14-.74.07-.81.14-.61.07h-.61l-1.22-.14-1.22-.07L96.08,24l-1.82-.41h-.47l-.34.27-.14.47v.61l-.07.68v1.15l.07.68.14.54.4,1.22.68,1.08.41.47.4.41,1.08.68.68.2.61.2.47.07.61.13.61.07h.68l.61-.07,1.76-.34L103,32l.61-.2.54-.2,1.15-.47,1.08-.54.95-.74.47-.34.47-.4.95-.88.81-.95.34-.47.4-.54.68-.95.34-.54.27-.54.34-.54.27-.54.34-.47.27-.54.27-.61.27-.54.34-.54.47-.34h.61l.61.4.34.61-.07.61-.27.61-.34.74-.41.74-.34.74-.4.74-.41.68L113.31,27l-.2.41-.41.61L112,29l-.41.47-.41.41-.41.47-.47.54-.2.27-.47.54-.41.47-.95.81-.68.54-.61.54-1.08.68-1.69.74-.54.2-.61.2-.88.13-.81.2-1.42.13-.88.07-.74.07h-.61l-2.43-.27-.54-.14-.61-.2-.61-.27L93,35.34,92,34.73l-.54-.27-.47-.41-.47-.47-.27-.34-.47-.54-.41-.47L89,31.69l-.27-.47-.27-.61-.2-.54-.2-.61-.14-.61-.14-.54-.13-.61-.2-1.82V24.6l.07-.61v-.61l.41-1.82.2-.54.14-.61.2-.61.13-.61.2-.61.27-.74.34-.81.34-.61.41-.74L90.6,15l.27-.61.34-.47.41-.47,1-1.08,1-1,.54-.47.61-.47.68-.47.61-.47.68-.41.68-.34L98,8.45,98.91,8l1.42-.47,1.22-.27.88-.14h1.49l.88.14,1.08.2.88.2.61.2.61.27.54.27.41.27.95.81.41.47.41.68.34.81.2.61.14.61.07.61v.81l-.07.88-.07.68-.2.81-.27.81-.27.68-.2.34-.34.61Zm-8.24-8.11-.95.41-.81.4-.54.34-.95.81-.61.61-.54.61-.47.54-.47.74-.47.68-.34.61-.4.74-.27.81-.27.61-.2.54-.07.47.34.34.88.2,1.35.07.68.07h1.89l.68-.14.61-.13.68-.27.41-.14.68-.34.47-.34.47-.41.47-.47.47-.41.41-.54.34-.47.27-.54.34-.61.41-1.22.14-.68.07-.61-.07-.68-.27-.61-.41-.47-.54-.41-.61-.27-.61-.14L103,11l-.68.13Z" fill="#173a3e"/><path d="M160.48,22.91l-.14.34-.34.68-.34.47-.27.54-.27.61-.27.54-.68,1.08-.34.47-.34.54-.27.54-.34.54-.41.47-.41.54-.41.47-.74.95-.41.47-.41.41-1.89,1.62-.54.34-.61.34-.74.34-.81.34-.61.2-.61.14h-.68l-.81-.07-.81-.2-.61-.2-.47-.34-.47-.41L144,34l-.47-.74-.2-.61-.2-.81L143,31v-.68l.07-.88.07-.81-.2-.14-.34.47L142,30l-.68.95-.41.47-.34.47-.41.47-.34.47-.47.41-.41.41-.47.41-.47.34-.54.34-.74.47-1,.47-1.08.34-.88.2-1.22.13-.68-.07-.81-.13-.81-.2-.61-.2-.54-.2-.47-.34-.95-.81-.34-.47-.34-.54-.41-.74-.41-1-.2-.88-.07-.68-.14-.88-.07-1.08v-.88l.07-.68.07-.88.13-.81.2-.68.2-.81.2-.88.2-.61.27-.54.2-.61,1.62-3.24.34-.54.34-.47.34-.54.68-.95.41-.47.88-1,.27-.27.47-.54.95-.81.61-.61.74-.54.95-.74.54-.34.47-.34.61-.27.81-.34.74-.41.68-.34.81-.27.81-.2.68-.2,1.69-.14.61-.07h.81l1.35.07L148,7.3l1.49.27.61.14.74.2,2.7,1.22.47.41.47.34.47.41.41.47.13.74-.27.95-.74.81-.74.47-.54.07-.54-.2-.54-.41-.61-.34-.54-.34-.47-.2-.54-.27-.61-.27-.54-.14-1.15-.27-.68-.2-.68-.13h-1.35l-.47.07-.68.07-.88.2-1.69.61-.68.34-.68.41-.47.34-.54.34-.47.34-.47.41-.54.47-.27.27-.47.54-.41.47-.34.47-.81.95-.34.47-.34.54-.81,1.62-.34.54-.41,1.22-.27.61-.27.54-.41,1.82-.2.68-.2,1.82v1.89l.07.68.2.61.27.54.34.54.4.41.61.27.81.14.88-.07.61-.2,1.08-.54.95-.81.41-.41.47-.41.41-.47.34-.47.41-.47.34-.47.74-1,.34-.47,1-1.62.41-.74.47-.88.27-.41.81-1.76.27-.61.14-.47.27-.61.2-.54.2-.61.27-.74.41-1.35.27-.74.2-.68.41-.61.68-.34.61-.13.61.07.61.14,1.08.54.54.34.27.41.07.61-.2.54-.14.61-.2.61-.27,1.22-.2.61-.14.54-.4,1.22-.14.68-.07.41-.2.81-.14.61-.27,1.15-.2.81-.13.68-.14.74-.2,1-.2,1.15-.07,1L148,31l.34.54.68.34,1,.07.81-.27.61-.34.95-.68.47-.47.81-.88.81-.95.68-.95.34-.54.41-.54.14-.41,1.08-1.62.27-.54.34-.54,1.35-2.7.61-.34.81.14.54.68.07.68-.27.61Z" fill="#173a3e"/><path d="M162.64,6,162,4.19,162,3.58V3l.14-.61.27-.61.34-.47.41-.47.47-.41.54-.27.61-.14h.61l.61.14.54.34.41.41.27.54.2.61V3.85l-.14.68v.54l.14.54.34.47.47.47.47.41.47.54.74.88.47.41.88.88.47.54.27.34.47.54.47.41.4.47L174,13l.2.61.2.81.2.88-.07.61-.2.61-.27.54-.41.47L173,18.65l-.41.47-.34.54-.34.47-.41.54-.34.54-.4.54-.34.54-1.15,2.3-.2.61-.2.54-.14.61-.13.68-.14.61-.07.61v.68l.27,1.35.34.54.34.61.47.41.54.34.68.14h1.28l.61-.14.61-.2.61-.27.47-.34,1-.68.54-.41.47-.41.41-.41.41-.54,1.22-1.42,1-1.62.34-.47.34-.61.34-.54.27-.54.34-.61.2-.41.41-.74.27-.54.2-.54.27-.54.61-.34.88.2.61.68v.74l-.2.61L184,23.38l-.27.54-.34.54-.54,1.08-.68,1.08-.34.61-.27.34-.34.61-.68,1.08-.81,1.08-.54.74-.47.68-.81.95-.47.41-.81.81-.54.41-.61.41-1.08.54-.61.27-.54.27-.61.2-.54.14-.68.13h-1.55l-.88-.07L167.64,36l-.54-.2-.68-.34-1-.68-.47-.41-.41-.41-.41-.54-.34-.47-.27-.61-.27-.54-.13-.61-.14-.68-.14-.61-.07-.61v-.61l.27-2.43.2-.61.2-.54.27-.61.34-.74.41-.74.34-.61.47-.74.47-.68.34-.61.41-.74.54-.74.41-.54.54-.95.74-1.08.34-.74.2-1-.14-.81-.68-1.08L168,12.1,167,10.88l-.41-.47L166,10l-.54.14-.27.61-.14.61-.2.61-.14.61-.13.54-.2.61-.61,1.62-.2.61-.2.54-.2.61-.34.81-.34.74-.27.61-.34.81-.34.74-.34.68-.34.74-.41.74-.34.54-.41.34h-.61l-.54-.34-.41-.47.07-.54.2-.61.27-.61.2-.54.2-.61.54-1.22.2-.41.27-.68.27-.54.2-.61.27-.61.2-.61.2-.54.54-1.22.14-.61.2-.61.14-.61.27-.61.14-.61.13-.54.14-.61.2-.61.14-.68V7.64l-.14-.54Z" fill="#173a3e"/><path d="M204.27,19.46l-.34.47-.81.95-.95.81-.47.34-.61.34-.41.14-.68.41-.41.2-.61.27-.68.2-.61.2-.61.07-.68.14-.74.07-.81.14-.61.07h-.61l-1.22-.14-1.22-.07-.61-.07-1.82-.41h-.47l-.34.27-.14.47v.61l-.07.68v1.15l.07.68L188,28l.4,1.22.68,1.08.41.47.4.41,1.08.68.68.2.61.2.47.07.61.13.61.07h.68l.61-.07L197,32.1l.61-.14.61-.2.54-.2,1.15-.47,1.08-.54.95-.74.47-.34.47-.4.95-.88.81-.95.34-.47.4-.54.68-.95.34-.54.27-.54.34-.54.27-.54.34-.47.27-.54.27-.61.27-.54.34-.54.47-.34h.61l.61.4.34.61-.07.61-.27.61-.34.74-.41.74-.34.74-.4.74-.41.68L207.85,27l-.2.41-.41.61-.68.95-.41.47-.41.41-.41.47-.47.54-.2.27-.47.54-.41.47-.95.81-.68.54-.61.54-1.08.68-1.69.74-.54.2-.61.2-.88.13-.81.2-1.42.13-.88.07-.74.07h-.61l-2.43-.27-.54-.14-.61-.2-.61-.27-.54-.27-1.08-.61-.54-.27-.47-.41-.47-.47-.27-.34-.47-.54-.41-.47-.34-.54-.27-.47-.27-.61-.2-.54-.2-.61-.14-.61-.14-.54-.13-.61-.2-1.82V24.6L182,24v-.61l.41-1.82.2-.54.14-.61.2-.61.13-.61.2-.61.27-.74.34-.81.34-.61.41-.74.47-.68.27-.61.34-.47.41-.47,1-1.08,1-1,.54-.47.61-.47.68-.47.61-.47.68-.41.68-.34.61-.27.88-.41,1.42-.47,1.22-.27.88-.14h1.49l.88.14,1.08.2.88.2.61.2.61.27.54.27.41.27.95.81.41.47.41.68.34.81.2.61.14.61.07.61v.81l-.07.88-.07.68-.2.81-.27.81-.27.68-.2.34-.34.61ZM196,11.35l-.95.41-.81.4-.54.34-.95.81-.61.61-.54.61-.47.54-.47.74-.47.68-.34.61-.4.74-.27.81-.27.61-.2.54-.07.47.34.34.88.2,1.35.07.68.07h1.89l.68-.14.61-.13.68-.27.41-.14.68-.34.47-.34.47-.41.47-.47.47-.41.41-.54.34-.47.27-.54.34-.61.41-1.22.14-.68.07-.61-.07-.68-.27-.61-.41-.47-.54-.41-.61-.27-.61-.14-.61-.07-.68.13Z" fill="#173a3e"/><path d="M16.52,117.23c-1-7-4.08-18.72-9-26v26H0V54.5H9.2c6.38,0,12.65,6.59,12.65,18.3,0,11.5-7.63,16.41-7.63,16.41,4.81,6.9,9.1,18.92,10,28ZM8.68,61.5H7.53V84.19H8.68c2.3,0,5.23-5.44,5.23-11.4C13.91,67.36,12.23,61.5,8.68,61.5Z" fill="#173a3e"/><path d="M32.41,117.23V54.5H50.6v7H39.94V81.58H49v7h-9.1v21.64H51.12v7Z" fill="#173a3e"/><path d="M65.44,117.23h-5V54.5h5c12.76,0,20,7.84,20,31.37S78.2,117.23,65.44,117.23ZM68.9,62.55H68v46.63h.94c5.33,0,8.36-7.63,8.36-23.32S74.23,62.55,68.9,62.55Z" fill="#173a3e"/><path d="M124.1,117.23h-5.44c-2.82-13.07-5.65-36.8-5.65-36.8s-2.82,23.73-5.54,36.8H102c-2.72-10.66-8.47-48.09-8.89-62.73H101c.31,13.8,3.45,41.61,3.45,41.61s4.39-23.84,5.65-41.61h6c1.25,17.77,5.54,41.61,5.54,41.61s3.24-27.81,3.55-41.61h7.74C132.46,69.14,126.71,106.57,124.1,117.23Z" fill="#173a3e"/><path d="M154,118.07c-7.84,0-13.38-8.68-13.38-32.2s5.54-32.2,13.38-32.2,13.38,8.68,13.38,32.2S161.84,118.07,154,118.07Zm0-57c-3.66,0-5.23,9.1-5.23,24.78s1.57,24.67,5.23,24.67,5.23-9,5.23-24.67S157.65,61.09,154,61.09Z" fill="#173a3e"/><path d="M190.27,118.07c-7.84,0-13.38-8.68-13.38-32.2s5.54-32.2,13.38-32.2,13.38,8.68,13.38,32.2S198.11,118.07,190.27,118.07Zm0-57c-3.66,0-5.23,9.1-5.23,24.78s1.57,24.67,5.23,24.67,5.23-9,5.23-24.67S193.93,61.09,190.27,61.09Z" fill="#173a3e"/><path d="M219.12,117.23h-5V54.5h5c12.76,0,20,7.84,20,31.37S231.88,117.23,219.12,117.23Zm3.45-54.68h-.94v46.63h.94c5.33,0,8.36-7.63,8.36-23.32S227.9,62.55,222.57,62.55Z" fill="#173a3e"/><path d="M256.76,118.28c-5.86,0-10.66-7-10.66-7l4.18-6.06S253,111,256.76,111c2.51,0,4.18-2.09,4.18-4.7,0-8.57-13.07-26.35-13.07-40.36,0-7.32,4.6-12.44,10.46-12.44,5.54,0,8.89,5.75,8.89,5.75l-3.76,5.85s-2.3-4.39-4.7-4.39c-2.72,0-3.55,2.3-3.55,5.23,0,11.19,13.07,27.92,13.07,40.36C268.26,113.68,262.93,118.28,256.76,118.28Z" fill="#173a3e"/></svg>