<svg id="Layer_1" data-name="Layer 1" xmlns="http://www.w3.org/2000/svg" xmlns:xlink="http://www.w3.org/1999/xlink" viewBox="0 0 751.46 623.97"><defs><clipPath id="clip-path"><rect x="12.07" y="16.5" width="722.9" height="590.97" fill="none"/></clipPath></defs><title>ringsbig</title><g clip-path="url(#clip-path)"><g opacity="0.06"><path d="M439.34,587.4c-7.3-.09-14.6-.4-21.9-.69-7-.27-13.9-.75-20.86-.89-4.62-.09-9.25.4-13.88.36-6.56-.06-13.13-.1-19.66-.62-12.38-1-24.74-2.25-37.1-3.51-10.81-1.1-21.75-1.65-32.38-3.74-10.42-2.05-20.65-5-29.59-11.68-6.86-5.13-14.91-8.64-22.29-13.1s-15.12-8.73-22-14c-10.25-7.93-22-13.28-32.71-20.38-8.9-5.9-17.78-11.9-26.08-18.59-4-3.23-6.63-8.16-9.94-12.27s-6.37-8.26-9.93-12c-10.08-10.66-15.28-24-21-37.11-2.77-6.3-5.77-12.54-8-19-3.58-10.56-6.49-21.34-9.86-32a115.3,115.3,0,0,1-5.28-32.59,152.4,152.4,0,0,1,2.41-30.65,184.67,184.67,0,0,1,8.81-30.7c3-8.05,7.93-15.36,11.44-23.25,5.38-12.08,10.13-24.44,15.42-36.56C139.5,224,144,213.6,149.26,203.57c6.63-12.73,13.62-25.29,21.06-37.55,8.88-14.63,17.12-29.74,28.53-42.68,6.26-7.11,12.71-14.05,19.14-21,9.4-10.19,18.35-20.87,28.45-30.32,9.35-8.74,19.22-17.41,30.2-23.82,16.3-9.51,34.09-15.84,53.41-16.7,6.21-.28,12.37-2,18.58-2.22,16.88-.51,33.78-1,50.65-.6,9.48.2,18.91,2.2,28.39,3.15,13.62,1.35,27.27,2.44,40.89,3.73,2.93.28,5.82,1,8.75,1.42,8.77,1.15,17.54,2.28,26.32,3.33,8.58,1,15.81,5,22.75,9.86,4.88,3.43,10.46,4.7,16.48,5.59,7,1,14.31.85,21.05,4.86,6.2,3.69,13.58,5.43,20.5,7.85,5.91,2.07,12,3.65,17.84,5.87,10.9,4.12,21.72,8.44,32.49,12.87,7.93,3.26,15.67,7,23.6,10.21,9.14,3.73,18.65,6.66,27.54,10.89,8.52,4.05,16.56,9.17,24.64,14.1,9,5.49,17.93,11,26.54,17.07a90.37,90.37,0,0,1,14.32,12.41,166.52,166.52,0,0,1,24.29,34.67c6,11.21,9.59,23.34,12.61,35.76,3.21,13.16,3.66,26.45,4.63,39.78.85,11.71,2.45,23.37,3.53,35.06.47,5.08-.13,10.3.76,15.28,2.4,13.41.69,26.82.53,40.21-.14,11.89-5.09,22.66-9.44,33.45-7,17.48-14.9,34.64-21.52,52.27-4.63,12.34-9.88,24.34-17.69,34.82-6.54,8.77-14.47,16.53-22.06,24.48-5.39,5.64-10.8,11.43-17,16.09-9,6.74-18.53,12.74-28.08,18.67-12.68,7.88-27,12-40.94,16.85-13,4.58-25.94,9.54-38.89,14.37-11.28,4.21-21.8,10.29-33.79,12.78-16,3.3-31.71,7.73-48.17,8.26-14.85.48-29.69,1.34-44.55,1.9-7,.26-14,.12-21,.32-2.16.06-4.3.83-6.46,1C447.2,587.92,441.25,587.43,439.34,587.4ZM787.58,378.08l.49.2c1.51-4.51,3.79-8.92,4.37-13.54,1.28-10.27,2.07-20.63,2.35-31,.18-6.55-1-13.14-1.39-19.72-.52-10-.54-20.12-1.31-30.14s-2.8-19.69-3.19-29.57c-.68-17.07-4.6-33.42-9.76-49.51-5.86-18.27-16.86-33.63-29-48.07a92.92,92.92,0,0,0-16.6-15.16c-7.56-5.46-16.07-9.58-23.81-14.82-13.9-9.4-28.41-17.5-44.36-22.89-6.45-2.18-12.92-4.36-19.18-7-6.66-2.82-13-6.52-19.65-9.27-8.25-3.39-16.73-6.22-25.13-9.23-9.81-3.51-19.61-7.06-29.48-10.4-6.6-2.23-12.74-5.79-20.1-5.86-12.19-.13-23.67-2.78-33.35-11a20.11,20.11,0,0,0-7.52-3.89,139.9,139.9,0,0,0-16.52-3.42c-10.92-1.57-21.87-2.87-32.82-4.17-6.26-.74-12.56-1.14-18.81-1.93-11.07-1.4-22.09-3.39-33.19-4.41a347.26,347.26,0,0,0-62-.1c-6.94.6-13.85,1.71-20.73,2.86-8.36,1.4-16.92,2.29-25,4.81-15,4.7-28.78,11.74-40.25,23-9.77,9.57-20.61,18.07-30.11,27.88-10.19,10.54-19.37,22.07-29,33.17-3,3.47-6.43,6.69-8.87,10.53-7.71,12.1-15.07,24.42-22.51,36.69-5.87,9.68-12,19.2-17.34,29.19-4.49,8.46-7.93,17.47-11.8,26.25-4.25,9.65-8.46,19.32-12.71,29-1,2.32-2.25,4.54-3.24,6.87-2.89,6.77-5.63,13.61-8.58,20.35-3.71,8.47-8.28,16.63-11.17,25.36-2.52,7.61-3.53,15.77-4.66,23.77-2.74,19.44-.67,38.65,4.49,57.43,3.18,11.57,7.53,22.82,11.55,34.15,1.85,5.21,4,10.32,6.31,15.35,3.35,7.37,6.1,15.22,10.62,21.82C142.49,473,151.3,483.76,160,494.51c6.88,8.48,16.22,14.09,25.25,19.91,6.74,4.34,14,7.89,20.81,12.12,8.93,5.53,17.22,12,26.46,17.13,11.29,6.27,22.37,13,33.16,20.06,11.79,7.77,24.94,10.93,38.56,12.7,12.94,1.68,25.94,3,38.92,4.27,9.77,1,19.56,2,29.36,2.39,12.37.53,24.77.45,37.15.71,12.81.27,25.63.75,38.44.9,8.73.1,17.48,0,26.2-.37,10-.44,20-1,30-2,15.57-1.57,31.24-2.82,46.62-5.55a175.14,175.14,0,0,0,41.47-12.25c12.62-5.67,25.71-10.35,38.7-15.17s26.17-8.51,38.73-14c9.21-4,17.61-9.91,26.2-15.24a89.21,89.21,0,0,0,13.54-9.77c8.6-7.92,16.9-16.17,25-24.58a93.43,93.43,0,0,0,11.78-14.31,181.72,181.72,0,0,0,17.8-36.56C771.14,415.63,779.71,397,787.58,378.08Z" fill="#f3e6a0"/><path d="M157.66,230.48c6.63-12.76,13.64-25.24,19.71-38.16,8-17.05,21.87-29.28,34-43,7.1-8,15-15.42,21.63-23.85,6-7.67,12-15.29,19.37-21.62,10.74-9.21,21.22-18.87,32.76-27,12.52-8.78,26.77-14.24,42-17.29C348.18,55.37,369,50.29,391,51a276.71,276.71,0,0,1,58.13,8.46c14.58,3.64,29.07,7.79,43.81,10.63,15.61,3,31.52,4.41,47.18,7.16a243.2,243.2,0,0,1,27.88,7c7.61,2.29,14.92,5.54,22.41,8.21,5,1.79,10.14,3.31,15.2,5,2.46.82,4.89,1.74,7.33,2.62,7.77,2.79,15.53,5.6,23.3,8.38,12.08,4.31,24.27,8.32,36.19,13,5,2,9.31,5.39,14,8.06,3.4,1.94,6.83,3.86,10.36,5.53,8.88,4.19,14.28,12,20,19.35a86.83,86.83,0,0,1,9.3,13.8c2.31,4.56,3.18,9.83,5.06,14.64,5.45,13.89,11.13,27.69,16.63,41.56,2.65,6.68,4.72,13.61,7.71,20.13,9.37,20.39,14.41,42,17.74,64,2.71,17.9,1.36,36-1.77,53.89-1.88,10.75-3.46,21.56-5.48,32.28a87.82,87.82,0,0,1-8.65,24,114,114,0,0,1-15.08,22.67c-6.34,7.32-12.69,14.64-19.25,21.76-7.3,7.91-14.84,15.59-22.29,23.35-8.28,8.62-17.39,16.27-28.29,21.32-9.65,4.47-19.39,8.94-29.46,12.3-12.4,4.14-25.31,6.7-37.75,10.72-12.8,4.14-26,7.17-37.82,14.19-2.42,1.44-5.59,1.6-8.39,2.44-7.76,2.33-15.6,4.41-23.23,7.13a166.83,166.83,0,0,1-43.07,9.17,236.77,236.77,0,0,1-44.83-.79c-11.22-1.23-22.44-2.55-33.69-3.29-7.05-.47-14.18.32-21.26.08-11.25-.37-22.59-.38-33.71-1.93-10.13-1.41-20.14-4.2-29.94-7.23-8.87-2.74-17.43-6.5-26-10-7.32-3-14.4-6.59-21.8-9.38C273,528,264.34,525.68,256,522.55c-7.24-2.7-14.2-6.17-21.39-9-13.71-5.49-24.18-15.76-36-24-16.29-11.4-29.93-25.43-42.73-40.59-9.75-11.54-15.22-24.65-18.58-39s-6.22-28.75-10-43c-3.38-12.89-1.72-25.38,1.85-37.69,3.34-11.52,8.07-22.63,11.38-34.16,3.53-12.3,5.94-24.92,9.16-37.31C152.06,248.63,155,239.62,157.66,230.48ZM137.4,313.74c-2.28,9.49-4.79,19-6.48,28.56a51.3,51.3,0,0,0-.44,16.4c1.75,11.38,4.26,22.66,6.76,33.91,1.78,8,4,15.92,6.09,23.87a73.26,73.26,0,0,0,15.07,29.16c6.54,7.76,13.45,15.25,20.61,22.45a188.9,188.9,0,0,0,17.73,15.7c7.76,6,15.77,11.81,24,17.15a200.83,200.83,0,0,0,19.73,10.76c2.16,1.07,23.8,8.49,32.11,11.81,9,3.59,18,7,27.05,10.5,13.56,5.3,26.87,11.35,40.7,15.78A129.71,129.71,0,0,0,382,555.68c10.07-.16,20.17-.39,30.21.24,11,.69,21.84,3,32.8,3.44,16.5.68,33.06.94,49.56.3a124.66,124.66,0,0,0,39-8c7.44-2.79,15.08-5.07,22.64-7.53,3.87-1.25,8-1.93,11.64-3.64,13.63-6.37,28-10.48,42.33-14.84,8.09-2.47,16-5.8,24.29-7.2,14.64-2.48,27.21-9.61,40.11-16.06s22.7-17,32.73-27c7.94-7.93,15.08-16.65,22.6-25,10.13-11.26,19.65-23,26.21-36.75,4.36-9.15,6.11-19,7.83-29,3.49-20.22,7.69-40.35,6.59-61-.35-6.57-.37-13.28-1.8-19.64-2.94-13.12-6.28-26.19-10.28-39-3.85-12.33-8.71-24.35-13.18-36.48q-3.92-10.62-8-21.17c-2.1-5.38-4.33-10.71-6.57-16-1.46-3.47-3.6-6.75-4.46-10.35-3.43-14.35-12.43-25.19-22-35.67-8.38-9.2-20.16-13.15-30.77-18.71-8.21-4.3-17.24-7.09-26-10.19-7.61-2.68-15.45-4.72-23.1-7.29-6.84-2.29-13.57-4.92-20.35-7.4-4.19-1.53-8.33-3.18-12.56-4.59-7.48-2.51-15-4.84-22.52-7.31-5.78-1.9-11.41-4.52-17.33-5.74C536.35,80.88,521,78,505.48,75.6a428.34,428.34,0,0,1-47.82-9.66c-12.22-3.33-24.68-5.79-37.07-8.43-16.33-3.48-32.93-3.6-49.41-2.25-11,.9-21.85,3.59-32.7,5.8-8.71,1.78-17.5,3.46-25.92,6.23C299,71.75,286.91,79.07,275.68,87.79c-2.22,1.72-4,4-6.12,5.85-7.81,7-16.27,13.41-23.36,21.08-13.76,14.91-25.85,31.43-40.28,45.62-18.42,18.11-29.63,40.21-40,63.12a121.43,121.43,0,0,0-5,11.93c-3,9-5.84,18-8.31,27.06C148.46,277.81,137.84,311.89,137.4,313.74Z" fill="#f3e6a0"/><path d="M618.51,118.63c15,5.7,27,15.57,37.76,27.26,3.85,4.18,9,7.16,13.39,10.86,3.1,2.6,6,5.4,8.9,8.25,8.6,8.55,17.33,17,25.64,25.82a82.12,82.12,0,0,1,16.19,24.08c2,4.72,4.06,9.61,7.11,13.66,4.83,6.42,5.95,13.77,7.22,21.23,2.47,14.51,4.61,29.09,7.58,43.5,2.55,12.37,1.79,24.7.36,36.93-1.49,12.7-4,25.31-6.71,37.81-2.53,11.61-5.25,23.27-9.2,34.44a65,65,0,0,1-11.46,19.83c-9.11,10.77-19.15,20.79-29.11,30.82-11,11.08-23.69,20.1-36.71,28.58a171.15,171.15,0,0,1-36.54,18.37c-8.19,2.88-16.1,6.57-24.21,9.71-9.69,3.74-19.4,7.41-29.2,10.82a101.31,101.31,0,0,1-14.94,4c-12.54,2.3-25.15,4.19-37.71,6.38-8.36,1.46-16.62,3.64-25,4.62-10.87,1.28-21.84,1.71-32.77,2.47-6.22.44-12.43,1-18.66,1.17-7.19.2-14.4.13-21.6,0-7.41-.16-14.85-.25-22.22-1-6.71-.66-13.3-2.43-20-3.19-13.95-1.58-27.15-5.75-40.27-10.46-4.63-1.66-9.63-2.27-14.39-3.64-2.95-.85-5.69-2.42-8.63-3.31-8.53-2.59-17.16-4.83-25.65-7.54A120.91,120.91,0,0,1,265,504.83c-4.59-2.07-9.16-4.21-13.64-6.5-3.22-1.64-6.33-3.51-9.41-5.4-10.29-6.32-20.76-12.4-30.76-19.16a203.92,203.92,0,0,1-22.4-17.41c-3.57-3.22-5.88-8-8.33-12.26-3.65-6.41-7.49-12.82-10.2-19.65-2.8-7.06-4.23-14.64-6.44-21.95-2.47-8.18-5.42-16.23-7.65-24.47-2.57-9.47-6.37-18.66-5.8-28.87.59-10.63.41-21.29,4.78-31.36,1.05-2.43,1.06-5.28,1.77-7.88,2.38-8.7,4.65-17.43,7.34-26q6.42-20.5,13.35-40.84c4-11.64,10.86-21.7,17.87-31.7,6.22-8.88,11.89-18.15,18.13-27,9.14-13,18.53-25.81,27.89-38.65C247.25,137.75,253,129.8,259,122c9.89-12.77,22.52-21.36,38.6-24.32,11.68-2.15,23.32-4.82,35.11-6.06A438.1,438.1,0,0,1,378.07,89c14.91,0,29.81,1.68,44.73,2.39,10.08.48,20.18.42,30.26.84,5.43.22,10.84,1.16,16.27,1.39,8.78.36,17.61,0,26.35.69,9.8.79,19.53,2.52,29.3,3.68,6,.71,12.1.71,18,1.73,10,1.71,19.88,3.81,29.74,6.07q18,4.11,35.85,8.82C612,115.49,615.22,117.26,618.51,118.63Zm-441,137.1a56.39,56.39,0,0,0-2.19,5.32c-3.58,11.93-7.19,23.85-10.59,35.83-3,10.67-6.38,21.3-8.54,32.16-3.36,17-.55,33.54,5,49.74,2.91,8.43,6.1,16.78,8.43,25.37,3.21,11.81,6,23.68,12.91,34.09,3.51,5.32,5.85,11.81,10.37,16a179.39,179.39,0,0,0,25.25,18.89c13.74,8.74,27.84,17,42.05,24.9a122.9,122.9,0,0,0,21.3,9.46c12.58,4.15,25.49,7.32,38.17,11.18,9.55,2.91,18.77,7.24,28.48,9.2,15.93,3.2,32.12,5.2,48.25,7.33,22.94,3,45.83-.84,68.76-1,6,0,12-2.23,18-3.17,9.63-1.5,19.3-2.68,28.93-4.17,9.86-1.52,41.45-9,45.18-10.31,10.14-3.5,20.29-7,30.37-10.64,7.85-2.86,15.73-5.68,23.35-9.09,11.45-5.13,23.18-9.93,33.85-16.42A213.89,213.89,0,0,0,674.59,458c11.32-9.95,22.11-20.56,32.46-31.52,10.17-10.77,16.35-24,19.75-38.39,3.64-15.36,7.59-30.71,10-46.28,2-12.43,2.32-25.18,2.47-37.8.07-6.52-1.8-13.08-2.93-19.6q-3.47-20-7.1-40c-1-5.51-2.44-10.84-6-15.43a38.41,38.41,0,0,1-3.42-6c-2.39-4.67-4.32-9.63-7.13-14a151.7,151.7,0,0,0-29.22-33.54c-6.14-5.27-11.61-11.32-17.63-16.75-4.79-4.32-10.05-8.12-14.94-12.35-5.61-4.86-10.65-10.45-16.61-14.8A90.5,90.5,0,0,0,600,116.1c-13.94-3.05-27.64-7.3-41.66-9.83-16.66-3-33.52-5.06-50.35-6.92-11.48-1.26-23.07-1.43-34.61-2.17-6.59-.42-13.15-1.2-19.74-1.5-9.83-.45-19.67-.51-29.5-.92-10.51-.43-21-1.16-31.53-1.59-9.24-.37-18.5-1-27.72-.61-13.05.54-26.13,1.45-39.09,3.05-9.22,1.14-18.28,3.59-27.37,5.61C286.3,103.94,275.34,109,267.41,119c-6.66,8.43-13,17.12-19.59,25.59-5.38,6.89-11.4,13.3-16.37,20.46-11.77,16.95-23.1,34.21-34.58,51.35-3.44,5.14-7.35,10.07-10.09,15.57C183,239.55,177.3,255.64,177.53,255.74Z" fill="#f3e6a0"/><path d="M560.55,118.52c9.08,5.13,18.12,10.34,27.26,15.37,6.62,3.64,13.53,6.77,20,10.62,8.12,4.8,16.18,9.78,23.85,15.26,11.75,8.41,23.08,17.39,34.7,26,8.08,6,15.3,12.66,19.21,22.11,3.41,8.23,6,16.81,9.57,25,4.73,10.76,4.76,22.09,5.4,33.45.24,4.2,1.73,8.31,2.55,12.48a78.57,78.57,0,0,1,1.67,10c.77,12.06,1.72,24.13,1.82,36.2.09,11.24-.64,22.5-1.42,33.72a44.29,44.29,0,0,1-2.78,12.62c-4,10.49-7.73,21.23-13.11,31-4.35,7.93-10.88,14.68-16.55,21.86q-7.49,9.48-15.25,18.75c-5.95,7.1-13.47,12.28-21.23,17.18-2.36,1.49-4.32,3.61-6.64,5.2-5.18,3.57-10.3,7.28-15.76,10.38-6.58,3.74-13.24,7.6-20.32,10.14-9.48,3.4-19.43,5.47-29.1,8.36-3.79,1.13-7.29,3.25-11.07,4.42-13,4-25.86,8.32-39,11.54-9,2.21-18.44,3-27.72,4.08-5.69.67-11.65-.06-17.11,1.33-4.8,1.22-9.36,2.95-14.42,2.61-3.31-.22-6.63-.31-9.94-.45-2.45-.1-4.91-.17-7.36-.28-10.32-.45-20.66-.67-31-1.42a201.23,201.23,0,0,1-38.59-6.81c-9.2-2.52-18.66-4.08-27.95-6.29-8.62-2-17.19-4.34-25.76-6.6-6.53-1.73-13-3.51-19.52-5.4-8.3-2.43-16.53-5.12-24.85-7.47-11.87-3.35-22.11-9.82-31.73-17.13-10.56-8-22.15-15.09-29.42-26.78a133,133,0,0,1-12.27-25.2c-2.61-7.25-5.7-14.33-8.17-21.63-1.3-3.84-1.61-8-2.58-12-1.49-6.07-3.26-12.06-4.75-18.13a126.25,126.25,0,0,1-3.79-26.92c-.29-11,1.45-21.76,2-32.64.07-1.4,1.18-2.71,1.5-4.13,1.14-5.1,1.79-10.33,3.29-15.31,2.18-7.22,5-14.23,7.4-21.39,1.33-4,1.7-8.44,3.5-12.2,5-10.55,10.6-20.84,15.92-31.26,4.34-8.49,8.41-17.14,13-25.48,6.7-12.12,14-23.73,24.54-33.21,8.49-7.63,17.18-14.73,27-20.53,11.75-6.93,24.06-12.42,37.67-14.2,16.23-2.12,32.53-3.79,48.79-5.74,9.85-1.18,19.64-3,29.52-3.69,15.63-1,31.32-1.16,47-2,10.75-.55,21.47-2.07,32.23-2.29,17.22-.36,34.3-4.67,51.6-2.07C535.3,111.58,548.17,113.67,560.55,118.52ZM186.09,294.92c-1.46,8.17-3.58,16.24-4.62,24.46a109.51,109.51,0,0,0-.69,20.85c1,15.55,6.34,30.28,10,45.3,2.37,9.78,7,19,10.23,28.59,4.78,14.1,10.86,27.35,23,36.73,10.33,8,20.35,16.51,31.45,23.26,12.47,7.57,26.77,11.07,41,14.41,9.5,2.23,18.84,5.12,28.27,7.65,8.78,2.35,17.54,4.77,26.38,6.89,7.34,1.76,14.74,3.33,22.17,4.64,12.06,2.13,24.11,4.61,36.28,5.74,11.23,1,22.61.63,33.93.62,6.26,0,12.7.27,18.71-1.1,3.53-.81,6.51-1.17,9.84-.13a7.24,7.24,0,0,0,2.8.07c7.38-.77,14.82-1.2,22.11-2.47,11.29-2,22.59-4.07,33.66-7,8.44-2.2,16.53-5.75,24.8-8.62a131,131,0,0,1,13.87-4.47c10.13-2.29,20-5,28.91-10.65,5-3.14,11-4.72,16-7.88,7.85-5,15.24-10.71,22.82-16.12,3.42-2.44,7.41-4.36,10.15-7.41,10.46-11.59,20.59-23.46,30.69-35.37,5.45-6.43,10.13-13.36,12.81-21.51,1.93-5.89,3.72-11.91,6.47-17.42,3.7-7.43,4.52-15.38,4.93-23.27.61-11.8.16-23.66.12-35.5,0-10.63.1-21.2-2.21-31.75-2-8.93-2.6-18.15-3.82-27.24-.69-5.09-.65-10.42-2.22-15.22-3.54-10.77-7.93-21.26-11.87-31.9A40,40,0,0,0,668.12,191q-16.62-12.56-33.54-24.72c-8.49-6.1-17-12.27-25.88-17.69-7.59-4.61-16.13-7.66-23.67-12.34-12.46-7.75-25.15-14.89-39.46-18.46-8.72-2.18-17.6-4.56-26.5-5-12.08-.61-24.27.29-36.39,1-12.8.73-25.57,2-38.36,3-2.69.21-5.42,0-8.11.18-9.35.61-18.69,1.41-28.05,1.92s-18.58-.16-27.63,1.28c-17.39,2.78-34.84,4.4-52.38,5.73A95.45,95.45,0,0,0,304,130.72a180.74,180.74,0,0,0-28.16,12.87c-6.61,3.69-12.58,8.7-18.32,13.72a148.15,148.15,0,0,0-17.67,17.61c-4.55,5.59-7.81,12.24-11.44,18.54s-7.28,12.89-10.69,19.45C215,218.2,212.65,223.69,210,229c-3.53,7.19-7.38,14.25-10.67,21.54-2.12,4.7-3.51,9.73-5.21,14.63-.78,2.24-1.52,4.49-2.25,6.75C190.26,277,186.54,292.41,186.09,294.92Z" fill="#f3e6a0"/><path d="M664.84,376c-4.47,12-12.66,20.59-19.2,30.3a118.31,118.31,0,0,1-18.45,22c-6.89,6.24-14,12.24-20.89,18.49-3.54,3.21-6.51,7.1-10.26,10-6.42,5-13.14,9.67-19.94,14.15A210.66,210.66,0,0,1,557,482.43c-4.78,2.46-10.11,3.85-15.15,5.81-4.23,1.64-8.38,3.48-12.6,5.13a18.35,18.35,0,0,1-5,1.47c-6.76.55-13,3.13-19.47,4.69a65.29,65.29,0,0,1-14.82,1.4c-12.51.07-25,.14-37.52-.44C441,500,429.61,498,418.21,497.76c-10.94-.24-21.9,1.13-32.86,1.36-7.68.16-15.37,1.47-23.1-.54-4.24-1.1-8.89-.51-13.21-1.39-6.24-1.28-12.37-3.12-18.5-4.87-5.31-1.52-10.61-3.1-15.83-4.93a65.39,65.39,0,0,1-8.16-3.86c-7.82-4-15.67-8-23.37-12.23-4.81-2.64-9.44-5.62-14-8.62-8.92-5.83-18-11.45-26.54-17.81-5.64-4.2-11.33-8.61-14.47-15.42a80.87,80.87,0,0,0-7.25-12.55c-4.06-5.77-4.65-12.5-5.75-19-2.28-13.61-2.39-27.57-7.06-40.82-1.42-4-1.21-8.61-1.82-12.92-.58-4.09-1.72-8.16-1.81-12.25-.28-13-1.26-26,2.89-38.79a46.79,46.79,0,0,0,2.34-16.24c-.11-3,1-6.12,1.94-9.06,2.83-8.69,4.53-17.75,9.59-25.69,3-4.76,4.86-10.26,7.66-15.18a76.69,76.69,0,0,1,8.17-12c9-10.55,18.53-20.69,27.5-31.3C275,171.27,288,162.15,301.84,154.24A157.81,157.81,0,0,1,324.74,143c13.34-5,27.24-8,41.24-10.82a283,283,0,0,1,40.94-5.23c11.59-.6,23.24.21,34.87.1,7.85-.07,15.74-1.33,23.54-.84,17.22,1.09,34.38,3,51.57,4.49,4.18.37,8.47.1,12.55.94,14.34,3,28.93,5.26,42.14,12,12.28,6.31,24.67,12.51,36.36,19.8,6.76,4.22,12.31,10.41,18.24,15.89a75.28,75.28,0,0,1,9,9.56c7,9.21,14,18.41,20.25,28.11,2.4,3.72,2.87,8.74,4,13.23,2.42,9.87,5,19.73,6.95,29.69,2.56,12.87,6.25,25.54,5.71,39s.41,26.62-.4,39.87C670.86,351.66,670.49,364.79,664.84,376ZM313.61,484l.15-.29A35.28,35.28,0,0,0,317,485c7.79,2.36,15.57,4.78,23.41,7a97.82,97.82,0,0,0,34.82,3.76c12.17-1,24.32-2.36,36.56-1.57,14.76,1,29.52,2,44.28,3,8.47.55,17,1.8,25.41,1.28,10.56-.65,21-2.65,31.53-4.29,12.39-1.94,23.66-7.43,35.28-11.75,5.28-2,10.09-5.21,15-8,10.22-5.82,21-10.72,29.43-19.37,3-3.07,6.36-5.75,9.56-8.62,6.8-6.11,14.11-11.74,20.26-18.45,7.89-8.6,14.48-18.38,22.28-27.06a81.09,81.09,0,0,0,21-46.41c.88-8,.91-16.13,1.21-24.21.38-10.09,1.57-20.26.74-30.26-1.09-13.17-3.56-26.25-5.89-39.29-1.59-8.86-4.28-17.52-5.89-26.38a69.48,69.48,0,0,0-9.32-24.6c-3.52-5.64-8.59-10.29-12.64-15.63a115.17,115.17,0,0,0-26.22-25.45c-10-6.92-20.41-13.62-31.45-18.65-8.22-3.75-16.25-8.47-25.66-9.77-8.08-1.11-15.92-3.85-24-5.3-4.84-.87-9.91-.38-14.82-.95-12.22-1.41-24.38-3.45-36.63-4.5-7-.6-14.13.27-21.2.39-17.68.3-35.36.45-53,.88a168.23,168.23,0,0,0-20.38,1.54c-6,.88-11.79,2.73-17.68,4.16-11,2.66-22.29,4.42-32.86,8.22a153.27,153.27,0,0,0-32,15.94c-13.84,9-26.45,19.36-36.89,32.27-9,11.08-18.7,21.58-27,33.11a102.35,102.35,0,0,0-13.48,25.29c-3.55,10-6.92,20.13-7.53,31.2-.61,10.88-4.93,21.36-5.31,32.59a162.16,162.16,0,0,0,4.42,43.91c1.43,5.9,3.41,11.81,3.83,17.8,1,13.92,2.31,27.6,8.7,40.37,3.88,7.74,7.62,15.7,14.56,21,12.1,9.2,24.37,18.29,37.28,26.29C288.54,471.68,301.28,477.49,313.61,484Z" fill="#f3e6a0"/><path d="M248.57,290.32c6.89-15.19,14.13-25.68,23.54-34.71,17.71-17,35.26-34.1,53-51.07,9.05-8.68,17.58-18.15,27.67-25.42,9.47-6.83,20.53-11.56,31.18-16.63a93.68,93.68,0,0,1,37.7-9c6.61-.21,13.19-1.35,19.8-1.45,8.34-.12,16.69.43,25,.62,9.76.22,19.57-.17,29.27.69,15.08,1.33,30.33,2.74,44.24,9.41,8.52,4.09,16.61,9.09,24.84,13.79,7.56,4.32,15.44,8.23,22.43,13.35,8.3,6.08,16.77,11.9,24.46,19,10.73,9.89,17.93,21.59,23.82,34.56,5,11.07,4.75,23,6.17,34.6,1.09,9,2.16,18,2.86,27,1.06,13.55,2.62,27.14-.75,40.62a48.47,48.47,0,0,1-2,6.28c-4.32,10.77-7.32,22-13.76,32-3.4,5.26-5.28,11.54-7.58,17.47S614.12,411.84,609,415.6c-1.26.93-2,2.53-3.23,3.56-6.26,5.35-12.2,11.22-19,15.7-5.49,3.59-12.2,5.26-18.2,8.12-7.92,3.77-15.62,8-23.54,11.81-9.42,4.49-19.16,8.34-28.42,13.13-10.62,5.5-22.17,6.42-33.6,8.16-5.79.88-11.65,2.09-17.46,2-9.46-.15-18.89-1.29-28.35-1.91-9.82-.64-19.65-1.16-29.48-1.69-7.75-.41-15.6-.11-23.21-1.34-5.36-.86-10.5-3.54-15.55-5.8a68.28,68.28,0,0,0-18.2-5.46c-7-1-13.86-3.57-20.76-5.49-10.44-2.91-21-5.59-31.27-8.88a149.54,149.54,0,0,1-19.51-7.89,116.68,116.68,0,0,1-24-15.7c-7.2-6-9.28-14.25-12.33-22.13a93.81,93.81,0,0,1-4.36-16.7c-1.08-5.83-1.45-11.8-2.19-17.7-1.47-11.74,1-23,3.54-34.37,1.56-6.83,1.85-13.94,3.3-20.81C244.93,303.69,247.32,295.28,248.57,290.32ZM539.28,166c-7.43-2.18-13.8-4.85-20.42-5.83-12.34-1.84-24.81-3-37.27-3.87-11.43-.78-22.91-1.11-34.36-1-10.05.13-20.13.87-30.13,1.93-6.78.72-13.75,1.61-20.09,3.92-9.69,3.53-19,8.22-28.3,12.67C356.5,179.65,346,188,336.64,197.59c-6,6.14-11.13,13.12-17.26,19.1-10.19,9.94-21,19.29-31.31,29.08-6,5.64-11.83,11.42-17.29,17.54a141.37,141.37,0,0,0-11.71,15.36c-5.75,8.56-8.35,18.47-10.87,28.3-1.5,5.84-2.31,11.87-3.34,17.82-.89,5.16-1.52,10.37-2.52,15.51-2.46,12.68-3.27,25.47-1.1,38.19a215.07,215.07,0,0,0,6.71,27.66,38.59,38.59,0,0,0,7.37,13.4c7.54,8.74,17.34,14.88,28,19,13.45,5.2,27.32,9.33,41.14,13.53,9.11,2.77,18.44,4.84,27.66,7.26,6,1.59,12.08,3.17,18.08,4.9,5.59,1.61,11.08,3.58,16.7,5.06,2.07.54,4.42-.08,6.59.21,5,.65,9.9,1.8,14.89,2.26,10.24,1,20.5,1.64,30.76,2.35,9.68.67,19.3,2.83,29.06,1.41,10.24-1.49,20.48-3,30.66-4.81A59.86,59.86,0,0,0,512.08,467c6.39-2.76,12.4-6.4,18.69-9.43,11.06-5.34,22.28-10.36,33.29-15.81,10-4.93,21-8,29.34-15.78,6.18-5.78,12.83-11.34,17.74-18.11,4.74-6.53,7.48-14.5,11.16-21.8.91-1.8,2.25-3.41,3-5.26q5.82-14.08,11.42-28.25c1.24-3.12,2.72-6.27,3.22-9.54a133.47,133.47,0,0,0,.17-36.94c-1.29-10.53-2.17-21.12-3.31-31.67-1.26-11.66-2.73-23.23-7.5-34.18-6.6-15.18-17-27.33-30-37.07-9.46-7.08-19.72-13.11-29.8-19.33S548.91,171.65,539.28,166Z" fill="#f3e6a0"/><path d="M525,185.44c15.34,7.79,29.18,14.58,42.79,21.83a101.57,101.57,0,0,1,27.53,22.05A56.48,56.48,0,0,1,609.16,259c.78,5.14,2.66,10.11,3.66,15.23a128.93,128.93,0,0,1,2.38,16.34c.52,8,.63,16.13.57,24.2,0,3.45-1,6.89-1.43,10.34-1.16,8.42-2.11,16.86-3.5,25.24a98.51,98.51,0,0,1-3.42,13.4,147.11,147.11,0,0,1-5.57,15.42c-2.75,6.2-6,12.17-9.09,18.24-.24.48-.58.93-.79,1.42-6.14,14.27-18.25,22.4-30.93,29.83-5.49,3.22-11.11,6.47-17.08,8.53-8.32,2.87-17,4.7-25.56,6.86-6.42,1.62-12.84,3.38-19.36,4.51-15.34,2.67-30.73,3.91-46.27,1.11-3-.54-6.3.75-9.47,1.08s-6.79,1.42-9.82.66c-12.24-3.07-24.64-3.14-37.12-3.56-11-.37-21.94-2-32.9-3.25-11.91-1.31-23.85-2.5-35.7-4.27-4.81-.72-9.47-2.66-14.12-4.29-10.69-3.75-19.56-10.39-28.2-17.55C272,407.32,262.33,393.56,257.26,377c-2.2-7.2-3.86-14.81-2.37-22.74,1-5.48,0-11.38,1.25-16.78,1.51-6.51,4.36-12.72,6.85-19s5.51-12.39,7.9-18.73a151.93,151.93,0,0,1,21-37.65c7.17-9.57,16.82-16.62,25.41-24.75,8-7.57,17.45-12.95,25.53-20.23,3.56-3.21,8.13-5.3,12.24-7.89,2.13-1.35,4.3-2.64,6.39-4,15.67-10.61,31.29-21.3,47-31.84,8-5.34,16.94-7,26.36-6.26,21.94,1.78,43.36,6.48,64.68,11.72C508.59,181,517.63,183.51,525,185.44Zm77.23,182.23c2-7.2,3.72-12,4.55-16.88,1.84-10.87,3.64-21.79,4.66-32.76a170.92,170.92,0,0,0,.21-24.89c-.33-6.13-1.7-12.22-2.86-18.28-1-5.29-2.46-10.49-3.58-15.76-2.39-11.24-6.46-21.73-14.76-29.92a162.92,162.92,0,0,0-18-15.37c-5.18-3.8-11-6.75-16.73-9.75-4.81-2.52-9.88-4.52-14.8-6.84-5.29-2.5-10.36-5.55-15.82-7.56-6.37-2.34-13-3.92-19.61-5.65-9.17-2.42-18.33-4.95-27.6-6.93-10-2.14-20.07-4-30.19-5.45-14.81-2.16-29.24-2.1-42,7.8-8,6.18-16.48,11.73-24.87,17.38-11.09,7.47-22.53,14.46-33.4,22.24-9.86,7.05-19.35,14.66-28.65,22.45-7,5.85-14.11,11.8-19.92,18.75-6.27,7.51-11.1,16.23-16.53,24.44a25.9,25.9,0,0,0-2.68,4.55c-3.6,9.06-7,18.19-10.61,27.25q-3.37,8.5-7,16.88c-4.2,9.54-3.66,19.76-2.86,29.53,1,11.82,5.51,22.67,12,33.1,7.56,12.2,17.88,21.29,29.2,28.86a78.75,78.75,0,0,0,37.37,13.45c12.86,1.07,25.66,2.92,38.45,4.69,15,2.08,30.23.25,45.27,2.09,1.83.22,7,.25,7.67.43,2.4.63,4.82,1.76,7.22,1.73,8.89-.09,17.56-2.26,26.73-.58,7.26,1.33,15.13.46,22.57-.55,12.85-1.75,25.6-4.28,38.36-6.66,4.9-.91,10-1.66,14.49-3.6a227.24,227.24,0,0,0,24.11-12c15.45-8.92,25.55-22.55,32.38-38.78C597.75,378.59,600.46,372,602.27,367.67Z" fill="#f3e6a0"/><path d="M593.44,356.67c-4.08,10.61-10.55,19.6-18.55,27.62-2.82,2.82-4.78,6.51-7.61,9.31-10.77,10.68-23.81,17.46-38.18,22.08-4.52,1.45-8.45,4.67-12.93,6.33-4.93,1.83-10.17,2.83-15.29,4.14-11.48,2.94-22.95,6-34.47,8.72-7.46,1.79-15,1.07-22.55.24-8.67-1-17.38-2.14-26.07-2.12-10.3,0-20.6,1.57-30.91,1.83a79.77,79.77,0,0,1-19.47-1.45,219.33,219.33,0,0,1-30-8.9c-6.17-2.36-11.78-6.39-17.28-10.2a177.15,177.15,0,0,1-16.49-13c-7.46-6.61-12-14.92-15.63-24.39a92.41,92.41,0,0,1-5.55-28.78c-.69-14,.84-27.67,6.28-40.52,3.33-7.86,8.15-15.11,12.44-22.55,3.45-6,6.74-12.09,10.77-17.66a157,157,0,0,1,24-25.93c6.88-6,13.51-12.49,21-17.65,9.25-6.36,19.22-11.69,29-17.26,7.55-4.29,15.34-8.06,24.06-9.52,12.09-2,24.15-4.06,36.51-2.75,7.89.84,15.81,1.4,23.72,2,8.78.68,16.76,3.63,24.44,7.88,3.27,1.8,7.25,2.28,10.61,4,16.31,8.12,32.73,16.05,48.64,24.9,5.08,2.83,9.07,8,12.95,12.55,8.37,9.9,16.33,20.14,24.5,30.22a38.67,38.67,0,0,1,8.38,21.8c.87,11.51,1,23.08,1.08,34.63,0,4-1.16,7.92-1.8,11.89C598.78,344,595.07,352.43,593.44,356.67ZM514,417.78c7-2.43,14.06-4.86,20.83-7.89,7.37-3.29,14.79-6.71,21.51-11.1,4.29-2.8,7.19-7.66,11-11.29A90.72,90.72,0,0,0,589.61,355c1.34-3.39,2.45-6.86,3.64-10.31a46.32,46.32,0,0,0,2.32-7.13c2.05-12.1,1.8-24.27.51-36.41-1.15-10.85-5.7-20.23-12.84-28.5-6.72-7.78-13.17-15.79-19.71-23.72-7.18-8.71-15.46-15.9-26-20.46-7.12-3.08-13.91-6.92-20.89-10.34-4.12-2-8.26-4-12.49-5.79-5.64-2.35-11.36-4.49-17.07-6.66-4.14-1.57-8.2-3.68-12.5-4.42-8.2-1.41-16.53-2-24.81-2.94-13.33-1.51-26.48,0-39.54,2.59-3.6.72-7.42,1.1-10.67,2.64-9.38,4.46-18.9,8.81-27.63,14.36a260.59,260.59,0,0,0-26.47,19.92A165.89,165.89,0,0,0,327.87,255,220,220,0,0,0,311,276.38c-4.2,6.09-6.78,13.31-11.09,19.31C292.49,306,289,317.61,287.4,329.77c-2,15.14-1.11,30.21,3.92,44.79,2.42,7,4.79,14.12,10.62,19.29,5.55,4.93,10.9,10.12,16.71,14.72,7.26,5.75,14.72,11.3,23.93,13.85,6.26,1.73,12.34,4.13,18.61,5.83,8.49,2.31,17.09,4.22,26,3.39,6.06-.56,12.17-.85,18.16-1.81,12.22-2,24.32-.27,36.16,1.89,14.7,2.68,28.17-1,41.84-5,7.63-2.26,15.38-4.1,23.3-6.2C506.68,420.32,511.92,418.49,514,417.78Z" fill="#f3e6a0"/><path d="M367.29,414.43c-6-3.39-11-6.13-15.91-9-6.8-3.91-13.73-7.63-20.31-11.88-14.22-9.2-21.17-23.23-25.83-39-2.72-9.18-.72-18,.35-26.9,1.38-11.59,5.24-22.51,9.47-33.24,2.55-6.48,5.56-13,9.7-18.55,3.27-4.35,8.52-7.26,13-10.64,10.41-7.85,20.47-16.29,31.46-23.23,13.19-8.32,26.91-15.69,43-17.77,12.56-1.62,24.82-5.45,37.36-7.32,14.13-2.1,28.58-3.55,41.7,4.18,5.35,3.16,9.85,7.74,14.93,11.4,8.27,6,16.72,11.67,25,17.6a39.51,39.51,0,0,1,4.64,4.43c9.08,9.06,19.35,17.16,25,29.09,5.56,11.73,12.2,23.1,14.64,36,1.64,8.7,3.5,17.53,1,26.41a49.39,49.39,0,0,1-3.13,7.28c-1.68,3.62-3,7.52-5.23,10.73A206.24,206.24,0,0,1,554.85,381c-4,4.62-8,9.66-13,13-9.31,6.21-19.56,10.73-30.22,14.53-10.24,3.65-20.47,6.54-31.33,6.87-6.34.19-12.7-.11-19,.32-6.58.45-13.11,1.58-19.68,2.28-9.12,1-18.26,1.79-27.38,2.73-4,.42-8.05,1.63-12,1.35a122,122,0,0,1-17.83-2.94C378.29,417.73,372.27,415.81,367.29,414.43Zm-49-117.64c-.78,2.69-1.37,5.51-2.4,8.15a102.79,102.79,0,0,0-7.21,34.65c-.44,18.73,7.29,34.82,21.57,47.08,5.63,4.84,12.4,8.44,18.9,12.17,8.2,4.7,16.54,9.2,25.06,13.29,3.73,1.79,8,2.63,12.12,3.36,7.65,1.36,15.1,4.63,23.14,2.65,3.54-.88,7-2.09,10.65-2.53,7-.87,14.1-1.27,21.14-1.93,8.27-.77,16.52-1.85,24.8-2.37,8.07-.51,16.21-.08,24.25-.83,4.93-.46,9.75-2.26,14.58-3.64,13.78-3.92,27.17-9.07,38-18.62a130.61,130.61,0,0,0,18.32-20.79c4.31-5.87,8.31-12.44,10.48-19.33,3.27-10.4,1.86-21.28-1.51-31.56a167.83,167.83,0,0,0-9.56-23.13,145.78,145.78,0,0,0-12.67-20.78c-3.46-4.7-8.18-8.52-12.51-12.54-4.09-3.79-8.27-7.51-12.66-11-8.83-6.92-18.14-13.26-26.65-20.55a39.26,39.26,0,0,0-25.66-9.4c-9.22-.13-18.51,1.73-27.71,3.11-11.32,1.69-22.7,3.23-33.83,5.83-10.83,2.52-21.34,6.41-30.63,12.81-6.34,4.37-12.42,9.1-18.72,13.53q-12.09,8.52-24.34,16.81C326.08,277.48,323.67,288.06,318.26,296.79Z" fill="#f3e6a0"/><path d="M499.61,246.14c5.4,2.62,9.85,5.83,13.24,10.57,4.15,5.81,8,11.79,12.12,17.65,5.37,7.71,11.1,15.19,16.14,23.11,7.18,11.28,13.28,23.15,16.33,36.31,1.59,6.85-.28,13.31-3.63,19.16s-6.62,11.59-11.09,16.3a112.27,112.27,0,0,1-17.93,14.89c-9.4,6.47-20.12,9.9-31.34,12.07-13.58,2.62-27.07,5.74-40.57,8.79-2.11.48-4,2.14-6.08,2.57-10.63,2.14-21.33,1.71-32.1,1.07-16.62-1-33.3-2.43-48.83-8.25a63.61,63.61,0,0,1-29.56-21.92c-6.5-8.86-10.1-18.76-13.46-28.89-2.85-8.6-2.58-17.35-.25-26,2.16-8,4.24-16,7.13-23.75,5-13.44,15.15-21.89,28-27.81,5.27-2.42,9.65-6.81,14.42-10.31,7.83-5.76,15.15-12.43,23.6-17.06,10.78-5.91,22.07-11.7,33.86-14.78,15.41-4,31.48-4.79,46.39,3.69C476.25,233.17,491.61,242.26,499.61,246.14ZM334.35,300.93c-1.47,4.4-3.26,8.72-4.33,13.21a147.66,147.66,0,0,0-3.86,20.15c-.93,9.71,2.91,18.53,6.4,27.39a58.18,58.18,0,0,0,32.62,33.25c8.68,3.65,18.16,5.82,27.49,7.4,10.18,1.73,20.61,2.13,30.94,2.86,4.91.34,10,.89,14.76-.07,7.25-1.47,14.16-4.63,21.4-6.25,12.58-2.82,25.3-5,38-7.49,8.34-1.63,16-5.08,23.31-9.22,11.37-6.45,20.25-15.66,27.07-26.75,3.61-5.87,6.62-12.53,5.06-19.33A104.81,104.81,0,0,0,539.4,302.8c-3.4-5.31-7.82-10-11.32-15.21-4.88-7.32-9-15.13-14.06-22.33a66.11,66.11,0,0,0-11.44-12.75c-8.36-7-18.3-11.45-28.26-15.83-7.37-3.24-14.85-6-22.89-5.54-12,.64-23.43,2.48-34.91,7.31-15,6.32-27.52,15.94-40.51,25.12-5.72,4-11.35,8.22-17.17,12.13-4.36,2.93-9.66,4.82-13.25,8.45C340.94,288.9,334.11,300.74,334.35,300.93Z" fill="#f3e6a0"/><path d="M465.74,282.31c6.43,3.88,13.12,6.28,17.35,10.91,4.41,4.83,7.22,11.57,9.34,17.93,3.69,11.09,1.47,22.34-1.05,33.44-2.29,10.08-7.73,18.25-16.28,23.75-7,4.49-14.26,8.35-23.5,7.64-9.57-.73-19.63-1.07-28.86,1.08-12.31,2.87-19.41-4.09-27-10.8-4-3.59-8.11-7.79-10.4-12.57-4.83-10-8.49-20.86-4.72-32A41.6,41.6,0,0,1,393,303.27a96.91,96.91,0,0,1,29.09-17.57,72.8,72.8,0,0,1,33-4.86C459,281.21,462.76,281.89,465.74,282.31Zm.33,5c-4.5-.82-9-2-13.51-2.4-12.68-1.23-24.28,2.63-35.71,7.68-9.83,4.34-18.63,10-25,18.66-3.21,4.35-6.86,9.31-7.54,14.36-.84,6.25.57,13,2.12,19.34,2.44,9.85,8.94,17.31,17.14,22.89,5.44,3.7,11.41,7,18.73,5.26,3.23-.78,6.7-.52,10-1.12,9.56-1.74,19.28.28,29-2.53,8.54-2.47,15.84-5.63,20.47-13.31a52.81,52.81,0,0,0,6.53-16,62,62,0,0,0-1-31.52C484.08,297.68,475.54,292.31,466.06,287.33Z" fill="#f3e6a0"/><path d="M400.65,330.94c5-11.89,14.81-18.55,26.09-23.52a55.53,55.53,0,0,1,27.73-4.32c20.39,1.88,29.57,15.37,27.07,35.5-1,7.73-4.63,13.69-9.44,18.74-2.73,2.87-7.79,4.05-12,4.86-10.15,1.94-20.38,3.82-30.67,4.55-7.65.54-15.63.09-22.56-4.26-5.22-3.28-10.81-11.42-9.08-18.55.73-3,.78-6.14,1.34-9.19A20,20,0,0,1,400.65,330.94ZM458.85,358c-.55-.17-.18.07.17,0,8.07-.93,15.81-7.91,17.14-15.8.74-4.37.63-8.87,1.19-13.28.94-7.46-6.31-16.41-12.44-18.71-8.39-3.15-17.34-3.43-26.13-1.88-4.11.73-8.1,2.52-12,4.23C412.74,318.8,402,327.53,402,344.75c0,5.42,3.88,13.86,8.19,15.37a50.86,50.86,0,0,0,21.94,2.54c2.86-.27,5.69-.91,8.53-1.38-2.87-1.07-5.65-1-8.41-1.32-12.38-1.25-21.64-8.66-18.24-22,2-8,7.55-14.19,14.54-18.35,5.14-3.06,11.06-4.84,16.68-7.06,5.27-2.08,15.88,1.24,19.58,5.59,5,5.82,6.23,12.63,5.08,19.76-.52,3.24,2.3,6.65-.93,9.7C465.34,351,462.05,354.68,458.85,358Zm-40.19-23.61c-3.3,11.71-.26,18.36,9.78,20.86A44.15,44.15,0,0,0,455,354c5.85-2.17,10.07-6.62,10.8-11.7,1-6.84,1.23-14.53-4-20.65-2.3-2.7-4.5-4.72-8.59-5.12-9.76-1-17.74,2.8-25.09,8.26C424.54,327.45,421.78,331.17,418.65,334.41Z" fill="#f3e6a0"/><path d="M456.81,342.54A16.6,16.6,0,0,1,440,352.3c-3.07-.29-6.16-.59-9.18-1.18-2.77-.55-4-2.7-4.21-5.37a18.66,18.66,0,0,1,6.15-16.42c4.47-4,9.3-7.18,15.78-7.27,7.41-.1,12.23,5.24,10.47,12.28C458.32,337.08,457.54,339.81,456.81,342.54Zm-24.34-4.47c-.42,1-.89,2-1.25,3-1.61,4.52-.16,7,4.55,7.53,5,.55,9.39-.27,13.3-4.08,3.08-3,6.86-11.7,5.53-15.45-.21-.6-.78-1.44-1.27-1.5-3.21-.39-6.67-1.46-9.61-.68C438.14,328.41,434.4,332.51,432.47,338.07Z" fill="#f3e6a0"/><path d="M438.14,343.16c-.43-1.73-1.72-3.86-1.21-5.4,1.36-4.12,3.21-8.3,7.85-9.84a5.91,5.91,0,0,1,7.09,2.13,5,5,0,0,1-.94,7,77.36,77.36,0,0,1-8.84,6.21C441.44,343.69,440.27,343.26,438.14,343.16Zm1.62-3.59c5.54-.39,6-5.11,9.11-8.26C442.89,331.62,441.91,335.78,439.76,339.58Z" fill="#f3e6a0"/><path d="M472.81,385.52c1.4-.15,2.78-.35,4.14-.6-1.37.25-2.75.46-4.14.6Z" fill="#f3e6a0"/><path d="M378.45,281.89c2.07-2.32,4.09-4.71,6.28-6.88C382.54,277.17,380.52,279.56,378.45,281.89Z" fill="#f3e6a0"/><path d="M527.21,358.24a17.24,17.24,0,0,0,4-8.76c.18-1.26.37-2.52.56-3.78-.19,1.26-.38,2.52-.56,3.78A17.24,17.24,0,0,1,527.21,358.24Z" fill="#f3e6a0"/><path d="M368.7,292c2.15-2.27,4.35-4.49,6.56-6.71C373.05,287.51,370.85,289.73,368.7,292Z" fill="#f3e6a0"/><path d="M532,315.6a38,38,0,0,1,1,6.15A38,38,0,0,0,532,315.6Z" fill="#f3e6a0"/><path d="M472.84,257.11a64.25,64.25,0,0,0-7.2-2.62,64.25,64.25,0,0,1,7.2,2.62Z" fill="#f3e6a0"/><path d="M438.4,391.77c2.56-.47,5.13-.86,7.7-1.24h0C443.52,390.91,441,391.3,438.4,391.77Z" fill="#f3e6a0"/><path d="M419.93,395.32c1.42-.14,2.83-.3,4.23-.47a57.84,57.84,0,0,0,7.13-1.43,57.84,57.84,0,0,1-7.13,1.43C422.76,395,421.35,395.18,419.93,395.32Z" fill="#f3e6a0"/><path d="M532.37,341.91a71.69,71.69,0,0,0,.68-7.6c.09-3.13.2-6.3.11-9.44.1,3.14,0,6.31-.11,9.44A71.9,71.9,0,0,1,532.37,341.91Z" fill="#f3e6a0"/><path d="M481.61,383.79a39.45,39.45,0,0,1-4.23,1A41.4,41.4,0,0,0,481.61,383.79Z" fill="#f3e6a0"/><path d="M363.77,377.45a63,63,0,0,1-5.55-6.27A63,63,0,0,0,363.77,377.45Z" fill="#f3e6a0"/><path d="M354,310.15c1.71-2.63,3.54-5.16,5.48-7.6C357.53,305,355.69,307.52,354,310.15Z" fill="#f3e6a0"/><path d="M413.42,259.85c2.47-.56,4.94-1.16,7.41-1.77-2.47.61-4.93,1.2-7.41,1.77a62,62,0,0,0-13.33,4.7A62,62,0,0,1,413.42,259.85Z" fill="#f3e6a0"/><path d="M525.68,303.27c-1.51-2.06-3.12-4-4.72-6-1.8-2.24-3.62-4.46-5.48-6.63,1.87,2.17,3.68,4.39,5.48,6.63C522.56,299.22,524.18,301.21,525.68,303.27Z" fill="#f3e6a0"/><path d="M499.87,276q-1.79-1.23-3.7-2.34c-2.44-1.42-4.79-3-7.09-4.65,2.31,1.65,4.65,3.24,7.09,4.65Q498.09,274.76,499.87,276Z" fill="#f3e6a0"/><path d="M362.43,298.94c2-2.37,4.12-4.67,6.27-6.94C366.55,294.26,364.45,296.57,362.43,298.94Z" fill="#f3e6a0"/><path d="M400.3,399.38c16,1.49,32.05-.92,47.77-4.75,7.17-1.75,14.51-2.84,21.67-4.64,8.87-2.22,18-3.93,26.33-7.58,9.22-4.07,17.38-10.46,26.35-15.16,10.73-5.61,14.14-15.15,14.92-26a134.24,134.24,0,0,0-.38-21.75c-.38-4.17-1.41-8.78-3.66-12.19a177.43,177.43,0,0,0-17.46-22.88c-5.43-5.87-11.17-11.74-19-14.95-3.74-1.53-6.91-4.44-10.38-6.66-6.22-4-10.45-10.66-18.88-11.75-10.64-1.39-21.11-3.46-31.81-.73-6.93,1.77-13.95,3.17-20.86,5-12.82,3.39-24.7,8.82-34.51,17.91-4.47,4.13-8,9.22-12.43,13.44-9.92,9.55-18.39,20.06-23.37,33.08-.39,0-2.69,9.7-2.35,14.52.55,7.77,1.19,15.72,3.32,23.15,2.92,10.16,9.72,18.15,17.16,25.67C373.17,393.6,386.41,398.08,400.3,399.38Zm-33.45-19q-1.58-1.4-3.08-2.88a63,63,0,0,1-5.55-6.27,50,50,0,0,1-6.34-10.66,42,42,0,0,1-2.54-7.92c-.34-1.59-.67-3.19-1-4.8s-.59-3.22-.82-4.83c-1.43-9.68-1.34-19.46,4-28.8q1.18-2.06,2.46-4c1.71-2.63,3.54-5.16,5.48-7.6q1.45-1.83,3-3.61c2-2.37,4.12-4.67,6.27-6.94s4.35-4.49,6.56-6.71c1.09-1.09,2.14-2.24,3.18-3.4,2.07-2.32,4.09-4.71,6.28-6.88a37.57,37.57,0,0,1,3.44-3,68.38,68.38,0,0,1,11.92-7.42,62,62,0,0,1,13.33-4.7c2.47-.56,4.94-1.16,7.41-1.77l7.4-1.82c4.93-1.2,9.88-2.35,14.86-3.25q1.92-.35,3.82-.52a46,46,0,0,1,7.59-.07,52.73,52.73,0,0,1,11.14,2.07,64.25,64.25,0,0,1,7.2,2.62h0a20.34,20.34,0,0,1,4.8,3.15c1.51,1.25,3,2.6,4.56,3.73,1.15.83,2.29,1.66,3.44,2.5s2.29,1.68,3.44,2.5c2.31,1.65,4.65,3.24,7.09,4.65q1.91,1.11,3.7,2.34a83.09,83.09,0,0,1,15.61,14.62c1.87,2.17,3.68,4.39,5.48,6.63,1.59,2,3.21,4,4.72,6a49,49,0,0,1,4.06,6.41A27.62,27.62,0,0,1,532,315.6a38,38,0,0,1,1,6.15c.09,1,.14,2.08.18,3.13.1,3.14,0,6.31-.11,9.44a71.69,71.69,0,0,1-.68,7.6c-.17,1.26-.36,2.53-.55,3.79s-.38,2.52-.56,3.78a17.24,17.24,0,0,1-4,8.76,37.46,37.46,0,0,1-7.09,6.24,140.69,140.69,0,0,1-18.47,11.18,131.74,131.74,0,0,1-20,8.12,41.4,41.4,0,0,1-4.23,1l-.43.07c-1.36.26-2.75.46-4.14.6-7,1.6-18.3,4.38-24.95,4.92-.68.05-1.25.08-1.77.1-2.57.38-5.14.77-7.7,1.24-2.39.44-4.75,1.06-7.11,1.65a57.84,57.84,0,0,1-7.13,1.43c-1.4.17-2.81.33-4.23.47a60.84,60.84,0,0,1-12.72.15c-4.06-.46-8.17-1-12.21-1.73a77.76,77.76,0,0,1-11.86-3.07C377.21,388.57,371.63,384.56,366.84,380.33Z" fill="#f3e6a0"/><path d="M359.62,348.7a40.13,40.13,0,0,1-.79-5.43A40.13,40.13,0,0,0,359.62,348.7Z" fill="#f3e6a0"/><path d="M488.17,273.76q1.51.66,3,1.39Q489.69,274.42,488.17,273.76Z" fill="#f3e6a0"/><path d="M392.58,385.21q-2.15-.88-4.27-1.94Q390.43,384.33,392.58,385.21Z" fill="#f3e6a0"/><path d="M508.39,355.42a47.2,47.2,0,0,0,5.48-15A47.2,47.2,0,0,1,508.39,355.42Z" fill="#f3e6a0"/><path d="M491.16,275.16a55.11,55.11,0,0,1,5.69,3.26A55.12,55.12,0,0,0,491.16,275.16Z" fill="#f3e6a0"/><path d="M415.05,389.87q2.34.08,4.71,0c3.36-.08,6.72-.25,10.08-.46-3.36.2-6.72.38-10.08.46Q417.39,390,415.05,389.87Z" fill="#f3e6a0"/><path d="M358.82,343.26a49.13,49.13,0,0,1,.1-8.39A49.13,49.13,0,0,0,358.82,343.26Z" fill="#f3e6a0"/><path d="M376,374.22a38.65,38.65,0,0,0,8.08,6.74q2.07,1.25,4.19,2.31-2.11-1.06-4.19-2.31A38.65,38.65,0,0,1,376,374.22Z" fill="#f3e6a0"/><path d="M443.79,388.5a169.66,169.66,0,0,0,27-4.12c.66-.24,1.32-.49,2-.72A60,60,0,0,0,489,375q2.46-1.83,4.77-3.91c2-1.83,4.29-3.53,6.39-5.33a29.06,29.06,0,0,0,5.53-5.91c1-1.45,1.87-2.95,2.73-4.48a47.2,47.2,0,0,0,5.48-15,117,117,0,0,0,1.88-19.52c0-2.18-.07-4.37-.24-6.57A62.85,62.85,0,0,0,512,296.93a38,38,0,0,0-4-7.74,34.66,34.66,0,0,0-6-6.8,47.39,47.39,0,0,0-5.24-4,55.11,55.11,0,0,0-5.69-3.26q-1.47-.73-3-1.39a80.63,80.63,0,0,0-9.36-3.37c-1.17-.35-2.36-.67-3.54-1A79.34,79.34,0,0,1,464.81,266a37.05,37.05,0,0,0-24-1.79c-11.6,2.92-23.33,5.85-34.62,9.76-3.76,1.3-7.48,2.72-11.13,4.28a59.57,59.57,0,0,0-7.47,3.82q-1.8,1.09-3.52,2.33a47.15,47.15,0,0,0-6.44,5.58A43.29,43.29,0,0,0,370,300.88c-3.61,7.32-6.95,14.61-9,22.46a73,73,0,0,0-2.1,11.53,49.13,49.13,0,0,0-.1,8.39,40.13,40.13,0,0,0,.79,5.43,36.39,36.39,0,0,0,5.59,12.91,41.87,41.87,0,0,0,3.89,4.85c.59.64,1.17,1.28,1.75,1.93,1.15,1.3,2.29,2.61,3.44,3.9q.87,1,1.76,1.91a38.65,38.65,0,0,0,8.08,6.74q2.07,1.25,4.19,2.31t4.27,1.94q2.15.88,4.34,1.59a63,63,0,0,0,8.91,2.16,70.78,70.78,0,0,0,9.21.92q2.34.08,4.71,0c3.36-.08,6.72-.25,10.08-.46s6.72-.43,10.08-.62l3.68-.2Zm-40-3.89c-9.41-1.24-18.19-5.36-24.49-13.06-4.49-5.48-9.12-11-12.82-17-4.71-7.67-4.06-16.47-2.6-24.87,1.11-6.37,3.5-12.53,5.32-18.78,4.36-11.93,12.41-20.87,22.94-27.27,5.23-3.18,11.6-4.54,17.51-6.54,8.44-2.85,16.81-6.06,25.45-8.11,7-1.67,14.33-3.28,21.64-.89,6.73,2.2,13.56,4.11,20.14,6.68A156.34,156.34,0,0,1,494.45,283c8,4.36,12,11.91,14.3,20.37,3.7,13.36,3.07,26.82-.09,40.11-2.33,9.78-7.83,17.69-15.58,24.37-7.09,6.1-15.26,10.11-23.54,13.89-3.88,1.77-8.57,2-12.94,2.39-7.26.68-14.56,1.26-21.84,1.32C424.43,385.52,414,386,403.79,384.62Z" fill="#f3e6a0"/></g></g></svg>