<?xml version="1.0" encoding="utf-8"?>
<!-- Generator: Adobe Illustrator 20.1.0, SVG Export Plug-In . SVG Version: 6.00 Build 0)  -->
<svg version="1.1" id="Layer_1" xmlns="http://www.w3.org/2000/svg" xmlns:xlink="http://www.w3.org/1999/xlink" x="0px" y="0px"
	 viewBox="0 0 274.5 193.5" style="enable-background:new 0 0 274.5 193.5;" xml:space="preserve">
<style type="text/css">
	.st0{clip-path:url(#SVGID_2_);}
	.st1{opacity:0.27;}
	.st2{fill:#F3E6A0;}
</style>
<title>ringsheader</title>
<g>
	<defs>
		<rect id="SVGID_1_" x="-0.7" y="0.2" width="296.2" height="196.9"/>
	</defs>
	<clipPath id="SVGID_2_">
		<use xlink:href="#SVGID_1_"  style="overflow:visible;"/>
	</clipPath>
	<g class="st0">
		<g class="st1">
			<path class="st2" d="M121.5,170.5c-3,0-6-0.2-9-0.3s-5.7-0.3-8.5-0.4c-1.9,0-3.8,0.2-5.7,0.1c-2.7,0-5.4,0-8-0.3
				c-5.1-0.4-10.1-0.9-15.2-1.4c-4.4-0.5-8.9-0.7-13.2-1.5c-4.3-0.6-8.5-2.3-12.1-4.8c-2.8-2.1-6.1-3.5-9.1-5.4
				c-3.1-1.7-6.1-3.7-9-5.7c-4.2-3.2-9-5.4-13.4-8.3c-3.7-2.5-7.3-4.9-10.7-7.6c-1.6-1.3-2.7-3.3-4.1-5S1,126.5-0.5,125
				c-4.1-4.4-6.2-9.8-8.6-15.2c-1.1-2.6-2.4-5.1-3.3-7.8c-1.5-4.3-2.7-8.7-4-13.1c-1.4-4.3-2.1-8.8-2.2-13.3
				c-0.1-4.2,0.2-8.4,1-12.5c0.8-4.3,2-8.5,3.6-12.6c1.2-3.3,3.2-6.3,4.7-9.5c2.2-4.9,4.1-10,6.3-15c1.9-4.2,3.7-8.5,5.8-12.6
				C5.6,8.2,8.4,3.1,11.4-1.9c3.7-6,7-12.2,11.7-17.5c2.6-2.9,5.2-5.8,7.8-8.6c3.8-4.2,7.5-8.5,11.6-12.4c3.7-3.7,7.9-7,12.3-9.7
				c6.6-4,14.1-6.4,21.9-6.8c2.5-0.1,5.1-0.8,7.6-0.9c6.9-0.2,13.8-0.4,20.7-0.2c3.9,0.1,7.7,0.9,11.6,1.2c5.6,0.6,11.2,1,16.7,1.5
				c1.2,0.1,2.4,0.4,3.6,0.6c3.6,0.5,7.2,0.9,10.8,1.4c3.4,0.5,6.6,1.9,9.3,4c2,1.3,4.3,2.1,6.7,2.3c2.9,0.4,5.8,0.3,8.6,2
				c2.7,1.4,5.5,2.5,8.4,3.3c2.5,0.8,4.9,1.5,7.3,2.5c4.5,1.7,8.9,3.5,13.3,5.3c3.2,1.2,6.4,2.8,9.6,4.1c3.7,1.5,7.6,2.7,11.3,4.4
				c3.5,1.7,6.8,3.7,10.1,5.8c3.7,2.2,7.4,4.5,10.9,7c2.1,1.5,4.1,3.2,5.9,5.1c3.9,4.3,7.2,9.1,9.9,14.2c2.3,4.6,4.1,9.5,5.2,14.6
				c1.3,5.4,1.5,10.8,1.9,16.3c0.3,4.8,1,9.6,1.4,14.3c0.2,2.1,0,4.2,0.3,6.3c1,5.5,0.3,11,0.2,16.5c0,4.9-2.1,9.3-3.9,13.7
				c-2.9,7.2-6.1,14.2-8.8,21.4c-1.7,5.1-4.2,9.9-7.2,14.2c-2.8,3.5-5.8,6.9-9,10c-2.1,2.4-4.5,4.6-7,6.6c-3.7,2.8-7.6,5.2-11.5,7.6
				c-5.2,3.2-11.1,4.9-16.7,6.9c-5.3,1.9-10.6,3.9-15.9,5.9c-4.6,1.7-8.9,4.2-13.8,5.2c-6.5,1.4-13,3.2-19.7,3.4
				c-6.1,0.2-12.1,0.6-18.2,0.8c-2.9,0.1-5.7,0-8.6,0.1c-0.9,0-1.8,0.3-2.6,0.4C124.7,170.7,122.3,170.5,121.5,170.5z M263.9,84.8
				l0.2,0.1c0.8-1.8,1.4-3.6,1.8-5.5c0.5-4.2,0.8-8.4,1-12.7c0.1-2.7-0.4-5.4-0.6-8.1c-0.2-4.1-0.2-8.2-0.5-12.3
				c-0.3-4.1-1.1-8-1.3-12.1c-0.4-6.9-1.7-13.7-4-20.3c-2.5-7.5-6.9-13.8-11.9-19.7c-2-2.3-4.3-4.4-6.8-6.1
				c-3.1-2.2-6.6-3.9-9.7-6.1c-5.6-3.9-11.7-7.1-18.1-9.4c-2.6-0.9-5.3-1.8-7.8-2.9c-2.6-1.1-5.3-2.7-8-3.8
				c-3.4-1.4-6.8-2.5-10.3-3.8c-4-1.4-8-2.9-12.1-4.3c-2.7-0.9-5.2-2.4-8.2-2.5c-5,0-9.7-1.1-13.6-4.5c-0.9-0.7-1.9-1.3-3.1-1.6
				c-2.2-0.6-4.5-1.1-6.8-1.4c-4.5-0.6-8.9-1.2-13.4-1.7c-2.6-0.3-5.1-0.5-7.7-0.8c-4.5-0.6-9-1.4-13.5-1.8
				c-8.4-0.8-16.9-0.8-25.4,0c-2.8,0.2-5.7,0.7-8.5,1.2c-3.4,0.4-6.9,1.1-10.2,2c-6.2,1.8-11.8,5-16.5,9.4c-4,3.9-8.4,7.4-12.3,11.4
				c-4.2,4.3-7.9,9-11.9,13.5c-1.3,1.3-2.6,2.8-3.7,4.3c-3.2,4.9-6.1,10-9.2,15c-2.5,4-4.9,7.9-7.1,11.9C2.9,16,1.5,19.7-0.1,23.3
				c-1.7,3.9-3.5,7.9-5.2,11.8c-0.4,0.9-0.9,1.9-1.3,2.8c-1.2,2.8-2.3,5.6-3.5,8.3c-1.5,3.5-3.4,6.8-4.6,10.4
				c-0.9,3.2-1.5,6.4-1.9,9.7c-1,7.9-0.4,15.9,1.8,23.5c1.3,4.8,3.1,9.3,4.7,14c0.8,2.1,1.6,4.2,2.6,6.3c1.2,3.1,2.6,6.1,4.3,8.9
				c3.2,4.7,6.8,9,10.4,13.4c2.8,3.5,6.6,5.8,10.3,8.1c2.8,1.8,5.7,3.2,8.5,4.9c3.7,2.3,7,4.9,10.8,7c4.6,2.6,9.2,5.3,13.5,8.2
				c4.8,3.2,10.2,4.5,15.8,5.2c5.3,0.7,10.6,1.2,16,1.7c4,0.4,8,0.8,12,1c5.1,0.2,10.1,0.2,15.2,0.3c5.1,0.1,10.5,0.3,15.7,0.4
				c3.6,0,7.2,0,10.7-0.1c4.1-0.2,8.2-0.4,12.3-0.8c6.4-0.6,12.8-1.2,19.1-2.3c5.8-1,11.5-2.6,17-5c5.2-2.3,10.5-4.2,15.8-6.2
				c5.3-2,10.7-3.5,15.8-5.7c3.7-1.8,7.3-3.9,10.7-6.2c2-1.2,3.8-2.5,5.5-4c3.5-3.2,6.9-6.6,10.2-10.1c1.8-1.8,3.4-3.7,4.8-5.8
				c3-4.7,5.4-9.7,7.3-15C257.2,100.2,260.7,92.6,263.9,84.8z"/>
			<path class="st2" d="M6.3,24.5c2.7-5.2,5.6-10.3,8.1-15.6c3.3-7,8.9-12,13.9-17.6c2.9-3.3,6.1-6.3,8.8-9.8c2.3-3.2,5-6.2,7.9-8.8
				c4.4-3.8,8.7-7.7,13.4-11c5.2-3.5,11-6,17.2-7.1c8.6-1.7,17.2-3.8,26.1-3.5c8,0.3,16,1.5,23.8,3.5c6,1.5,11.9,3.2,17.9,4.3
				c6.4,1.2,12.9,1.8,19.3,2.9c3.9,0.7,7.7,1.7,11.4,2.9c3.1,0.9,6.1,2.3,9.2,3.4c2.1,0.7,4.2,1.4,6.2,2c1,0.3,2,0.7,3,1.1l9.5,3.4
				c4.9,1.8,9.9,3.4,14.7,5.3c2,1,3.9,2.1,5.7,3.3c1.4,0.8,2.8,1.6,4.2,2.3c3.7,1.7,5.8,4.9,8.2,7.9c1.4,1.8,2.7,3.6,3.8,5.6
				c0.9,1.9,1.3,4,2.1,6c2.2,5.7,4.6,11.3,6.8,17c1.1,2.7,1.9,5.6,3.2,8.2c3.6,8.3,6.1,17.2,7.2,26.2c1,7.3,0.7,14.8-0.7,22
				c-0.8,4.4-1.4,8.8-2.2,13.2c-0.7,3.4-1.9,6.7-3.5,9.8c-1.7,3.3-3.7,6.4-6.1,9.3c-2.6,3-5.2,6-7.9,8.9c-3,3.2-6.1,6.4-9.1,9.5
				c-3.3,3.6-7.2,6.6-11.6,8.7c-3.9,1.9-7.9,3.6-12.1,5c-5.1,1.7-10.4,2.7-15.4,4.4c-5.1,1.6-10.7,2.9-15.5,5.8
				c-1.1,0.5-2.3,0.8-3.4,1c-3.2,1-6.4,1.8-9.5,2.9c-5.7,2-11.6,3.3-17.6,3.7c-6.1,0.5-12.2,0.4-18.3-0.3c-4.6-0.5-9.2-1-13.8-1.4
				c-2.9-0.2-5.8,0.1-8.7,0c-4.6,0-9.2-0.3-13.8-0.8c-4.2-0.7-8.3-1.6-12.3-3c-3.7-1.1-7.1-2.7-10.7-4.1c-3-1.2-5.9-2.7-8.9-3.8
				c-3.4-1.3-7-2.2-10.4-3.5c-3-1.1-5.8-2.5-8.7-3.7c-5.6-2.2-9.9-6.5-14.7-9.8c-6.5-4.7-12.3-10.3-17.3-16.6
				c-3.8-4.6-6.4-10.1-7.6-16C-3.4,92-4.6,86.1-6.1,80.3C-7.5,75-6.8,69.9-5.3,64.8c1.4-4.7,3.3-9.3,4.7-14c1.4-5,2.5-10.2,3.7-15.3
				C4,32,5.2,28.3,6.3,24.5z M-2,58.5c-0.9,3.9-2,7.8-2.7,11.7c-0.4,2.2-0.5,4.5-0.2,6.7c0.7,4.7,1.7,9.3,2.8,13.9
				c0.7,3.3,1.6,6.5,2.5,9.8c1.1,4.4,3.2,8.5,6.1,11.9c2.7,3.2,5.5,6.2,8.4,9.2c2.3,2.3,4.7,4.4,7.2,6.4c3.2,2.5,6.5,4.8,9.8,7
				c2.6,1.6,5.3,3.1,8.1,4.4c0.9,0.4,9.7,3.5,13.1,4.8c3.7,1.5,7.4,2.9,11.1,4.3c5.5,2.2,11,4.6,16.7,6.5c5.5,1.7,11.3,2.6,17,2.5
				c4.1-0.1,8.3-0.2,12.4,0.1c4.5,0.3,8.9,1.2,13.4,1.4c6.7,0.3,13.5,0.4,20.3,0.1c5.5-0.2,10.9-1.3,16-3.3c3-1.1,6.1-2.1,9.3-3.1
				c1.6-0.4,3.2-0.9,4.8-1.5c5.6-2.4,11.4-4.5,17.3-6.1c3.2-1.2,6.6-2.2,9.9-2.9c6-1,11.1-3.9,16.4-6.6c5.3-2.6,9.3-6.9,13.4-11.1
				c3.2-3.2,6.1-6.8,9.2-10.2c4.3-4.5,7.9-9.5,10.7-15c1.6-3.8,2.7-7.8,3.2-11.9c1.4-8.3,3.1-16.5,2.7-25c0-2.7-0.3-5.4-0.7-8
				c-1.2-5.4-2.6-10.7-4.2-16c-1.6-5-3.6-10-5.4-14.9c-1.1-2.9-2.2-5.8-3.3-8.6c-0.9-2.2-1.8-4.4-2.7-6.6c-0.7-1.4-1.3-2.8-1.8-4.2
				c-1.4-5.9-5.1-10.3-9-14.6c-3.4-3.8-8.2-5.4-12.6-7.7c-3.4-1.6-7-3-10.7-4.2c-3-1.2-6.3-2-9.3-3.1c-2.8-0.9-5.6-2-8.3-3
				c-1.8-0.6-3.5-1.3-5.2-1.9c-3.1-1-6.1-2-9.2-3c-2.3-0.9-4.7-1.7-7.1-2.3c-6.3-1.3-12.6-2.5-18.9-3.5c-6.6-0.9-13.1-2.3-19.6-3.9
				c-5-1.4-10.1-2.4-15.2-3.5c-6.7-1.3-13.5-1.6-20.2-0.9c-4.5,0.5-9,1.3-13.4,2.4c-3.6,0.6-7.1,1.5-10.6,2.5
				c-5.5,1.9-10.6,4.7-15.1,8.4c-0.9,0.7-1.6,1.6-2.5,2.4c-3.2,2.9-6.7,5.5-9.6,8.6C36.9-16.8,31.9-10,26-4.2
				C18.5,3.1,13.9,12.2,9.7,21.6c-0.8,1.6-1.4,3.2-2,4.9c-1.2,3.7-2.4,7.4-3.4,11.1C2.5,43.8-1.8,57.8-2,58.5z"/>
			<path class="st2" d="M194.8-21.3c6.1,2.3,11.1,6.4,15.4,11.1c1.7,1.6,3.5,3.1,5.4,4.4c1.2,1.1,2.5,2.2,3.7,3.4
				c3.5,3.5,7.1,6.9,10.5,10.6c2.8,2.9,5,6.2,6.6,9.8c0.7,2,1.7,3.9,2.9,5.6c2,2.6,2.5,5.6,2.9,8.7c1,5.9,1.9,11.9,3.1,17.8
				c0.9,5,0.9,10.1,0.1,15.1c-0.6,5.2-1.6,10.3-2.7,15.5c-1,4.8-2.2,9.5-3.8,14.1c-1.1,3-2.7,5.7-4.7,8.1
				c-3.7,4.4-7.8,8.5-11.9,12.6c-4.6,4.4-9.6,8.3-15,11.7c-4.7,3.1-9.7,5.6-15,7.5c-3.4,1.2-6.6,2.7-9.9,4c-4,1.5-7.9,3-11.9,4.4
				c-2,0.7-4.1,1.2-6.1,1.6c-5.1,0.9-10.3,1.7-15.4,2.6c-3.4,0.6-6.8,1.5-10.2,1.9c-4.4,0.5-8.9,0.7-13.4,1
				c-2.5,0.2-5.1,0.4-7.6,0.5c-2.9,0.1-5.9,0-8.8,0s-6.1-0.1-9.1-0.4c-2.7-0.3-5.4-1-8.2-1.3c-5.6-0.8-11.2-2.2-16.5-4.3
				c-1.9-0.7-3.9-0.9-5.9-1.5c-1.2-0.3-2.3-1-3.5-1.4c-3.5-1.1-7-2-10.5-3.1c-1.8-0.6-3.5-1.3-5.2-2.2c-1.9-0.8-3.7-1.7-5.6-2.7
				c-1.3-0.7-2.6-1.4-3.8-2.2c-4.2-2.6-8.5-5.1-12.6-7.8c-3.2-2.2-6.3-4.5-9.2-7.1c-1.4-1.5-2.5-3.2-3.3-5c-1.6-2.6-3-5.3-4.2-8
				c-1.1-2.9-1.7-6-2.6-9c-1-3.3-2.2-6.6-3.1-10C4.6,80.9,3.1,77.2,3.3,73c0.2-4.2,0.2-8.7,2-12.8C5.6,59.1,5.8,58,6,56.9
				c1-3.6,1.9-7.1,3-10.7c1.8-5.6,3.6-11.2,5.5-16.7c1.6-4.8,4.4-8.9,7.3-13c2.5-3.7,4.9-7.4,7.4-11.1C32.8,0.2,36.7-5,40.5-10.3
				c2.4-3.2,4.7-6.5,7.2-9.7c3.8-5.2,9.5-8.8,15.8-10c4.8-0.8,9.6-1.9,14.4-2.4c6.2-0.7,12.4-1.1,18.6-1.1c6.1,0,12.2,0.7,18.3,1
				c4.1,0.2,8.3,0.2,12.4,0.3c2.2,0.1,4.4,0.5,6.7,0.6c3.6,0.1,7.2,0,10.8,0.3c4,0.3,8,1,12,1.5c2.5,0.3,4.9,0.3,7.4,0.7
				c4.1,0.7,8.1,1.6,12.2,2.5c4.9,1.1,9.8,2.3,14.7,3.6C192.1-22.5,193.5-21.9,194.8-21.3z M14.4,34.8c-0.3,0.7-0.6,1.4-0.9,2.2
				c-1.5,4.9-2.9,9.8-4.3,14.7C7.9,56,6.6,60.4,5.7,64.8c-1.4,6.9-0.2,13.7,2.1,20.3c1.2,3.4,2.5,6.9,3.5,10.4
				c1.3,4.8,2.5,9.7,5.3,13.9c1.4,2.2,2.4,4.8,4.2,6.5c3.2,2.9,6.7,5.5,10.3,7.7c5.6,3.6,11.4,6.9,17.2,10.2
				c2.8,1.6,5.7,2.9,8.7,3.9c5.1,1.7,10.4,3,15.6,4.6c3.9,1.2,7.7,3,11.6,3.8c6.5,1.3,13.1,2.1,19.7,3c9.4,1.2,18.8-0.3,28.1-0.4
				c2.5,0,4.9-0.9,7.4-1.3c3.9-0.6,7.9-1.1,11.8-1.7c3.9-0.6,17-3.7,18.4-4.2c4.2-1.4,8.3-2.9,12.4-4.3c3.2-1.2,6.4-2.3,9.5-3.7
				c4.8-2,9.4-4.2,13.8-6.7c4.3-2.7,8.3-5.7,12.1-9.1c4.6-4.1,9-8.4,13.3-12.9c4-4.4,6.8-9.9,8.1-15.8c1.5-6.3,3.1-12.6,4.1-18.9
				c0.7-5.1,1-10.3,1-15.5c-0.2-2.7-0.6-5.4-1.2-8c-0.9-5.5-1.9-10.9-2.9-16.4c-0.3-2.3-1.1-4.4-2.5-6.3c-0.5-0.8-1-1.6-1.4-2.5
				c-1-1.9-1.8-3.9-2.9-5.7c-3.3-5.1-7.3-9.8-12-13.7c-2.5-2.2-4.7-4.6-7.2-6.9c-2-1.8-4.1-3.3-6.1-5.1c-2.3-2-4.4-4.3-6.8-6.1
				c-4.2-3.1-9-5.2-14-6.3c-5.7-1.2-11.3-3-17-4c-6.8-1.2-13.7-2.1-20.6-2.8c-4.7-0.5-9.4-0.6-14.2-0.9c-2.7-0.2-5.4-0.5-8.1-0.6
				c-4-0.2-8-0.2-12.1-0.4c-4.3-0.2-8.6-0.5-12.9-0.7c-3.6-0.1-7.4-0.4-11.2-0.2c-5.3,0.2-10.7,0.6-16,1.2
				c-3.8,0.5-7.5,1.5-11.2,2.3c-5,1.1-9.5,3.2-12.7,7.3c-2.7,3.4-5.3,7-8,10.5c-2.2,2.8-4.7,5.4-6.7,8.4c-4.8,6.9-9.4,14-14.1,21
				c-1.5,2-2.9,4.2-4.1,6.4C16.7,28.2,15.5,31.5,14.4,34.8z"/>
			<path class="st2" d="M171.1-21.3c3.7,2.1,7.4,4.2,11.1,6.3c2.7,1.5,5.5,2.8,8.2,4.3c3.3,2,6.6,4,9.8,6.2
				c4.8,3.4,9.4,7.1,14.2,10.6c3.3,2.5,6.3,5.2,7.9,9c1.4,3.4,2.5,6.9,3.9,10.2c1.9,4.4,1.9,9,2.2,13.7c0.2,1.7,0.6,3.4,1,5.1
				c0.3,1.4,0.5,2.7,0.7,4.1c0.3,4.9,0.7,9.8,0.7,14.7c0,4.6-0.3,9.2-0.6,13.8c-0.1,1.8-0.5,3.5-1.1,5.2c-1.5,4.3-3.3,8.6-5.4,12.7
				c-1.8,3.2-4.4,6-6.8,8.9c-2,2.6-4.1,5.1-6.2,7.7c-2.5,2.8-5.4,5.2-8.7,7c-1,0.6-1.8,1.5-2.7,2.1c-2.1,1.5-4.2,3-6.5,4.3
				c-2.6,1.6-5.4,3-8.3,4.1c-3.9,1.4-8,2.2-11.9,3.4c-1.5,0.5-3,1.3-4.5,1.8c-5.3,1.6-10.6,3.4-16,4.7c-3.7,0.8-7.5,1.3-11.3,1.7
				c-2.3,0.3-4.8,0-7,0.5c-1.9,0.7-3.9,1-5.9,1.1c-1.4-0.1-2.7-0.1-4.1-0.2l-3-0.1c-4.2-0.2-8.5-0.3-12.7-0.6
				c-5.3-0.4-10.6-1.3-15.8-2.8c-3.8-1-7.6-1.7-11.4-2.6c-3.5-0.8-7-1.8-10.5-2.7c-2.7-0.7-5.3-1.4-8-2.2c-3.4-1-6.8-2.1-10.2-3.1
				c-4.7-1.5-9.1-3.9-13-7c-4.3-3.3-9.1-6.1-12-11c-2-3.3-3.7-6.7-5-10.3c-1.1-3-2.3-5.9-3.3-8.8c-0.5-1.6-0.7-3.3-1.1-4.9
				c-0.6-2.5-1.3-4.9-1.9-7.4c-0.9-3.6-1.4-7.3-1.5-11.1c-0.1-4.5,0.6-8.9,0.8-13.3c0-0.6,0.5-1.1,0.6-1.7c0.5-2.1,0.7-4.2,1.4-6.3
				c0.9-2.9,2.1-5.8,3-8.7c0.4-1.7,0.9-3.4,1.4-5c2.1-4.3,4.3-8.5,6.5-12.8c1.8-3.5,3.4-7,5.3-10.4c2.7-4.9,5.7-9.7,10-13.6
				c3.4-3.2,7.1-6,11.1-8.4c4.7-2.9,9.9-4.9,15.4-5.7c6.6-0.9,13.3-1.5,20-2.3c4-0.5,8-1.2,12.1-1.5c6.4-0.4,12.8-0.5,19.2-0.8
				c4.4-0.2,8.8-0.8,13.2-0.9c7-0.1,14-1.9,21.1-0.8C160.8-24.3,166-23.1,171.1-21.3z M17.9,50.8c-0.6,3.3-1.5,6.6-1.9,10
				c-0.4,2.8-0.5,5.7-0.3,8.5c0.4,6.4,2.6,12.4,4.1,18.5c1,4,2.9,7.8,4.2,11.7c2,5.8,4.4,11.2,9.4,15c4.1,3.4,8.4,6.6,12.9,9.5
				c5.1,3.1,10.9,4.5,16.8,5.9c3.9,0.9,7.7,2.1,11.6,3.1c3.6,1,7.2,2,10.8,2.8c3,0.7,6,1.4,9.1,1.9c4.9,0.9,9.8,1.9,14.8,2.3
				c4.6,0.4,9.3,0.3,13.9,0.3c2.6,0.1,5.1,0,7.7-0.5c1.3-0.4,2.7-0.4,4,0c0.4,0.1,0.8,0.1,1.1,0c3-0.3,6.1-0.5,9-1
				c4.6-0.8,9.2-1.7,13.8-2.9c3.5-0.9,6.8-2.3,10.1-3.5c1.9-0.7,3.8-1.3,5.7-1.8c4.2-0.8,8.2-2.2,11.8-4.4c2.1-1.2,4.5-1.9,6.5-3.2
				c3.2-2,6.2-4.4,9.3-6.6c1.5-0.9,2.9-1.9,4.2-3c4.3-4.7,8.4-9.6,12.6-14.5c2.3-2.6,4.1-5.6,5.2-8.8c0.7-2.4,1.6-4.8,2.6-7.1
				c1.3-3,2-6.2,2-9.5c0.2-4.8,0.1-9.7,0-14.5c0.2-4.3-0.1-8.7-0.9-13c-0.8-3.7-1.1-7.4-1.6-11.1c-0.1-2.1-0.4-4.2-0.9-6.2
				c-1.4-4.4-3.2-8.7-4.9-13c-1.1-3-3.1-5.5-5.7-7.4c-4.5-3.4-9.1-6.8-13.7-10.1c-3.5-2.5-6.9-5-10.6-7.2c-3.1-1.9-6.6-3.1-9.7-5.1
				c-5.1-3.2-10.3-6.1-16.1-7.6c-3.5-1-7.2-1.7-10.8-2.1c-5-0.1-9.9,0-14.9,0.4c-5.2,0.3-10.5,0.8-15.7,1.2c-1.1,0.1-2.2,0-3.3,0.1
				c-3.8,0.2-7.6,0.6-11.5,0.8c-3.8,0.2-7.6-0.1-11.3,0.5c-7.1,1.1-14.3,1.8-21.4,2.3c-3.3,0.2-6.7,0.9-9.8,2
				c-4,1.4-7.8,3.2-11.4,5.3c-2.7,1.6-5.2,3.5-7.5,5.6c-2.6,2.2-5,4.6-7.2,7.2c-1.8,2.4-3.3,4.9-4.7,7.6c-1.5,2.6-3,5.3-4.4,8
				c-1.1,2.2-2.1,4.4-3.2,6.6c-1.4,2.9-3,5.8-4.4,8.8c-0.9,1.9-1.4,4-2.1,6c-0.3,0.9-0.6,1.8-0.9,2.8C19.6,43.5,18.1,49.8,17.9,50.8
				z"/>
			<path class="st2" d="M213.7,84c-1.8,4.9-5.2,8.4-7.9,12.4c-2.1,3.3-4.7,6.3-7.5,9c-2.8,2.6-5.7,5-8.6,7.6
				c-1.4,1.3-2.7,2.9-4.2,4.1c-2.6,2.1-5.4,4-8.2,5.8c-2.5,1.7-5.1,3.3-7.8,4.7c-2,0.9-4.1,1.7-6.1,2.4c-1.7,0.7-3.4,1.4-5.1,2.1
				c-0.7,0.3-1.4,0.5-2.1,0.6c-2.8,0.2-5.3,1.2-8,1.9c-2,0.4-4,0.6-6.1,0.6c-5.1,0-10.2,0-15.3-0.2c-4.7-0.2-9.3-1-14-1.1
				c-4.5-0.1-9,0.5-13.4,0.6c-3.1,0.1-6.3,0.6-9.4-0.2c-1.7-0.5-3.7-0.2-5.4-0.6c-2.6-0.5-5.1-1.2-7.6-2c-2.2-0.6-4.3-1.2-6.5-2
				c-1.1-0.5-2.3-1-3.3-1.6c-3.2-1.6-6.4-3.3-9.6-5c-2-1.1-3.9-2.3-5.7-3.5c-3.7-2.4-7.4-4.7-10.9-7.3c-2.3-1.7-4.6-3.5-5.9-6.3
				c-0.8-1.8-1.8-3.5-3-5.1c-1.7-2.4-1.9-5.1-2.3-7.8c-0.9-5.6-1-11.3-2.9-16.8c-0.4-1.7-0.7-3.5-0.7-5.3c-0.3-1.7-0.6-3.3-0.7-5
				c-0.1-5.3-0.5-10.6,1.2-15.9c0.7-2.1,1-4.4,1-6.6c0.1-1.3,0.3-2.5,0.8-3.7c1.2-3.6,1.9-7.3,3.9-10.5c1.2-1.9,2-4.2,3.1-6.2
				c1-1.7,2.1-3.4,3.3-4.9c3.7-4.3,7.6-8.5,11.2-12.8c4.3-4.9,9.5-9,15.3-12c3-1.8,6.1-3.3,9.4-4.6c5.5-1.9,11.1-3.4,16.9-4.4
				c5.5-1.1,11.1-1.8,16.7-2.1c4.7-0.2,9.5,0.1,14.3,0c3.2,0,6.4-0.5,9.6-0.3c7,0.4,14.1,1.2,21.1,1.8c1.7,0,3.4,0.2,5.1,0.4
				c5.9,1.2,11.8,2.2,17.2,4.9c5,2.6,10.1,5.1,14.9,8.1c2.7,1.9,5.2,4.1,7.5,6.5c1.3,1.2,2.6,2.5,3.7,3.9c2.9,3.8,5.7,7.5,8.3,11.5
				c1,1.5,1.2,3.6,1.6,5.4c1,4,2,8.1,2.8,12.1c1,5.3,2.6,10.4,2.3,16c-0.2,5.5,0.2,10.9-0.2,16.3S216,79.4,213.7,84z M70.1,128.2
				l0.1-0.1c0.4,0.2,0.9,0.4,1.3,0.6c3.2,1,6.4,2,9.6,2.9c4.6,1.4,9.4,1.9,14.2,1.5c5-0.6,10-0.8,15-0.6c6,0.4,12.1,0.8,18.1,1.2
				c3.5,0.4,6.9,0.6,10.4,0.5c4.3-0.3,8.6-1.1,12.9-1.8c5.1-0.8,9.7-3,14.4-4.8c2.1-0.9,4.2-2,6.1-3.3c4.2-2.4,8.6-4.4,12-7.9
				c1.2-1.2,2.6-2.4,3.9-3.5c2.8-2.5,5.8-4.8,8.3-7.5c3.2-3.5,5.9-7.5,9.1-11.1c4.8-5.2,7.8-11.9,8.6-19c0.4-3.3,0.4-6.6,0.5-9.9
				c0.4-4.1,0.5-8.3,0.3-12.5c-0.4-5.4-1.4-10.7-2.5-16.1c-0.7-3.6-1.7-7.2-2.5-10.8c-0.6-3.6-1.9-7-3.8-10.1
				c-1.4-2.3-3.5-4.2-5.2-6.4c-3-4-6.6-7.5-10.7-10.4c-4-2.9-8.3-5.4-12.7-7.6c-3.4-1.5-6.6-3.5-10.5-4c-3.3-0.5-6.5-1.6-9.8-2.2
				c-2-0.4-4.1-0.2-6.1-0.4c-5-0.6-10-1.4-15-1.8c-2.9-0.1-5.8,0-8.7,0.2c-7.2,0.1-14.5,0.2-21.7,0.4c-2.8,0-5.6,0.2-8.3,0.6
				c-2.5,0.4-4.8,1.1-7.2,1.7c-4.5,0.9-9,2-13.5,3.4c-4.6,1.7-9,3.8-13.1,6.5C58.1-0.5,53,3.9,48.7,9.1C45,13.6,41,17.9,37.6,22.6
				c-2.3,3.2-4.2,6.7-5.5,10.3c-1.6,4.1-2.7,8.4-3.1,12.8c-0.2,4.4-2,8.7-2.2,13.3c-0.2,6,0.4,12.1,1.8,18c0.7,2.4,1.2,4.8,1.6,7.3
				c0.4,5.7,0.9,11.3,3.6,16.5c1.6,3.2,3.1,6.4,6,8.6c4.9,3.8,10,7.5,15.2,10.8C59.8,123.1,65,125.5,70.1,128.2z"/>
			<path class="st2" d="M43.5,48.9c2.2-5.3,5.5-10.1,9.6-14.2c7.2-6.9,14.4-13.9,21.7-20.9c3.7-3.6,7.2-7.4,11.3-10.4
				c3.9-2.8,8.4-4.7,12.8-6.8c4.8-2.3,10.1-3.5,15.4-3.7c2.7-0.1,5.4-0.6,8.1-0.6c3.4,0,6.8,0.2,10.2,0.3c4,0.1,8-0.1,12,0.3
				c6.1,0.5,12.4,1.1,18.1,3.8c3.5,1.7,6.8,3.7,10.2,5.6c3.2,1.6,6.2,3.5,9.2,5.5c3.5,2.4,6.8,5,10,7.8c4.2,4,7.5,8.8,9.7,14.1
				c2.1,4.5,1.9,9.4,2.5,14.2c0.4,3.7,0.9,7.4,1.2,11.1c0.4,5.5,1.1,11.1-0.3,16.6c-0.2,0.9-0.5,1.7-0.8,2.6c-1.8,4.4-3,9-5.6,13.1
				c-1.3,2.3-2.3,4.7-3.1,7.1c-1,2.4-2.6,4.4-4.7,5.8c-0.5,0.4-0.8,1-1.3,1.5c-2.5,2.3-5.1,4.5-7.8,6.4c-2.2,1.5-5,2.2-7.4,3.3
				c-3.2,1.5-6.4,3.3-9.6,4.8c-3.9,1.8-7.8,3.4-11.6,5.4c-4.3,2.2-9.1,2.6-13.7,3.3c-2.4,0.5-4.7,0.7-7.1,0.8
				c-3.9,0-7.7-0.5-11.6-0.8c-3.9-0.2-8-0.5-12.1-0.7c-3.2,0-6.3-0.2-9.5-0.6c-2.2-0.5-4.4-1.3-6.4-2.4c-2.4-1.1-4.9-1.8-7.4-2.2
				c-2.9-0.6-5.7-1.4-8.5-2.3c-4.3-1.2-8.6-2.3-12.8-3.7c-2.8-0.9-5.5-1.9-8.1-3.2c-3.5-1.7-6.8-3.9-9.8-6.4c-2.9-2.5-3.8-5.8-5-9.1
				c-0.8-2.2-1.4-4.5-1.8-6.8c-0.4-2.4-0.6-4.8-0.9-7.2c-0.6-4.8,0.4-9.4,1.4-14.1c0.6-2.8,0.8-5.7,1.4-8.5
				C42,54.4,42.9,51,43.5,48.9z M162.4-1.9c-2.7-1-5.5-1.8-8.4-2.4C149-5,143.9-5.5,138.8-5.9c-4.7-0.3-9.4-0.5-14.1-0.4
				c-4.1,0-8.2,0.4-12.3,0.8c-2.8,0.2-5.6,0.7-8.2,1.6c-4,1.4-7.8,3.4-11.6,5.2c-4.9,2.5-9.4,5.8-13.1,9.8c-2.5,2.5-4.6,5.4-7.1,7.8
				c-4.2,4-8.6,7.8-12.8,11.8c-2.5,2.3-4.8,4.7-7.1,7.2c-1.7,2-3.3,4.1-4.8,6.3c-2.4,3.5-3.4,7.6-4.4,11.6c-0.6,2.4-0.9,4.9-1.4,7.3
				c-0.4,2.1-0.6,4.2-1,6.3c-1.1,5.1-1.3,10.4-0.5,15.6c0.7,3.8,1.6,7.6,2.7,11.3c0.6,2,1.7,3.9,3,5.5c3.1,3.5,7,6.2,11.4,7.8
				c5.5,2.1,11.2,3.8,16.8,5.5c3.7,1.1,7.5,2,11.3,3c2.5,0.7,4.9,1.3,7.4,2c2.5,0.7,4.5,1.5,6.8,2.1c0.9,0.1,1.8,0.1,2.7,0.1
				c2,0.3,4.1,0.7,6.1,0.9c4.2,0.4,8.4,0.7,12.6,1c4,0.3,7.9,1.2,11.9,0.6c4.2-0.6,8.4-1.2,12.5-2c1.9-0.3,3.7-0.8,5.4-1.5
				c2.6-1.1,5.1-2.6,7.6-3.9c4.5-2.2,9.1-4.2,13.6-6.5c4.1-2,8.6-3.3,12-6.5c2.6-2.2,5.1-4.7,7.2-7.4c1.9-2.7,3.1-5.9,4.6-8.9
				c0.4-0.7,0.9-1.4,1.2-2.2c1.6-3.8,3.1-7.7,4.7-11.6c0.6-1.2,1-2.6,1.3-3.9c0.7-5,0.8-10.1,0.1-15.1c-0.5-4.3-0.9-8.6-1.4-13
				c-0.5-4.8-1.1-9.5-3.1-14c-2.7-6.1-6.9-11.3-12.3-15.2c-3.9-2.9-8.1-5.4-12.2-7.9S166.3,0.4,162.4-1.9z"/>
			<path class="st2" d="M156.5,6c6.3,3.2,11.9,6,17.5,8.9c4.2,2.3,8.1,5.4,11.3,9c3,3.4,5,7.6,5.6,12.1c0.3,2.1,1.1,4.1,1.5,6.2
				c0.5,2.2,0.8,4.4,1,6.7c0.2,3.3,0.3,6.6,0.2,9.9c-0.1,1.4-0.3,2.8-0.6,4.2c-0.5,3.4-0.9,6.9-1.4,10.3c-0.3,1.9-0.8,3.7-1.4,5.5
				c-0.6,2.1-1.4,4.2-2.3,6.3c-1.1,2.5-2.5,5-3.7,7.5c-0.1,0.2-0.2,0.4-0.3,0.6c-2.5,5.8-7.5,9.2-12.7,12.2c-2.2,1.4-4.6,2.6-7,3.5
				c-3.4,1.2-7,1.9-10.5,2.8c-2.6,0.7-5.2,1.4-7.9,1.8c-6.2,1.3-12.6,1.4-18.9,0.5c-1.3,0-2.6,0.1-3.9,0.4c-1.3,0.3-2.7,0.4-4,0.3
				c-5-1.2-10.1-1.2-15.2-1.5c-4.5-0.1-9-0.8-13.5-1.3c-4.9-0.5-9.8-1-14.6-1.7c-2-0.4-3.9-1-5.8-1.8c-4.2-1.7-8.2-4.1-11.5-7.2
				C53,97,49,91.1,47,84.4c-1-3-1.3-6.2-0.9-9.3c0.4-2.2,0-4.7,0.5-6.9c0.7-2.7,1.7-5.3,2.8-7.8c1-2.6,2.3-5.1,3.2-7.7
				c2.1-5.5,5-10.7,8.6-15.4c2.9-3.9,6.9-6.8,10.4-10.1c3.3-3.1,7.1-5.3,10.4-8.3c1.6-1.2,3.2-2.3,5-3.2c0.9-0.6,1.8-1.1,2.6-1.7
				c6.4-4.3,12.8-8.7,19.2-13c3.2-2.1,7-3,10.8-2.6c8.9,0.9,17.8,2.5,26.5,4.8C149.8,4.3,153.5,5.3,156.5,6z M188.1,80.6
				c0.8-2.9,1.5-4.9,1.9-6.9c0.7-4.4,1.5-8.9,1.9-13.4c0.3-3.4,0.3-6.8,0.1-10.2c-0.2-2.5-0.7-5-1.2-7.5c-0.4-2.2-1-4.3-1.5-6.5
				c-1-4.6-2.6-8.9-6-12.3c-2.3-2.3-4.8-4.4-7.4-6.3c-2.2-1.5-4.5-2.8-6.8-4c-2-1-4-1.8-6.1-2.8c-2-1-4.2-2.3-6.5-3.1
				c-2.6-1-5.3-1.6-8-2.3c-3.7-1-7.5-2-11.3-2.8c-4.1-0.9-8.2-1.6-12.3-2.2c-6.1-0.9-12-0.9-17.2,3.2c-3.3,2.5-6.7,4.8-10.2,7.1
				c-4.5,3.1-9.2,5.9-13.7,9.1c-4,2.9-7.9,6-11.7,9.2c-2.9,2.3-5.7,4.9-8.1,7.7c-2.4,3.2-4.7,6.6-6.7,10.1c-0.4,0.6-0.8,1.2-1.1,1.9
				c-1.5,3.7-2.9,7.4-4.3,11.1C50.9,62,50,64.3,49,66.6c-1.7,3.9-1.5,8.1-1.2,12.1c0.5,4.8,2.2,9.5,4.9,13.5
				c3.1,4.8,7.2,8.8,11.9,11.8c4.5,3.1,9.8,5,15.3,5.5c5.3,0.4,10.5,1.2,15.7,1.9c6.1,0.8,12.4,0.1,18.5,0.8
				c0.7,0.1,2.9,0.1,3.1,0.2c0.9,0.4,1.9,0.6,2.9,0.7c3.7,0,7.2-0.9,10.9-0.2c3.1,0.4,6.2,0.3,9.2-0.2c5.3-0.7,10.5-1.8,15.7-2.7
				c2-0.3,4-0.8,5.9-1.5c3.4-1.4,6.7-3.1,9.8-4.9c6.3-3.7,10.4-9.2,13.2-15.9C186.3,85,187.4,82.3,188.1,80.6z"/>
			<path class="st2" d="M184.5,76.1c-1.7,4.3-4.3,8.1-7.6,11.3c-1.2,1.2-2,2.7-3.1,3.8c-4.4,4.2-9.8,7.3-15.6,9
				c-1.8,0.6-3.5,1.9-5.3,2.6c-2.1,0.7-4.1,1.2-6.3,1.7c-4.7,1.2-9.4,2.5-14.1,3.6c-3,0.6-6.2,0.6-9.2,0.1
				c-3.5-0.5-7.1-0.8-10.7-0.9c-4.2,0-8.4,0.6-12.6,0.7c-2.7,0.1-5.3-0.1-8-0.6c-4.2-0.9-8.3-2.2-12.3-3.7c-2.5-1.1-4.9-2.5-7.1-4.2
				c-2.4-1.6-4.6-3.4-6.7-5.3c-2.9-2.7-5.1-6.2-6.4-10c-1.4-3.8-2.1-7.8-2.3-11.8c-0.4-5.6,0.5-11.3,2.6-16.6
				c1.5-3.2,3.2-6.3,5.1-9.2c1.4-2.5,2.8-4.9,4.4-7.2c2.9-3.9,6.2-7.5,9.8-10.6c2.7-2.6,5.6-5,8.6-7.2c3.8-2.6,7.9-4.8,11.9-7.1
				c3-1.9,6.3-3.2,9.8-3.9c4.9-0.8,9.8-1.7,14.9-1.1c3.2,0.3,6.5,0.6,9.7,0.8c3.5,0.3,6.9,1.4,10,3.2c1.3,0.7,3,0.9,4.3,1.6
				c6.7,3.3,13.4,6.6,19.9,10.2c2.1,1.4,3.8,3.1,5.3,5.1c3.4,4,6.7,8.2,10,12.4c2,2.5,3.2,5.7,3.4,8.9c0.4,4.7,0.4,9.4,0.4,14.2
				c-0.1,1.7-0.4,3.3-0.7,4.9C186,72.6,185.2,74.3,184.5,76.1z M152,101.1c2.9-1,5.8-2,8.5-3.2c3-1.3,6-2.8,8.8-4.5
				c1.8-1.1,2.9-3.1,4.5-4.6c4-3.7,7.1-8.2,9.1-13.3c0.6-1.4,1-2.8,1.5-4.2c0.4-0.9,0.7-1.9,0.9-2.9c0.8-4.9,0.8-9.9,0.2-14.9
				c-0.5-4.3-2.3-8.4-5.2-11.7c-2.8-3.2-5.4-6.5-8.1-9.7c-2.8-3.6-6.5-6.5-10.7-8.4c-2.9-1.2-5.7-2.8-8.6-4.2
				c-1.7-0.8-3.4-1.6-5.1-2.4c-2.3-1-4.6-1.8-7-2.7c-1.6-0.8-3.4-1.4-5.1-1.8c-3.4-0.6-6.8-0.8-10.1-1.2c-5.4-0.5-10.9-0.1-16.2,1.1
				c-1.5,0.2-3,0.5-4.4,1.1c-3.9,1.7-7.7,3.7-11.3,5.9c-3.8,2.5-7.4,5.2-10.8,8.1c-2.6,2.2-5,4.5-7.2,7c-2.5,2.8-4.8,5.7-6.9,8.7
				c-1.7,2.5-2.8,5.4-4.5,7.9c-2.8,4.2-4.5,9-5,14C58.4,71.3,59,77.6,61,83.5c1,2.9,2,5.8,4.3,7.9c2.4,2.1,4.5,4.1,6.8,6
				c3,2.4,6,4.6,9.8,5.7c2.6,0.7,5.1,1.7,7.6,2.4c3.4,1.1,7,1.5,10.6,1.3c2.5-0.2,5-0.3,7.4-0.7c4.9-0.6,9.9-0.3,14.7,0.8
				c6,1.1,11.5-0.4,17.1-2c3.1-0.9,6.3-1.7,9.5-2.5C149,102.1,151.2,101.4,152,101.1z"/>
			<path class="st2" d="M92,99.7c-2.5-1.4-4.5-2.5-6.5-3.7c-2.8-1.6-5.6-3.1-8.3-4.9c-5.8-3.8-8.6-9.5-10.6-16
				c-1.1-3.8-0.3-7.4,0.1-11.1c0.7-4.6,2-9.1,3.9-13.4c1-2.7,2.3-5.3,3.9-7.6c1.3-1.8,3.5-3,5.3-4.3c4.3-3.2,8.4-6.6,12.9-9.5
				c5.4-3.4,11.1-6.4,17.6-7.3c5.1-0.7,10.1-2.2,15.3-3c5.8-0.9,11.7-1.4,17.1,1.7c2.2,1.3,4,3.2,6.1,4.7c3.4,2.5,6.8,4.8,10.2,7.2
				c0.7,0.5,1.3,1.2,1.9,1.8c3.7,3.7,7.9,7,10.2,11.9s5,9.4,6,14.7c0.7,3.6,1.4,7.2,0.4,10.8c-0.3,1-0.7,2-1.2,3
				c-0.6,1.5-1.3,3-2.1,4.4c-1.7,2.4-3.6,4.7-5.5,6.9c-1.5,2-3.3,3.8-5.3,5.3c-3.9,2.5-8,4.5-12.4,5.9c-4.1,1.6-8.4,2.6-12.8,2.8
				c-2.6,0.1-5.2,0-7.8,0.1c-2.6,0.1-5.4,0.7-8,0.9c-3.7,0.4-7.5,0.7-11.2,1.1c-1.6,0.3-3.3,0.5-4.9,0.6c-2.5-0.2-4.9-0.6-7.3-1.2
				C96.5,101.1,94,100.3,92,99.7z M71.9,51.6c-0.3,1.1-0.6,2.2-1,3.3c-1.8,4.5-2.8,9.3-2.9,14.2c-0.2,7.4,3.1,14.5,8.8,19.2
				c2.4,1.9,5,3.6,7.8,5c3.4,1.9,6.8,3.8,10.2,5.4c1.6,0.7,3.2,1.1,4.9,1.4c3.1,0.6,6.1,1.9,9.5,1.1c1.4-0.4,2.9-0.8,4.3-1
				c2.9-0.4,5.8-0.5,8.6-0.8c3.4-0.3,6.8-0.8,10.1-1c3.4-0.2,6.6,0,9.9-0.3c2-0.3,4-0.8,6-1.5c5.6-1.6,11.1-3.7,15.5-7.6
				c2.8-2.6,5.3-5.4,7.5-8.5c1.8-2.4,3.3-5.1,4.3-7.9c1.2-4.3,0.9-8.8-0.6-12.9c-1.1-3.2-2.4-6.4-3.9-9.5c-1.5-3-3.2-5.8-5.2-8.5
				c-1.5-1.9-3.3-3.6-5.1-5.1c-1.7-1.5-3.4-3.1-5.2-4.5c-3.6-2.8-7.4-5.4-10.9-8.4c-2.9-2.5-6.6-3.9-10.5-3.8
				c-3.8,0.1-7.6,0.5-11.3,1.2c-4.6,0.7-9.3,1.3-13.8,2.4c-4.5,0.9-8.7,2.7-12.5,5.2c-2.6,1.8-5.1,3.7-7.7,5.5
				c-3.3,2.3-6.6,4.6-10,6.9C75.2,43.7,74.2,48,71.9,51.6z"/>
			<path class="st2" d="M146.2,30.9c2.1,1,4,2.4,5.4,4.3c1.7,2.4,3.3,4.8,4.9,7.2c2.2,3.2,4.5,6.2,6.6,9.4c3.1,4.5,5.3,9.6,6.7,14.9
				c0.5,2.7,0,5.5-1.5,7.8c-1.2,2.4-2.8,4.6-4.5,6.7c-2.2,2.3-4.7,4.4-7.4,6.1c-3.9,2.5-8.2,4.2-12.8,4.9
				c-5.6,1.1-11.1,2.3-16.6,3.6c-0.9,0.2-1.6,0.9-2.5,1.1c-4.3,0.7-8.8,0.9-13.1,0.4c-6.8-0.4-13.6-1-20-3.4c-4.8-1.7-9-4.9-12.1-9
				c-2.5-3.6-4.3-7.6-5.5-11.8c-1.1-3.5-1.1-7.2-0.1-10.6c0.9-3.3,1.7-6.5,2.9-9.7c2.1-5.5,6.1-9,11.5-11.4c2.2-1,3.9-2.8,5.9-4.2
				c3.2-2.4,6.1-5.1,9.6-7c4.4-2.6,9-4.6,13.8-6c6.3-1.6,12.9-2,19,1.5C136.6,25.6,142.9,29.3,146.2,30.9z M78.6,53.3
				c-0.6,1.8-1.3,3.6-1.8,5.4c-0.7,2.7-1.2,5.5-1.6,8.2c-0.4,4,1.2,7.6,2.6,11.2c2.4,6.2,7.2,11.1,13.3,13.6c3.6,1.4,7.4,2.4,11.2,3
				c4.2,0.7,8.4,0.9,12.7,1.2c2,0.3,4,0.3,6,0c3-0.6,5.8-1.9,8.7-2.6c5.1-1.2,10.3-2.1,15.5-3.1c3.4-0.7,6.6-2,9.5-3.8
				c4.6-2.6,8.4-6.4,11.1-10.9c1.5-2.5,2.7-5.1,2.1-7.9c-1.1-4.9-3-9.5-5.6-13.7c-1.4-2.2-3.2-4.1-4.6-6.2c-2-3-3.7-6.1-5.8-9.1
				c-1.3-1.9-2.9-3.7-4.7-5.2c-3.5-2.7-7.4-4.9-11.6-6.5c-2.9-1.5-6.1-2.3-9.4-2.3c-4.9,0.1-9.7,1.2-14.3,3
				c-6.1,2.6-11.3,6.5-16.6,10.3c-2.3,1.7-4.6,3.4-7,4.9c-1.8,1.2-4,2-5.4,3.5C81.3,48.5,79.8,50.8,78.6,53.3L78.6,53.3z"/>
			<path class="st2" d="M132.3,45.7c2.6,1.6,5.4,2.6,7.1,4.5c1.8,2.2,3.1,4.7,3.8,7.4c1.5,4.5,0.6,9.1-0.4,13.7
				c-0.8,4-3.2,7.5-6.7,9.7c-2.9,1.8-5.8,3.4-9.6,3.1c-3.9-0.4-7.9-0.3-11.8,0.4c-5,1.2-7.9-1.7-11.1-4.4c-1.7-1.4-3.2-3.2-4.3-5.1
				c-2-4.1-3.5-8.5-1.9-13.1c1-2.9,2.7-5.5,5.1-7.5c3.5-3.1,7.5-5.5,11.9-7.2c4.3-1.7,8.9-2.4,13.5-2
				C129.5,45.2,131.1,45.5,132.3,45.7z M132.4,47.7c-1.8-0.3-3.7-0.8-5.5-1c-5.2-0.5-9.9,1.1-14.6,3.1c-4,1.6-7.6,4.2-10.2,7.6
				c-1.3,1.8-2.8,3.8-3.1,5.9c-0.2,2.7,0.1,5.3,0.9,7.9c1.1,3.9,3.6,7.2,7,9.4c2.2,1.5,4.7,2.9,7.7,2.2c1.3-0.3,2.7-0.2,4.1-0.5
				c3.9-0.7,7.9,0.1,11.9-1c3.5-1,6.5-2.3,8.4-5.4c1.2-2,2.1-4.2,2.7-6.5c1-4.3,0.8-8.7-0.4-12.9C139.8,52,136.3,49.8,132.4,47.7
				L132.4,47.7z"/>
			<path class="st2" d="M105.7,65.6c2.1-4.9,6.1-7.6,10.7-9.6c3.6-1.6,7.5-2.2,11.3-1.8c8.3,0.8,12.1,6.3,11.1,14.5
				c-0.4,2.9-1.8,5.6-3.9,7.7c-1.1,1.2-3.2,1.7-4.9,2c-4.2,0.9-8.4,1.5-12.6,1.9c-3.2,0.4-6.4-0.2-9.2-1.7c-2.1-1.3-4.4-4.7-3.7-7.6
				c0.3-1.2,0.3-2.5,0.6-3.8C105.2,66.6,105.4,66.1,105.7,65.6z M129.5,76.6C129.2,76.5,129.4,76.6,129.5,76.6
				c3.5-0.5,6.3-3.1,7.1-6.5c0.3-1.8,0.3-3.7,0.5-5.4c0.4-3-2.6-6.7-5.1-7.7c-3.4-1.2-7.1-1.5-10.7-0.8c-1.7,0.4-3.4,1-4.9,1.7
				c-5.8,2.5-10.2,6.1-10.2,13.1c0,2.2,1.6,5.7,3.4,6.3c2.9,1,5.9,1.4,9,1c1.2-0.1,2.3-0.4,3.5-0.6c-1.1-0.3-2.3-0.5-3.4-0.5
				c-5.1-0.5-8.8-3.5-7.5-9c0.9-3.2,3-5.9,5.9-7.5c2.2-1.1,4.5-2.1,6.8-2.9c2.2-0.8,6.5,0.5,8,2.3c1.9,2.2,2.7,5.2,2.1,8.1
				c-0.2,1.3,0.9,2.7-0.4,4C132.3,73.6,130.8,75.3,129.5,76.6L129.5,76.6z M113,67c-1.4,4.8-0.1,7.5,4,8.5c3.6,0.9,7.4,0.8,10.9-0.5
				c2.2-0.7,3.9-2.5,4.4-4.8c0.4-2.8,0.5-5.9-1.6-8.5c-0.8-1.2-2.1-1.9-3.5-2.1c-4-0.4-7.3,1.1-10.3,3.4
				C115.5,64.2,114.2,65.6,113,67L113,67z"/>
			<path class="st2" d="M128.6,70.3c-1.2,2.7-4,4.3-6.9,4c-1.2-0.1-2.5-0.2-3.8-0.5c-1-0.2-1.8-1.1-1.7-2.2c-0.3-2.5,0.6-5,2.5-6.7
				c1.7-1.8,4-2.8,6.5-3c3,0,5,2.1,4.3,5C129.3,68.1,128.9,69.2,128.6,70.3z M118.7,68.5c-0.2,0.4-0.4,0.8-0.5,1.2
				c-0.7,1.8-0.1,2.9,1.9,3.1c2,0.4,4-0.3,5.4-1.7c1.2-1.2,2.8-4.8,2.3-6.3c-0.1-0.2-0.3-0.6-0.5-0.6c-1.3-0.3-2.6-0.4-3.9-0.3
				C121.1,64.5,119.3,66.3,118.7,68.5z"/>
			<path class="st2" d="M121.1,70.6c-0.2-0.7-0.7-1.6-0.5-2.2c0.6-1.7,1.3-3.4,3.2-4c1.1-0.4,2.2-0.1,2.9,0.9
				c0.7,0.9,0.5,2.2-0.4,2.9c-1.1,0.9-2.4,1.8-3.6,2.5C122.3,70.8,121.9,70.6,121.1,70.6z M121.7,69.1c2.3-0.2,2.5-2.1,3.7-3.4
				C122.9,65.8,122.5,67.6,121.7,69.1L121.7,69.1z"/>
			<path class="st2" d="M135.2,87.9c0.6,0,1.1-0.1,1.7-0.2C136.3,87.7,135.8,87.8,135.2,87.9z"/>
			<path class="st2" d="M96.6,45.5c0.8-0.9,1.7-1.9,2.6-2.8C98.3,43.6,97.4,44.5,96.6,45.5z"/>
			<path class="st2" d="M157.4,76.7c0.9-1,1.5-2.2,1.7-3.6c0.1-0.5,0.1-1,0.2-1.5c-0.1,0.5-0.2,1-0.2,1.5
				C158.9,74.5,158.3,75.7,157.4,76.7z"/>
			<path class="st2" d="M92.6,49.6c0.9-0.9,1.8-1.8,2.7-2.7C94.4,47.8,93.5,48.7,92.6,49.6z"/>
			<path class="st2" d="M159.4,59.3c0.2,0.8,0.3,1.6,0.4,2.5C159.7,60.9,159.6,60.1,159.4,59.3z"/>
			<path class="st2" d="M135.2,35.4c-1-0.4-1.9-0.8-2.9-1.1C133.3,34.6,134.2,35,135.2,35.4z"/>
			<path class="st2" d="M121.1,90.4c1-0.2,2.1-0.4,3.1-0.5l0,0C123.2,90.1,122.2,90.2,121.1,90.4z"/>
			<path class="st2" d="M113.5,91.9l1.7-0.2c1-0.1,2-0.3,2.9-0.6c-1,0.3-1.9,0.5-2.9,0.6L113.5,91.9z"/>
			<path class="st2" d="M159.5,70c0.1-1,0.2-2.1,0.3-3.1c0-1.2,0.1-2.6,0-3.9c0,1.2,0,2.6,0,3.9C159.8,68,159.7,69,159.5,70z"/>
			<path class="st2" d="M138.8,87.2c-0.6,0.2-1.1,0.3-1.7,0.4C137.6,87.5,138.2,87.3,138.8,87.2z"/>
			<path class="st2" d="M90.6,84.6c-0.8-0.8-1.6-1.7-2.3-2.6C89,82.9,89.8,83.8,90.6,84.6z"/>
			<path class="st2" d="M86.6,57.1c0.7-1.1,1.4-2.1,2.2-3.1C88,54.9,87.3,56,86.6,57.1z"/>
			<path class="st2" d="M110.9,36.5l3-0.7L110.9,36.5c-1.9,0.4-3.7,1.1-5.5,1.9C107.2,37.6,109,36.9,110.9,36.5z"/>
			<path class="st2" d="M156.8,54.2c-0.6-0.8-1.2-1.7-1.9-2.5c-0.7-0.8-1.5-1.8-2.2-2.7c0.8,0.9,1.5,1.8,2.2,2.7
				C155.6,52.7,156.2,53.4,156.8,54.2z"/>
			<path class="st2" d="M146.2,43.1c-0.5-0.3-1-0.7-1.5-1c-1-0.6-2-1.2-2.9-1.9c0.9,0.7,1.9,1.3,2.9,1.9
				C145.3,42.4,145.8,42.8,146.2,43.1z"/>
			<path class="st2" d="M90,52.5c0.8-1,1.7-1.9,2.6-2.8C91.7,50.6,90.9,51.5,90,52.5z"/>
			<path class="st2" d="M105.5,93.6c6.6,0.4,13.2-0.2,19.5-1.9c2.9-0.7,5.9-1.2,8.9-1.9c3.7-0.7,7.3-1.8,10.8-3.1
				c3.8-1.7,7.1-4.3,10.8-6.1c4.4-2.3,5.8-6.1,6.1-10.7c0.2-3,0.1-5.9-0.2-8.9c-0.1-1.8-0.6-3.5-1.5-5c-2.1-3.3-4.5-6.4-7.1-9.4
				c-2.1-2.6-4.8-4.7-7.8-6.1c-1.5-0.8-3-1.7-4.3-2.8c-2.5-1.6-4.3-4.4-7.7-4.8c-4.3-0.6-8.6-1.4-13-0.3c-2.8,0.7-5.7,1.3-8.5,2
				c-5.2,1.2-10.1,3.8-14.1,7.4c-1.8,1.7-3.3,3.8-5.1,5.5c-4.2,3.7-7.4,8.4-9.6,13.5c-0.6,1.9-1,3.9-1,5.9c0.1,3.2,0.6,6.4,1.4,9.5
				c1.2,4.2,4,7.4,7,10.5C94.4,91.2,99.8,93,105.5,93.6z M91.8,85.8c-0.4-0.4-0.8-0.8-1.2-1.2c-0.8-0.8-1.6-1.7-2.3-2.6
				c-1-1.3-1.9-2.8-2.6-4.4c-0.5-1-0.8-2.1-1-3.2c-0.1-0.7-0.3-1.3-0.4-2s-0.2-1.3-0.3-2c-0.6-4-0.6-8,1.6-11.8
				c0.3-0.6,0.7-1.1,1-1.6c0.7-1.1,1.4-2.1,2.2-3.1c0.4-0.5,0.8-1,1.2-1.5c0.8-1,1.7-1.9,2.6-2.8c0.9-0.9,1.8-1.8,2.7-2.7
				c0.4-0.4,0.9-0.9,1.3-1.4c0.8-0.9,1.7-1.9,2.6-2.8c0.4-0.4,0.9-0.8,1.4-1.2c1.5-1.2,3.2-2.2,4.9-3c1.7-0.8,3.6-1.5,5.5-1.9l3-0.7
				l3-0.7c2-0.5,4-1,6.1-1.3c0.5-0.1,1-0.2,1.6-0.2c1-0.1,2.1-0.1,3.1,0c1.5,0.1,3.1,0.4,4.6,0.8c1,0.3,2,0.7,2.9,1.1l0,0
				c0.7,0.3,1.4,0.7,2,1.2c0.6,0.5,1.2,1.1,1.9,1.5l1.4,1l1.4,1c0.9,0.7,1.9,1.3,2.9,1.9c0.5,0.3,1,0.6,1.5,1c2.4,1.7,4.5,3.7,6.4,6
				c0.8,0.9,1.5,1.8,2.2,2.7c0.7,0.9,1.3,1.6,1.9,2.5c0.6,0.8,1.2,1.7,1.7,2.6c0.4,0.8,0.7,1.6,0.9,2.5c0.2,0.8,0.3,1.6,0.4,2.5
				c0,0.4,0,0.8,0.1,1.2c0,1.2,0,2.6,0,3.9c0,1-0.1,2.1-0.3,3.1c-0.1,0.5-0.1,1-0.2,1.5c-0.1,0.5-0.2,1-0.2,1.5
				c-0.2,1.3-0.8,2.6-1.7,3.6c-0.9,1-1.8,1.8-2.9,2.6c-2.4,1.7-4.9,3.2-7.6,4.6c-2.6,1.3-5.4,2.4-8.2,3.3c-0.6,0.2-1.1,0.3-1.7,0.4
				H137c-0.6,0.1-1.1,0.2-1.7,0.2c-3.4,0.9-6.8,1.5-10.2,2h-0.7c-1.1,0.2-2.1,0.3-3.1,0.5c-1,0.2-1.9,0.4-2.9,0.7
				c-1,0.3-1.9,0.5-2.9,0.6l-1.7,0.2c-1.7,0.2-3.5,0.2-5.2,0c-1.7-0.2-3.3-0.4-5-0.7c-1.6-0.3-3.3-0.7-4.9-1.2
				C96.2,88.8,93.8,87.5,91.8,85.8z"/>
			<path class="st2" d="M88.9,72.8c-0.2-0.7-0.3-1.5-0.3-2.2C88.6,71.3,88.7,72.1,88.9,72.8z"/>
			<path class="st2" d="M141.5,42.2c0.4,0.2,0.8,0.4,1.2,0.6C142.3,42.5,141.9,42.4,141.5,42.2z"/>
			<path class="st2" d="M102.4,87.8c-0.6-0.2-1.2-0.5-1.7-0.8C101.2,87.3,101.8,87.5,102.4,87.8z"/>
			<path class="st2" d="M149.7,75.6c1.1-1.9,1.8-4,2.2-6.1C151.6,71.6,150.8,73.7,149.7,75.6z"/>
			<path class="st2" d="M142.7,42.7c0.8,0.4,1.6,0.8,2.3,1.3C144.3,43.6,143.5,43.1,142.7,42.7z"/>
			<path class="st2" d="M111.6,89.7c0.6,0,1.3,0,1.9,0c1.4,0,2.8-0.1,4.1-0.2c-1.4,0.1-2.8,0.2-4.1,0.2
				C112.8,89.7,112.2,89.7,111.6,89.7z"/>
			<path class="st2" d="M88.6,70.6c-0.1-1.1-0.1-2.3,0-3.4C88.5,68.3,88.5,69.5,88.6,70.6z"/>
			<path class="st2" d="M95.6,83.3c1,1.1,2.1,2,3.3,2.8c0.6,0.3,1.1,0.7,1.7,0.9c-0.6-0.3-1.1-0.6-1.7-0.9
				C97.7,85.3,96.6,84.3,95.6,83.3z"/>
			<path class="st2" d="M123.3,89.1c3.7-0.3,7.4-0.8,11.1-1.7l0.8-0.3c2.4-0.8,4.6-2,6.6-3.6c0.7-0.5,1.3-1,2-1.6
				c0.8-0.7,1.8-1.4,2.6-2.2c0.9-0.7,1.6-1.5,2.3-2.5c0.4-0.6,0.8-1.2,1.1-1.8c1.1-1.9,1.8-4,2.2-6.1c0.5-2.6,0.7-5.3,0.8-8
				c0-0.9,0-1.8-0.1-2.7c-0.1-2.4-0.6-4.8-1.4-7.1c-0.4-1.1-1-2.2-1.6-3.2c-0.7-1-1.5-2-2.5-2.8c-0.7-0.6-1.4-1.1-2.1-1.6
				c-0.7-0.5-1.5-0.9-2.3-1.3c-0.4-0.2-0.8-0.4-1.2-0.6c-1.2-0.5-2.5-1-3.8-1.4l-1.4-0.4c-1.5-0.4-2.9-0.8-4.3-1.4
				c-3.1-1.3-6.6-1.6-9.8-0.7c-4.7,1.2-9.5,2.4-14.2,4c-1.5,0.5-3.1,1.1-4.6,1.7c-1.1,0.4-2.1,1-3.1,1.6c-0.5,0.3-1,0.6-1.4,1
				c-0.9,0.7-1.8,1.4-2.6,2.3c-1.3,1.3-2.3,2.8-3.1,4.4c-1.5,2.9-2.8,6-3.7,9.2c-0.4,1.5-0.7,3.1-0.9,4.7c-0.1,1.1-0.1,2.3,0,3.4
				c0.1,0.7,0.2,1.5,0.3,2.2c0.4,1.9,1.2,3.7,2.3,5.3c0.5,0.7,1,1.4,1.6,2.1l0.7,0.8l1.4,1.6l0.7,0.8c1,1.1,2.1,2,3.3,2.8
				c0.6,0.3,1.1,0.7,1.7,0.9c0.6,0.3,1.2,0.6,1.7,0.8c0.6,0.2,1.2,0.5,1.8,0.7c1.2,0.4,2.4,0.7,3.7,0.9c1.2,0.2,2.5,0.3,3.8,0.4
				c0.6,0,1.3,0,1.9,0c1.4,0,2.8-0.1,4.1-0.2l4.1-0.3L123.3,89.1L123.3,89.1z M107,87.5c-3.9-0.4-7.5-2.3-10-5.3
				c-1.9-2.2-3.7-4.5-5.2-6.9c-1.9-3.1-1.7-6.7-1.1-10.2c0.6-2.6,1.3-5.2,2.2-7.7c1.7-4.7,5.1-8.6,9.4-11.2c2.3-1.1,4.7-2,7.2-2.7
				c3.5-1.2,6.9-2.5,10.4-3.3c2.9-0.7,5.9-1.3,8.9-0.4c2.8,0.9,5.5,1.7,8.2,2.7c2.5,1,4.9,2.1,7.2,3.4c3.3,1.8,4.9,4.9,5.8,8.3
				c1.4,5.4,1.4,11,0,16.4c-1,3.9-3.2,7.4-6.4,10c-2.9,2.3-6.2,4.3-9.6,5.7c-1.7,0.6-3.5,0.9-5.3,1c-3,0.3-6,0.5-8.9,0.5
				C115.4,88,111.2,87.9,107,87.5z"/>
		</g>
	</g>
</g>
</svg>
