<svg id="Layer_1" data-name="Layer 1" xmlns="http://www.w3.org/2000/svg" viewBox="0 0 121.47 380.61"><title>treeillus</title><path d="M110.77,145.33c-4.06,0-7.74-1.63-8.83-4a4.21,4.21,0,0,0-3.75-2.41l.16-.09c5.2-2.91,8.18-5.1,10-4s4.45-1.44,4.45-1.44l0-3.33s-5.09-8.55-9.16-8.58c-.41,0-.81,0-1.21-.06,2.77-1.56,4.61-2.4,5.89-1.61,1.84,1.13,4.45-1.44,4.45-1.44l0-3.33a35.79,35.79,0,0,0-4.32-5.69c3.35-1,1-6.23,1-6.23s3.65-4.47,3.25-7.43-6.66-.67-9.63-2.84-1.5-2.22-3.35-2.05a45.44,45.44,0,0,1-9.57-.66A14.68,14.68,0,0,0,92,89.33c5.2-2.91,8.18-5.1,10-4s4.45-1.44,4.45-1.44l0-3.33A35.49,35.49,0,0,0,102,74.78a7.9,7.9,0,0,0,4.27-3c1.46-2.23,2.56-2.61,7-3s1.79-6.36,1.79-6.36S118.74,58,118.34,55s-6.66-.67-9.63-2.84a13.45,13.45,0,0,1-2.26-2,7.69,7.69,0,0,0,3-2.49c1.46-2.23,2.56-2.61,7-3s1.79-6.36,1.79-6.36,3.65-4.47,3.25-7.43-6.66-.67-9.63-2.84-1.5-2.22-3.34-2.05S99.22,26,95.88,24.51a7.61,7.61,0,0,0-4.07-.67l.17-.09c5.2-2.91,8.18-5.1,10-4s4.45-1.44,4.45-1.44l0-3.33s-5.09-8.55-9.16-8.58-7.74-1.63-8.83-4-4-3.14-7.37-1.69S70.39,2.4,68.54,2.24s-.37-.12-3.34,2.05S56,4.17,55.56,7.13s3.25,7.43,3.25,7.43-.16.37-.34.92l-.07,0C55.07,17,47.68,17.19,45.84,17s-.37-.12-3.35,2.05-9.24-.12-9.63,2.84,3.25,7.43,3.25,7.43-1.67,3.8-.13,5.53a43,43,0,0,1-6.5.22c-1.85-.17-.37-.12-3.35,2.05S16.9,37,16.51,40s3.25,7.43,3.25,7.43-2.64,6,1.79,6.36,5.53.73,7,3a7.83,7.83,0,0,0,3.39,2.69l-.89,0c-1.85-.17-.37-.12-3.35,2.05s-9.24-.12-9.63,2.84,3.26,7.43,3.26,7.43-2.64,6,1.79,6.36,5.54.73,7,3,5.35,4.11,7.08,2.63S36.74,80,43.4,80.42a15.7,15.7,0,0,1,4.39.86,36.89,36.89,0,0,1-4.72.07c-1.85-.17-.37-.12-3.34,2.05s-9.24-.13-9.63,2.84,3.25,7.43,3.25,7.43-2.64,6,1.79,6.36,5.53.73,7,3a6.4,6.4,0,0,0,1.15,1.28,37.33,37.33,0,0,1-4.79.08c-1.85-.17-.37-.12-3.35,2.05s-9.24-.12-9.63,2.84a5,5,0,0,0,.23,2.05l-.15.06C22.25,112.8,14.86,113,13,112.87s-.37-.12-3.35,2.05S.43,114.79,0,117.76s3.25,7.43,3.25,7.43-2.64,6,1.79,6.36,5.53.73,7,3c1.24,1.9,4.24,3.53,6.17,3.07a18.33,18.33,0,0,0,3.08,5.58s-2.64,6,1.79,6.36,5.54.73,7,3a7.43,7.43,0,0,0,2.45,2.22c-.65,0-1.17,0-1.5,0-1.85-.17-.37-.12-3.35,2.05s-9.24-.12-9.63,2.84S21.32,167,21.32,167s-2.64,6,1.79,6.36,5.54.73,7,3,5.35,4.11,7.08,2.63-.44-3.68,6.22-3.25c6.46.42,5.93,3.21,10.64.72-.7,84.66-5.28,194.23-5.28,194.23.11,7.11-33.52,10,15.71,10,60-.07,29-.81,24.83-10-4.53-10.06-7.14-83-8.73-161.34l.32,0c6.66.43,5.89,3.38,11.09.47s8.18-5.1,10-4,4.45-1.44,4.45-1.44l0-3.33s-5.09-8.55-9.16-8.58-7.74-1.63-8.83-4-4-3.14-7.37-1.69a9.64,9.64,0,0,1-.94.34c-.13-8.77-.23-17.39-.3-25.76A7,7,0,0,1,81,162.78c1.46,2.23,5.35,4.11,7.08,2.63s-.44-3.68,6.22-3.25,5.89,3.38,11.09.47,8.18-5.1,10-4,4.45-1.44,4.45-1.44l0-3.33S114.84,145.37,110.77,145.33Zm-60-19.94h0a17.05,17.05,0,0,1,3,.45q.08,3.85.14,7.93A6.09,6.09,0,0,1,51,131a4,4,0,0,0-1-1.33,8.12,8.12,0,0,0,.91-.74l0-3.33ZM71.57,67.84a1.82,1.82,0,0,0,.33-.16,2.92,2.92,0,0,1,2.55,0C73.44,67.75,72.45,67.81,71.57,67.84Zm-1.41,0h-.59l.17-.11h0Zm-3.56.85c-.27-.35-.56-.7-.86-1.05a6.88,6.88,0,0,0,1.39.49A7.19,7.19,0,0,1,66.6,68.73ZM80.57,90q0-.58,0-1.15l.28,0c.41,0,.79.06,1.15.11A4,4,0,0,0,80.57,90ZM52.93,56.6l.81-.46c-.48,1.28-1.87,5.72,1.92,6s5.19.63,6.43,2.17a4.58,4.58,0,0,0-2.26-.75c-4.06,0-7.74-1.63-8.83-4a4,4,0,0,0-1.49-1.71A8.16,8.16,0,0,0,52.93,56.6Zm5.15,22.56a7.63,7.63,0,0,0-.82.15l.66-.38ZM92.6,71.21l.41,0c3.34-.22,4.46.23,5,.92a3.26,3.26,0,0,0-.65-.08A14.63,14.63,0,0,1,92.6,71.21ZM96.11,47c6.46-.42,4.62,1.64,6.07,3.11a46.83,46.83,0,0,1-6-.6,6.48,6.48,0,0,0-3.73-1.89A16.27,16.27,0,0,1,96.11,47ZM80.89,23.27c5.37.35,5.91,2.33,8.65,1.56a4,4,0,0,0-1,1.37C87.8,27.76,86,29,83.68,29.63a32.77,32.77,0,0,0-5.11-6.4A19.49,19.49,0,0,1,80.89,23.27ZM58.19,38.05c6.66.43,5.89,3.38,11.09.47l2.25-1.28c-.63.92-1,1.55-1,1.55l0,3.33a8.32,8.32,0,0,0,1.2.94,49.4,49.4,0,0,1-7.45.46c-1.77-2.11-4-4.21-6-4.23a14.69,14.69,0,0,1-4.57-.75C54.37,38.11,55.62,37.89,58.19,38.05ZM43.62,57.88a27.51,27.51,0,0,1-7.95,1.44c1.61-1.48-.42-3.62,6.16-3.19a15.59,15.59,0,0,1,4.86,1A8.32,8.32,0,0,0,43.62,57.88Zm8.57,44.56a9.72,9.72,0,0,0-1.13.41l-.27.11A3.08,3.08,0,0,1,52.19,102.44ZM21.78,134a11.53,11.53,0,0,1,3-.16C23.79,134,22.74,134,21.78,134Zm21.84,19.13a22.19,22.19,0,0,1-5.89,1.26c.71-1.38,0-2.91,5.66-2.54a16.59,16.59,0,0,1,3.42.55A8.21,8.21,0,0,0,43.62,153.15ZM51,154.85a4,4,0,0,0-1-1.34c1,.24,2.11.11,4.12-1q0,2.52,0,5.1A6.19,6.19,0,0,1,51,154.85Zm28.8-12.58v-.17l.22,0Zm2.2-1.13-.51,0c.91-1.42-.16-3.12,5.78-2.74,3.64.24,5.06,1.22,6.45,1.6C90.1,141.11,83.69,141.29,82,141.14Z" fill="#fffbca"/></svg>