<svg id="Layer_1" data-name="Layer 1" xmlns="http://www.w3.org/2000/svg" xmlns:xlink="http://www.w3.org/1999/xlink" viewBox="0 0 274.49 193.49"><defs><clipPath id="clip-path"><rect x="16.95" y="26.13" width="241.03" height="160.24" fill="none"/></clipPath></defs><title>treerings</title><g clip-path="url(#clip-path)"><g opacity="0.27"><path d="M116.35,164.72c-2.43,0-4.86-.13-7.29-.23s-4.63-.25-6.94-.3c-1.54,0-3.08.13-4.62.12-2.18,0-4.37,0-6.54-.21-4.12-.33-8.24-.75-12.35-1.17-3.6-.37-7.24-.55-10.78-1.25A23.41,23.41,0,0,1,58,157.81c-2.28-1.71-5-2.88-7.42-4.36a75.4,75.4,0,0,1-7.31-4.67c-3.41-2.64-7.33-4.42-10.89-6.78-3-2-5.92-4-8.68-6.19-1.33-1.07-2.21-2.71-3.31-4.08s-2.12-2.75-3.31-4c-3.35-3.55-5.08-8-7-12.35-.92-2.1-1.92-4.17-2.65-6.34-1.19-3.51-2.16-7.1-3.28-10.64A38.38,38.38,0,0,1,2.36,87.54a50.73,50.73,0,0,1,.8-10.2A61.47,61.47,0,0,1,6.1,67.12c1-2.68,2.64-5.11,3.81-7.74,1.79-4,3.37-8.13,5.13-12.17,1.51-3.45,3-6.92,4.76-10.26,2.21-4.24,4.53-8.42,7-12.5,3-4.87,5.7-9.9,9.5-14.21,2.08-2.37,4.23-4.68,6.37-7C45.8-.14,48.78-3.7,52.14-6.84a57.87,57.87,0,0,1,10.05-7.93A38.54,38.54,0,0,1,80-20.33c2.07-.09,4.12-.68,6.18-.74,5.62-.17,11.24-.32,16.86-.2,3.16.07,6.3.73,9.45,1,4.53.45,9.08.81,13.61,1.24,1,.09,1.94.34,2.91.47,2.92.38,5.84.76,8.76,1.11a16.54,16.54,0,0,1,7.57,3.28,12.32,12.32,0,0,0,5.48,1.86c2.34.35,4.76.28,7,1.62A37.31,37.31,0,0,0,164.64-8c2,.69,4,1.22,5.94,2,3.63,1.37,7.23,2.81,10.82,4.29C184-.7,186.61.53,189.25,1.61c3,1.24,6.21,2.22,9.17,3.62a90.37,90.37,0,0,1,8.2,4.7c3,1.83,6,3.68,8.83,5.68a30.08,30.08,0,0,1,4.77,4.13,55.43,55.43,0,0,1,8.08,11.54,49.49,49.49,0,0,1,4.2,11.9c1.07,4.38,1.22,8.8,1.54,13.24.28,3.9.82,7.78,1.18,11.67.16,1.69,0,3.43.25,5.09.8,4.46.23,8.93.18,13.39,0,4-1.69,7.54-3.14,11.13-2.35,5.82-5,11.53-7.16,17.4a46.29,46.29,0,0,1-5.89,11.59,90,90,0,0,1-7.34,8.15,48.1,48.1,0,0,1-5.66,5.36c-3,2.25-6.17,4.24-9.35,6.22-4.22,2.62-9,4-13.63,5.61-4.34,1.52-8.64,3.17-12.95,4.78-3.75,1.4-7.26,3.43-11.25,4.25-5.32,1.1-10.55,2.57-16,2.75-4.94.16-9.88.45-14.83.63-2.32.09-4.65,0-7,.11-.72,0-1.43.28-2.15.32C119,164.9,117,164.73,116.35,164.72ZM232.28,95l.16.07a24.39,24.39,0,0,0,1.46-4.51c.43-3.42.69-6.87.78-10.31.06-2.18-.35-4.37-.46-6.56-.17-3.34-.18-6.7-.43-10s-.93-6.55-1.06-9.84a61.92,61.92,0,0,0-3.25-16.48c-2-6.08-5.61-11.19-9.67-16a30.93,30.93,0,0,0-5.53-5c-2.52-1.82-5.35-3.19-7.93-4.93a61.72,61.72,0,0,0-14.77-7.62c-2.15-.73-4.3-1.45-6.38-2.33s-4.32-2.17-6.54-3.09c-2.75-1.13-5.57-2.07-8.36-3.07-3.27-1.17-6.53-2.35-9.81-3.46-2.2-.74-4.24-1.93-6.69-2-4.06,0-7.88-.93-11.1-3.65a6.69,6.69,0,0,0-2.5-1.29,46.57,46.57,0,0,0-5.5-1.14c-3.63-.52-7.28-1-10.93-1.39-2.08-.25-4.18-.38-6.26-.64-3.69-.47-7.35-1.13-11-1.47a115.6,115.6,0,0,0-20.63,0c-2.31.2-4.61.57-6.9,1a61.61,61.61,0,0,0-8.31,1.6,32.56,32.56,0,0,0-13.4,7.65c-3.25,3.19-6.86,6-10,9.28-3.39,3.51-6.45,7.35-9.65,11a31.73,31.73,0,0,0-3,3.5c-2.57,4-5,8.13-7.49,12.21-2,3.22-4,6.39-5.77,9.72C19.84,39,18.69,42,17.4,44.94c-1.42,3.21-2.81,6.43-4.23,9.64-.34.77-.75,1.51-1.08,2.29-1,2.25-1.87,4.53-2.86,6.77C8,66.46,6.47,69.18,5.51,72.09A45.24,45.24,0,0,0,4,80a46.92,46.92,0,0,0,1.5,19.12C6.52,103,8,106.71,9.3,110.48c.62,1.73,1.34,3.44,2.1,5.11a47,47,0,0,0,3.54,7.27c2.6,3.79,5.53,7.36,8.43,10.94,2.29,2.82,5.4,4.69,8.4,6.63,2.24,1.45,4.66,2.63,6.93,4,3,1.84,5.73,4,8.81,5.7,3.76,2.09,7.45,4.31,11,6.68,3.93,2.59,8.3,3.64,12.83,4.23,4.31.56,8.63,1,13,1.42,3.25.32,6.51.65,9.77.79,4.12.18,8.24.15,12.37.23s8.53.25,12.8.3c2.91,0,5.82,0,8.72-.12,3.34-.15,6.67-.35,10-.68,5.18-.52,10.4-.94,15.52-1.85a58.3,58.3,0,0,0,13.81-4.08c4.2-1.89,8.56-3.45,12.88-5.05s8.71-2.83,12.89-4.65a69.85,69.85,0,0,0,8.72-5.07,29.7,29.7,0,0,0,4.51-3.25c2.86-2.64,5.63-5.38,8.33-8.18a31.1,31.1,0,0,0,3.92-4.76,60.49,60.49,0,0,0,5.92-12.17C226.8,107.54,229.66,101.33,232.28,95Z" fill="#f3e6a0"/><path d="M22.59,45.91c2.21-4.25,4.54-8.4,6.56-12.7,2.67-5.68,7.28-9.75,11.31-14.31,2.36-2.68,5-5.13,7.2-7.94a48.87,48.87,0,0,1,6.45-7.2C57.68.7,61.16-2.52,65-5.21A36.57,36.57,0,0,1,79-11c7-1.41,14-3.1,21.27-2.86A92.11,92.11,0,0,1,119.6-11c4.85,1.21,9.68,2.59,14.58,3.54,5.19,1,10.49,1.47,15.7,2.38a81,81,0,0,1,9.28,2.33c2.53.76,5,1.84,7.46,2.73,1.67.6,3.38,1.1,5.06,1.66.82.27,1.63.58,2.44.87l7.76,2.79c4,1.43,8.08,2.77,12,4.33a38.53,38.53,0,0,1,4.66,2.68c1.13.64,2.27,1.28,3.45,1.84,3,1.4,4.75,4,6.66,6.44a28.9,28.9,0,0,1,3.1,4.59c.77,1.52,1.06,3.27,1.68,4.87,1.81,4.62,3.71,9.22,5.54,13.83.88,2.22,1.57,4.53,2.57,6.7a78.73,78.73,0,0,1,5.9,21.3,55.64,55.64,0,0,1-.59,17.94c-.63,3.58-1.15,7.18-1.82,10.74a29.23,29.23,0,0,1-2.88,8,38,38,0,0,1-5,7.55c-2.11,2.44-4.22,4.87-6.41,7.24-2.43,2.63-4.94,5.19-7.42,7.77a31.73,31.73,0,0,1-9.42,7.1,95.28,95.28,0,0,1-9.81,4.09c-4.13,1.38-8.43,2.23-12.57,3.57s-8.67,2.39-12.59,4.72a12.41,12.41,0,0,1-2.79.81c-2.58.78-5.19,1.47-7.73,2.37a55.54,55.54,0,0,1-14.34,3.05,78.82,78.82,0,0,1-14.92-.26c-3.73-.41-7.47-.85-11.22-1.1-2.35-.15-4.72.11-7.08,0a107.12,107.12,0,0,1-11.22-.64,64,64,0,0,1-10-2.41c-3-.91-5.8-2.16-8.67-3.34-2.44-1-4.79-2.19-7.26-3.12-2.79-1.05-5.68-1.83-8.47-2.87-2.41-.9-4.73-2.05-7.12-3-4.57-1.83-8.05-5.25-12-8A75.54,75.54,0,0,1,22,118.61a30.15,30.15,0,0,1-6.18-13c-1.12-4.76-2.07-9.57-3.31-14.3-1.13-4.29-.57-8.45.62-12.55,1.11-3.83,2.69-7.53,3.79-11.37,1.17-4.09,2-8.29,3-12.42C20.72,52,21.69,49,22.59,45.91ZM15.84,73.62c-.76,3.16-1.59,6.31-2.16,9.51a17.08,17.08,0,0,0-.15,5.46c.58,3.79,1.42,7.54,2.25,11.29.59,2.67,1.34,5.3,2,7.95a24.39,24.39,0,0,0,5,9.71c2.18,2.58,4.48,5.08,6.86,7.47a62.88,62.88,0,0,0,5.9,5.23c2.58,2,5.25,3.93,8,5.71a66.85,66.85,0,0,0,6.57,3.58c.72.36,7.92,2.83,10.69,3.93,3,1.19,6,2.32,9,3.49,4.51,1.77,8.94,3.78,13.55,5.25a43.18,43.18,0,0,0,13.87,2c3.35-.05,6.72-.13,10.06.08,3.65.23,7.27,1,10.92,1.15,5.49.23,11,.31,16.5.1a41.5,41.5,0,0,0,13-2.66c2.48-.93,5-1.69,7.54-2.51a33.33,33.33,0,0,0,3.88-1.21,105.74,105.74,0,0,1,14.09-4.94,66.33,66.33,0,0,1,8.09-2.4c4.87-.82,9.06-3.2,13.35-5.35s7.56-5.65,10.89-9c2.64-2.64,5-5.54,7.52-8.32a52,52,0,0,0,8.73-12.23,36.39,36.39,0,0,0,2.6-9.65c1.16-6.73,2.56-13.43,2.19-20.32a39.66,39.66,0,0,0-.6-6.54c-1-4.37-2.09-8.72-3.42-13-1.28-4.1-2.9-8.11-4.39-12.14q-1.3-3.54-2.67-7c-.7-1.79-1.44-3.57-2.19-5.34a23.49,23.49,0,0,1-1.48-3.44c-1.14-4.78-4.14-8.39-7.32-11.87-2.79-3.06-6.71-4.38-10.24-6.23a64.9,64.9,0,0,0-8.67-3.39C183.12,7,180.51,6.36,178,5.5c-2.28-.76-4.52-1.64-6.77-2.46C169.8,2.53,168.42,2,167,1.51c-2.49-.83-5-1.61-7.5-2.43a53.57,53.57,0,0,0-5.77-1.91c-5.1-1.05-10.23-2-15.38-2.81a142.58,142.58,0,0,1-15.92-3.21c-4.07-1.11-8.21-1.93-12.34-2.81a56.52,56.52,0,0,0-16.45-.75,92.78,92.78,0,0,0-10.89,1.93,76.31,76.31,0,0,0-8.63,2.07A41.14,41.14,0,0,0,61.87-1.59c-.74.57-1.34,1.32-2,1.95-2.6,2.33-5.42,4.46-7.78,7-4.58,5-8.61,10.46-13.41,15.18-6.13,6-9.86,13.39-13.31,21a40.42,40.42,0,0,0-1.66,4c-1,3-1.94,6-2.77,9C19.53,61.66,16,73,15.84,73.62Z" fill="#f3e6a0"/><path d="M176,8.68c5,1.9,9,5.18,12.57,9.07A45.75,45.75,0,0,0,193,21.37c1,.86,2,1.8,3,2.75,2.86,2.85,5.77,5.65,8.53,8.59a27.34,27.34,0,0,1,5.39,8,21.44,21.44,0,0,0,2.37,4.55c1.61,2.14,2,4.58,2.4,7.07.82,4.83,1.54,9.68,2.52,14.48a38.29,38.29,0,0,1,.12,12.29c-.49,4.23-1.33,8.42-2.23,12.59A94.64,94.64,0,0,1,212,103.16a21.63,21.63,0,0,1-3.82,6.6c-3,3.59-6.38,6.92-9.69,10.26a73,73,0,0,1-12.22,9.51,57,57,0,0,1-12.17,6.11c-2.73,1-5.36,2.19-8.06,3.23-3.22,1.24-6.46,2.47-9.72,3.6a33.72,33.72,0,0,1-5,1.33c-4.17.77-8.37,1.4-12.55,2.13-2.78.49-5.53,1.21-8.33,1.54-3.62.43-7.27.57-10.91.82-2.07.15-4.14.33-6.21.39-2.4.07-4.79,0-7.19,0s-4.94-.08-7.4-.32c-2.23-.22-4.43-.81-6.66-1.06a59.6,59.6,0,0,1-13.41-3.48c-1.54-.55-3.21-.76-4.79-1.21-1-.28-1.89-.81-2.87-1.1-2.84-.86-5.71-1.61-8.54-2.51a40.25,40.25,0,0,1-4.22-1.76c-1.53-.69-3-1.4-4.54-2.16-1.07-.55-2.11-1.17-3.13-1.8-3.43-2.1-6.91-4.13-10.24-6.38a67.88,67.88,0,0,1-7.46-5.8A16,16,0,0,1,30.17,117a52.76,52.76,0,0,1-3.39-6.54c-.93-2.35-1.41-4.87-2.14-7.31-.82-2.72-1.8-5.4-2.55-8.15-.86-3.15-2.12-6.21-1.93-9.61s.14-7.09,1.59-10.44a19.46,19.46,0,0,0,.59-2.62c.79-2.89,1.55-5.8,2.44-8.67q2.14-6.83,4.45-13.6c1.32-3.88,3.62-7.22,5.95-10.55,2.07-3,4-6,6-9,3-4.33,6.17-8.59,9.28-12.87,1.92-2.64,3.85-5.29,5.85-7.87a20.63,20.63,0,0,1,12.85-8.1C73.08,1,77,.11,80.87-.3A145.84,145.84,0,0,1,96-1.19c5,0,9.92.56,14.89.79,3.35.16,6.72.14,10.07.28,1.81.07,3.61.39,5.42.46,2.92.12,5.86,0,8.77.23,3.26.26,6.5.84,9.75,1.22,2,.24,4,.24,6,.58,3.32.57,6.62,1.27,9.9,2q6,1.37,11.93,2.94A26,26,0,0,1,176,8.68ZM29.2,54.32a18.77,18.77,0,0,0-.73,1.77c-1.19,4-2.39,7.94-3.52,11.93-1,3.55-2.13,7.09-2.84,10.71-1.12,5.65-.18,11.17,1.68,16.56,1,2.8,2,5.59,2.81,8.45,1.07,3.93,2,7.88,4.3,11.35,1.17,1.77,1.95,3.93,3.45,5.32a59.72,59.72,0,0,0,8.41,6.29c4.57,2.91,9.27,5.64,14,8.29a40.91,40.91,0,0,0,7.09,3.15c4.19,1.38,8.48,2.44,12.71,3.72,3.18,1,6.25,2.41,9.48,3.06,5.3,1.07,10.69,1.73,16.06,2.44,7.64,1,15.26-.28,22.89-.33,2,0,4-.74,6-1.06,3.2-.5,6.43-.89,9.63-1.39s13.8-3,15-3.43c3.38-1.16,6.76-2.32,10.11-3.54,2.61-1,5.24-1.89,7.77-3a100.77,100.77,0,0,0,11.27-5.47,71.2,71.2,0,0,0,9.86-7.44c3.77-3.31,7.36-6.85,10.8-10.49A27.46,27.46,0,0,0,212,98.39c1.21-5.11,2.53-10.22,3.34-15.41a87.61,87.61,0,0,0,.82-12.58,36.71,36.71,0,0,0-1-6.52q-1.15-6.67-2.36-13.33a11.47,11.47,0,0,0-2-5.14,12.79,12.79,0,0,1-1.14-2c-.8-1.56-1.44-3.21-2.37-4.67a50.5,50.5,0,0,0-9.73-11.16c-2-1.76-3.86-3.77-5.87-5.58-1.6-1.44-3.35-2.7-5-4.11-1.87-1.62-3.55-3.48-5.53-4.93a30.13,30.13,0,0,0-11.43-5.14c-4.64-1-9.2-2.43-13.87-3.27-5.55-1-11.16-1.68-16.76-2.3-3.82-.42-7.68-.48-11.52-.72-2.19-.14-4.38-.4-6.57-.5-3.27-.15-6.55-.17-9.82-.31-3.5-.14-7-.39-10.49-.53C97.74.08,94.65-.13,91.59,0c-4.35.18-8.7.48-13,1-3.07.38-6.08,1.2-9.11,1.87-4.05.9-7.7,2.57-10.34,5.91-2.22,2.8-4.32,5.7-6.52,8.52-1.79,2.29-3.79,4.43-5.45,6.81-3.92,5.64-7.69,11.39-11.51,17.09a48.74,48.74,0,0,0-3.36,5.18A66.35,66.35,0,0,0,29.2,54.32Z" fill="#f3e6a0"/><path d="M156.7,8.64c3,1.71,6,3.44,9.07,5.12,2.2,1.21,4.5,2.25,6.67,3.53,2.7,1.6,5.39,3.25,7.94,5.08,3.91,2.8,7.68,5.79,11.55,8.65,2.69,2,5.09,4.21,6.39,7.36,1.13,2.74,2,5.6,3.19,8.31,1.58,3.58,1.58,7.35,1.8,11.13a31.43,31.43,0,0,0,.85,4.16,26.15,26.15,0,0,1,.55,3.34c.25,4,.57,8,.61,12,0,3.74-.21,7.49-.47,11.22a14.74,14.74,0,0,1-.93,4.2,83.52,83.52,0,0,1-4.36,10.33c-1.45,2.64-3.62,4.89-5.51,7.28q-2.49,3.16-5.08,6.24a29.35,29.35,0,0,1-7.07,5.72c-.79.5-1.44,1.2-2.21,1.73-1.73,1.19-3.43,2.42-5.25,3.46a44.35,44.35,0,0,1-6.76,3.37c-3.16,1.13-6.47,1.82-9.69,2.78-1.26.38-2.43,1.08-3.69,1.47-4.31,1.34-8.61,2.77-13,3.84a76.55,76.55,0,0,1-9.23,1.36c-1.89.22-3.88,0-5.7.44a15.22,15.22,0,0,1-4.8.87c-1.1-.07-2.21-.1-3.31-.15l-2.45-.09c-3.44-.15-6.88-.22-10.3-.47a67,67,0,0,1-12.84-2.27c-3.06-.84-6.21-1.36-9.3-2.09-2.87-.68-5.72-1.44-8.58-2.2-2.17-.57-4.34-1.17-6.5-1.8-2.76-.81-5.5-1.7-8.27-2.49a32,32,0,0,1-10.56-5.7c-3.52-2.67-7.37-5-9.79-8.92a44.29,44.29,0,0,1-4.08-8.39c-.87-2.41-1.9-4.77-2.72-7.2-.43-1.28-.54-2.66-.86-4-.5-2-1.09-4-1.58-6a42,42,0,0,1-1.26-9c-.1-3.67.48-7.24.66-10.86,0-.46.39-.9.5-1.38.38-1.7.6-3.44,1.1-5.1.72-2.4,1.67-4.74,2.46-7.12a34.56,34.56,0,0,1,1.17-4.06c1.68-3.51,3.53-6.94,5.3-10.4,1.45-2.83,2.8-5.7,4.33-8.48,2.23-4,4.65-7.9,8.17-11.06a56.53,56.53,0,0,1,9-6.83A33.19,33.19,0,0,1,74.4,10.93c5.4-.71,10.83-1.26,16.24-1.91,3.28-.39,6.54-1,9.83-1.23,5.2-.34,10.43-.39,15.64-.65,3.58-.18,7.15-.69,10.73-.76,5.73-.12,11.42-1.56,17.18-.69A57.88,57.88,0,0,1,156.7,8.64ZM32.05,67.36c-.49,2.72-1.19,5.41-1.54,8.14a36.45,36.45,0,0,0-.23,6.94c.34,5.18,2.11,10.08,3.32,15.08.79,3.26,2.32,6.32,3.41,9.52,1.59,4.69,3.61,9.11,7.66,12.23A118.44,118.44,0,0,0,55.14,127c4.15,2.52,8.91,3.68,13.64,4.8,3.16.74,6.27,1.7,9.41,2.55,2.92.78,5.84,1.59,8.78,2.29,2.44.59,4.91,1.11,7.38,1.54,4,.71,8,1.54,12.08,1.91,3.74.35,7.53.21,11.29.21a28.44,28.44,0,0,0,6.23-.37,6,6,0,0,1,3.27,0,2.41,2.41,0,0,0,.93,0c2.46-.26,4.93-.4,7.36-.82,3.76-.65,7.52-1.36,11.21-2.32,2.81-.73,5.5-1.91,8.26-2.87a43.61,43.61,0,0,1,4.62-1.49,30.11,30.11,0,0,0,9.62-3.55c1.67-1,3.66-1.57,5.32-2.62,2.61-1.66,5.07-3.57,7.6-5.37a19.9,19.9,0,0,0,3.38-2.47c3.48-3.86,6.86-7.81,10.22-11.77A21.48,21.48,0,0,0,200,99.48a43,43,0,0,1,2.15-5.8,19.16,19.16,0,0,0,1.64-7.75c.2-3.93.05-7.88,0-11.82a49.54,49.54,0,0,0-.74-10.57c-.65-3-.86-6-1.27-9.07a28.54,28.54,0,0,0-.74-5.07c-1.18-3.59-2.64-7.08-4-10.62a13.31,13.31,0,0,0-4.63-6q-5.53-4.18-11.16-8.23c-2.83-2-5.65-4.08-8.62-5.89-2.53-1.53-5.37-2.55-7.88-4.11-4.15-2.58-8.37-5-13.13-6.15a46.81,46.81,0,0,0-8.82-1.67,112.54,112.54,0,0,0-12.11.33c-4.26.24-8.51.67-12.77,1-.9.07-1.8,0-2.7.06-3.11.2-6.22.47-9.34.64s-6.19-.05-9.2.43c-5.79.92-11.6,1.46-17.44,1.91a31.77,31.77,0,0,0-8,1.62A60.16,60.16,0,0,0,61.94,17a36.81,36.81,0,0,0-6.1,4.57A49.32,49.32,0,0,0,50,27.41a46,46,0,0,0-3.81,6.17c-1.23,2.13-2.42,4.29-3.56,6.48-.91,1.76-1.7,3.59-2.58,5.37-1.18,2.39-2.46,4.74-3.55,7.17-.71,1.56-1.17,3.24-1.73,4.87-.26.75-.51,1.49-.75,2.25C33.44,61.41,32.2,66.53,32.05,67.36Z" fill="#f3e6a0"/><path d="M191.42,94.36c-1.49,4-4.21,6.85-6.39,10.09a39.38,39.38,0,0,1-6.14,7.31c-2.29,2.08-4.66,4.08-7,6.15-1.18,1.07-2.17,2.37-3.42,3.34-2.14,1.67-4.37,3.22-6.64,4.71a70.13,70.13,0,0,1-6.36,3.82,52,52,0,0,1-5,1.93c-1.41.55-2.79,1.16-4.19,1.71a6.11,6.11,0,0,1-1.68.49c-2.25.18-4.32,1-6.48,1.56a21.73,21.73,0,0,1-4.93.47c-4.16,0-8.33,0-12.49-.15-3.8-.18-7.58-.83-11.37-.91-3.64-.08-7.29.38-10.94.45-2.56.05-5.12.49-7.69-.18-1.41-.37-3-.17-4.4-.46-2.08-.42-4.12-1-6.16-1.62-1.77-.5-3.53-1-5.27-1.64a21.77,21.77,0,0,1-2.72-1.29c-2.6-1.34-5.22-2.66-7.78-4.07-1.6-.88-3.14-1.87-4.67-2.87-3-1.94-6-3.81-8.83-5.93-1.88-1.4-3.77-2.87-4.82-5.13A26.92,26.92,0,0,0,43.63,108c-1.35-1.92-1.55-4.16-1.91-6.33C41,97.1,40.93,92.45,39.37,88a22.56,22.56,0,0,1-.61-4.3,35,35,0,0,1-.6-4.08c-.09-4.33-.42-8.66,1-12.91a15.58,15.58,0,0,0,.78-5.41,9.06,9.06,0,0,1,.64-3c.94-2.89,1.51-5.91,3.19-8.55,1-1.58,1.62-3.42,2.55-5.05a25.53,25.53,0,0,1,2.72-4c3-3.51,6.17-6.89,9.15-10.42a45,45,0,0,1,12.42-9.79,52.53,52.53,0,0,1,7.62-3.74,89.6,89.6,0,0,1,13.73-3.6,94.2,94.2,0,0,1,13.63-1.74c3.86-.2,7.74.07,11.61,0,2.61,0,5.24-.44,7.84-.28,5.73.36,11.44,1,17.17,1.5a37,37,0,0,1,4.18.31c4.77,1,9.63,1.75,14,4,4.09,2.1,8.21,4.16,12.1,6.59a43.15,43.15,0,0,1,6.07,5.29,25.06,25.06,0,0,1,3,3.18c2.32,3.07,4.66,6.13,6.74,9.36.8,1.24,1,2.91,1.32,4.4.81,3.29,1.65,6.57,2.31,9.88.85,4.28,2.08,8.5,1.9,13s.14,8.86-.13,13.27S193.3,90.62,191.42,94.36ZM74.5,130.29l.05-.1a11.75,11.75,0,0,0,1.09.45c2.59.78,5.18,1.59,7.79,2.32A32.56,32.56,0,0,0,95,134.21a81.58,81.58,0,0,1,12.17-.52c4.91.32,9.83.67,14.74,1a67.83,67.83,0,0,0,8.46.43c3.51-.21,7-.88,10.49-1.43,4.12-.65,7.88-2.47,11.74-3.91a35.4,35.4,0,0,0,5-2.67c3.4-1.94,7-3.57,9.8-6.45,1-1,2.12-1.92,3.18-2.87,2.26-2,4.7-3.91,6.74-6.14,2.63-2.86,4.82-6.12,7.42-9a27,27,0,0,0,7-15.45c.29-2.67.3-5.37.4-8.06A84.4,84.4,0,0,0,192.41,69c-.36-4.38-1.18-8.74-2-13.08-.53-2.95-1.42-5.83-2-8.78a23.13,23.13,0,0,0-3.1-8.19c-1.17-1.88-2.86-3.43-4.21-5.2a38.34,38.34,0,0,0-8.73-8.47A69.65,69.65,0,0,0,162,19.11c-2.74-1.25-5.41-2.82-8.54-3.25-2.69-.37-5.3-1.28-8-1.76-1.61-.29-3.3-.13-4.93-.32-4.07-.47-8.12-1.15-12.19-1.5a69,69,0,0,0-7.06.13c-5.89.1-11.77.15-17.66.29a56,56,0,0,0-6.78.51c-2,.29-3.93.91-5.89,1.38A105.41,105.41,0,0,0,80,17.33a51,51,0,0,0-10.65,5.31A52.18,52.18,0,0,0,57.09,33.38c-3,3.69-6.23,7.18-9,11a34.07,34.07,0,0,0-4.49,8.42,37.08,37.08,0,0,0-2.51,10.39c-.2,3.62-1.64,7.11-1.77,10.85A54,54,0,0,0,40.8,88.67a36.65,36.65,0,0,1,1.27,5.93c.32,4.63.77,9.19,2.9,13.44,1.29,2.58,2.54,5.22,4.85,7,4,3.06,8.11,6.09,12.41,8.75C66.15,126.2,70.4,128.13,74.5,130.29Z" fill="#f3e6a0"/><path d="M52.85,65.83a35.33,35.33,0,0,1,7.84-11.55c5.89-5.65,11.74-11.35,17.63-17,3-2.89,5.85-6,9.21-8.46,3.15-2.27,6.84-3.85,10.38-5.54a31.18,31.18,0,0,1,12.55-3c2.2-.07,4.39-.45,6.59-.48,2.78,0,5.56.14,8.34.21,3.25.07,6.51-.06,9.74.23,5,.44,10.1.91,14.73,3.13,2.84,1.36,5.53,3,8.27,4.59a77.75,77.75,0,0,1,7.47,4.44,91.12,91.12,0,0,1,8.14,6.32,34.45,34.45,0,0,1,7.93,11.51c1.68,3.69,1.58,7.64,2.05,11.52.36,3,.72,6,1,9,.35,4.51.87,9-.25,13.52a16.14,16.14,0,0,1-.67,2.09c-1.44,3.58-2.44,7.33-4.58,10.65a31.58,31.58,0,0,0-2.52,5.81,10.64,10.64,0,0,1-3.8,4.75c-.42.31-.67.84-1.07,1.19a65.25,65.25,0,0,1-6.34,5.23c-1.83,1.2-4.06,1.75-6.06,2.7-2.64,1.26-5.2,2.67-7.84,3.93-3.14,1.5-6.38,2.78-9.46,4.37-3.53,1.83-7.38,2.14-11.18,2.72a35.47,35.47,0,0,1-5.81.67c-3.15,0-6.29-.43-9.44-.63s-6.54-.39-9.81-.56a73.28,73.28,0,0,1-7.73-.45,21.68,21.68,0,0,1-5.18-1.93,22.73,22.73,0,0,0-6.06-1.82A57.2,57.2,0,0,1,80,121.11c-3.48-1-7-1.86-10.41-3A49.78,49.78,0,0,1,63,115.53a38.84,38.84,0,0,1-8-5.23c-2.4-2-3.09-4.74-4.1-7.37a31.23,31.23,0,0,1-1.45-5.56c-.36-1.94-.48-3.93-.73-5.89-.49-3.91.32-7.66,1.18-11.44.52-2.27.62-4.64,1.1-6.93C51.64,70.28,52.43,67.48,52.85,65.83Zm96.77-41.39a53.76,53.76,0,0,0-6.8-1.94c-4.11-.61-8.26-1-12.41-1.29-3.8-.26-7.63-.37-11.44-.32-3.35,0-6.7.29-10,.64a28.29,28.29,0,0,0-6.69,1.31C99,24,95.95,25.57,92.84,27.05A37.6,37.6,0,0,0,82.17,35c-2,2-3.71,4.37-5.75,6.36C73,44.63,69.44,47.74,66,51c-2,1.88-3.94,3.8-5.76,5.84a47.06,47.06,0,0,0-3.9,5.11c-1.92,2.85-2.78,6.15-3.62,9.42-.5,1.94-.77,4-1.11,5.93-.3,1.72-.51,3.45-.84,5.16a35.22,35.22,0,0,0-.37,12.71,71.59,71.59,0,0,0,2.23,9.21,12.85,12.85,0,0,0,2.45,4.46,23.12,23.12,0,0,0,9.3,6.32c4.48,1.73,9.1,3.1,13.69,4.5,3,.92,6.14,1.61,9.21,2.42,2,.53,4,1.05,6,1.63s3.69,1.19,5.56,1.68a18.33,18.33,0,0,0,2.19.07c1.66.22,3.3.6,5,.75,3.41.32,6.83.55,10.24.78,3.22.22,6.43.94,9.67.47,3.41-.5,6.82-1,10.21-1.6a19.93,19.93,0,0,0,4.41-1.22c2.13-.92,4.13-2.13,6.22-3.14,3.68-1.78,7.42-3.45,11.08-5.26,3.31-1.64,7-2.65,9.77-5.25a44.6,44.6,0,0,0,5.9-6c1.58-2.17,2.49-4.83,3.72-7.26.3-.6.75-1.13,1-1.75q1.94-4.69,3.8-9.4a15.31,15.31,0,0,0,1.07-3.17,44.43,44.43,0,0,0,.06-12.3c-.43-3.51-.72-7-1.1-10.54-.42-3.88-.91-7.73-2.5-11.38a30.51,30.51,0,0,0-10-12.34c-3.15-2.36-6.56-4.37-9.92-6.43S152.83,26.33,149.62,24.44Z" fill="#f3e6a0"/><path d="M144.88,30.92c5.1,2.59,9.71,4.85,14.24,7.27a33.81,33.81,0,0,1,9.16,7.34,18.8,18.8,0,0,1,4.59,9.87c.26,1.71.89,3.36,1.22,5.07a42.92,42.92,0,0,1,.79,5.44c.17,2.68.21,5.37.19,8.05a27.27,27.27,0,0,1-.47,3.44c-.38,2.8-.7,5.61-1.17,8.4a32.79,32.79,0,0,1-1.14,4.46,49,49,0,0,1-1.85,5.13c-.92,2.07-2,4.05-3,6.07-.08.16-.19.31-.26.47-2,4.75-6.08,7.46-10.3,9.93a32.47,32.47,0,0,1-5.69,2.84c-2.77,1-5.66,1.56-8.51,2.28-2.14.54-4.27,1.12-6.44,1.5a43.77,43.77,0,0,1-15.4.37,12,12,0,0,0-3.15.36,10,10,0,0,1-3.27.22c-4.07-1-8.2-1-12.36-1.19-3.66-.12-7.3-.68-11-1.08-4-.44-7.94-.83-11.89-1.42a26.2,26.2,0,0,1-4.7-1.43,31,31,0,0,1-9.39-5.84,28.57,28.57,0,0,1-9.38-13.81A15.69,15.69,0,0,1,55,87.11c.34-1.82,0-3.79.42-5.58a45.06,45.06,0,0,1,2.28-6.32c.83-2.1,1.84-4.13,2.63-6.24a50.57,50.57,0,0,1,7-12.53c2.39-3.18,5.6-5.53,8.46-8.24,2.66-2.52,5.81-4.31,8.5-6.74a28.94,28.94,0,0,1,4.07-2.63c.71-.45,1.43-.88,2.13-1.35,5.22-3.53,10.42-7.09,15.65-10.6a13.36,13.36,0,0,1,8.78-2.08,136.46,136.46,0,0,1,21.53,3.9C139.41,29.46,142.41,30.27,144.88,30.92Zm25.71,60.66c.66-2.4,1.24-4,1.52-5.62.61-3.62,1.21-7.25,1.55-10.91a56.9,56.9,0,0,0,.07-8.28,45.76,45.76,0,0,0-1-6.09c-.34-1.76-.82-3.49-1.19-5.25-.8-3.74-2.15-7.23-4.91-10a54.23,54.23,0,0,0-6-5.12,43.31,43.31,0,0,0-5.57-3.25c-1.6-.84-3.29-1.5-4.93-2.28s-3.45-1.85-5.27-2.52c-2.12-.78-4.34-1.3-6.53-1.88-3.05-.81-6.1-1.65-9.19-2.31-3.33-.71-6.68-1.32-10-1.81-4.93-.72-9.73-.7-14,2.6-2.66,2.06-5.49,3.9-8.28,5.79-3.69,2.49-7.5,4.81-11.12,7.4-3.28,2.35-6.44,4.88-9.54,7.47a51.61,51.61,0,0,0-6.63,6.24A88.68,88.68,0,0,0,64.11,64a8.62,8.62,0,0,0-.89,1.51c-1.2,3-2.34,6.06-3.53,9.07q-1.12,2.83-2.35,5.62c-1.4,3.17-1.22,6.58-1,9.83a24.71,24.71,0,0,0,4,11,31.87,31.87,0,0,0,9.72,9.61,26.21,26.21,0,0,0,12.44,4.48c4.28.35,8.54,1,12.8,1.56,5,.69,10.06.08,15.07.69.61.07,2.32.08,2.55.14a9.72,9.72,0,0,0,2.4.58c3,0,5.84-.75,8.9-.19a24.32,24.32,0,0,0,7.51-.18c4.28-.58,8.52-1.43,12.77-2.22a22.88,22.88,0,0,0,4.82-1.2,75.64,75.64,0,0,0,8-4c5.14-3,8.5-7.51,10.78-12.91C169.09,95.21,170,93,170.59,91.58Z" fill="#f3e6a0"/><path d="M167.65,87.92a26.43,26.43,0,0,1-6.17,9.19c-.94.94-1.59,2.17-2.53,3.1a31,31,0,0,1-12.71,7.35c-1.5.48-2.81,1.55-4.3,2.11a50.37,50.37,0,0,1-5.09,1.38c-3.82,1-7.64,2-11.47,2.9a21.71,21.71,0,0,1-7.51.08,77.71,77.71,0,0,0-8.68-.7c-3.43,0-6.86.52-10.29.61a26.55,26.55,0,0,1-6.48-.48,73,73,0,0,1-10-3,28.18,28.18,0,0,1-5.75-3.39,59,59,0,0,1-5.49-4.33A19.66,19.66,0,0,1,66,94.64a30.76,30.76,0,0,1-1.85-9.58,30.32,30.32,0,0,1,2.09-13.49,70.13,70.13,0,0,1,4.14-7.51A68,68,0,0,1,74,58.18a52.26,52.26,0,0,1,8-8.63,78.24,78.24,0,0,1,7-5.87c3.08-2.12,6.4-3.89,9.65-5.74a24.41,24.41,0,0,1,8-3.17c4-.67,8-1.35,12.15-.92,2.63.28,5.26.47,7.89.67a19.87,19.87,0,0,1,8.14,2.62c1.09.6,2.41.76,3.53,1.32,5.43,2.7,10.89,5.34,16.19,8.29a17.29,17.29,0,0,1,4.31,4.18c2.79,3.29,5.44,6.7,8.15,10.06a12.87,12.87,0,0,1,2.79,7.26c.29,3.83.34,7.68.36,11.53a24.85,24.85,0,0,1-.6,4A32.51,32.51,0,0,0,167.65,87.92ZM141.2,108.26c2.34-.81,4.68-1.62,6.93-2.63a51.09,51.09,0,0,0,7.16-3.7c1.43-.93,2.39-2.55,3.66-3.76a30.2,30.2,0,0,0,7.42-10.82c.45-1.13.82-2.28,1.21-3.43a15.42,15.42,0,0,0,.77-2.37,44.23,44.23,0,0,0,.17-12.12,17,17,0,0,0-4.27-9.49c-2.24-2.59-4.38-5.25-6.56-7.9A23.08,23.08,0,0,0,149,45.24c-2.37-1-4.63-2.3-7-3.44-1.37-.67-2.75-1.34-4.16-1.93-1.88-.78-3.78-1.5-5.68-2.22a23.28,23.28,0,0,0-4.16-1.47c-2.73-.47-5.5-.67-8.26-1a42.23,42.23,0,0,0-13.16.86,15.33,15.33,0,0,0-3.55.88,84.59,84.59,0,0,0-9.2,4.78,86.75,86.75,0,0,0-8.81,6.63,55.22,55.22,0,0,0-5.86,5.73,73.24,73.24,0,0,0-5.62,7.12c-1.4,2-2.26,4.43-3.69,6.43A24.53,24.53,0,0,0,65.78,79a32.07,32.07,0,0,0,1.31,14.91c.81,2.33,1.6,4.7,3.54,6.42s3.63,3.37,5.56,4.9c2.42,1.92,4.9,3.76,8,4.61,2.08.58,4.11,1.37,6.19,1.94A24.34,24.34,0,0,0,99,112.87c2-.19,4.05-.28,6-.6a35.49,35.49,0,0,1,12,.63c4.89.89,9.38-.32,13.93-1.66,2.54-.75,5.12-1.37,7.76-2.06C138.77,109.1,140.51,108.49,141.2,108.26Z" fill="#f3e6a0"/><path d="M92.37,107.14c-2-1.13-3.66-2-5.3-3-2.26-1.3-4.57-2.54-6.76-4-4.73-3.06-7-7.73-8.6-13-.91-3.06-.24-6,.12-9A44.86,44.86,0,0,1,75,67.21,26.27,26.27,0,0,1,78.21,61c1.09-1.45,2.84-2.42,4.33-3.54C86,54.88,89.35,52.07,93,49.76c4.39-2.77,9-5.22,14.31-5.92,4.18-.54,8.26-1.81,12.44-2.44,4.7-.7,9.51-1.18,13.88,1.39,1.78,1.05,3.28,2.58,5,3.8,2.75,2,5.57,3.89,8.33,5.86a13.15,13.15,0,0,1,1.55,1.47c3,3,6.44,5.71,8.32,9.68s4.06,7.69,4.87,12c.55,2.89,1.17,5.84.34,8.79a16.44,16.44,0,0,1-1,2.42,22.65,22.65,0,0,1-1.74,3.57A68.65,68.65,0,0,1,154.81,96a23.5,23.5,0,0,1-4.32,4.32,45.34,45.34,0,0,1-10.06,4.84A34.09,34.09,0,0,1,130,107.46c-2.11.06-4.23,0-6.33.11s-4.36.53-6.55.76c-3,.32-6.08.59-9.11.91a23.44,23.44,0,0,1-4,.45,40.61,40.61,0,0,1-5.93-1C96,108.24,94,107.6,92.37,107.14ZM76,68c-.26.9-.46,1.83-.8,2.71a34.22,34.22,0,0,0-2.4,11.54A19.52,19.52,0,0,0,80,97.91,40,40,0,0,0,86.32,102c2.73,1.56,5.51,3.06,8.34,4.42a15.73,15.73,0,0,0,4,1.12c2.55.45,5,1.54,7.7.88a30.74,30.74,0,0,1,3.54-.84c2.34-.29,4.69-.42,7-.64,2.75-.26,5.5-.62,8.26-.79s5.4,0,8.07-.27a27.5,27.5,0,0,0,4.85-1.21c4.59-1.31,9-3,12.65-6.2a43.48,43.48,0,0,0,6.1-6.92,22.8,22.8,0,0,0,3.49-6.43,17.08,17.08,0,0,0-.5-10.51,55.87,55.87,0,0,0-3.18-7.7,48.53,48.53,0,0,0-4.22-6.92,31.74,31.74,0,0,0-4.16-4.17c-1.36-1.26-2.75-2.5-4.21-3.65-2.94-2.31-6-4.41-8.87-6.84a13.07,13.07,0,0,0-8.54-3.13,57.94,57.94,0,0,0-9.22,1c-3.77.56-7.56,1.08-11.26,1.94A29.59,29.59,0,0,0,96,49.39c-2.11,1.45-4.14,3-6.23,4.5q-4,2.84-8.1,5.59C78.65,61.55,77.85,65.08,76,68Z" fill="#f3e6a0"/><path d="M136.42,51.12a11.1,11.1,0,0,1,4.41,3.52c1.38,1.93,2.68,3.92,4,5.87,1.79,2.57,3.7,5.06,5.37,7.69a39.06,39.06,0,0,1,5.44,12.09,8.68,8.68,0,0,1-1.21,6.38,28,28,0,0,1-3.69,5.43,37.37,37.37,0,0,1-6,5,27.09,27.09,0,0,1-10.43,4c-4.52.87-9,1.91-13.51,2.93-.7.16-1.32.71-2,.86a41.33,41.33,0,0,1-10.69.36c-5.53-.33-11.09-.81-16.26-2.75a21.18,21.18,0,0,1-9.84-7.3,33.46,33.46,0,0,1-4.48-9.62,14.78,14.78,0,0,1-.08-8.65c.72-2.66,1.41-5.33,2.37-7.9,1.68-4.47,5-7.29,9.34-9.26,1.76-.81,3.21-2.27,4.8-3.43,2.61-1.92,5-4.14,7.85-5.68a50.71,50.71,0,0,1,11.27-4.92c5.13-1.34,10.48-1.6,15.44,1.23C128.64,46.8,133.75,49.83,136.42,51.12Zm-55,18.24c-.49,1.46-1.08,2.9-1.44,4.4a49.15,49.15,0,0,0-1.29,6.71c-.31,3.23,1,6.17,2.13,9.12a19.37,19.37,0,0,0,10.86,11.07,41.56,41.56,0,0,0,9.15,2.46c3.39.57,6.86.71,10.3,1a18.57,18.57,0,0,0,4.91,0c2.42-.49,4.71-1.54,7.12-2.08,4.19-.94,8.42-1.67,12.64-2.49a25.81,25.81,0,0,0,7.76-3.07,25.12,25.12,0,0,0,9-8.9c1.2-2,2.2-4.17,1.68-6.44A34.89,34.89,0,0,0,149.66,70c-1.13-1.77-2.6-3.31-3.77-5.06-1.62-2.44-3-5-4.68-7.43a22,22,0,0,0-3.81-4.24A38,38,0,0,0,128,48a16.73,16.73,0,0,0-7.62-1.84,33.94,33.94,0,0,0-11.62,2.43c-5,2.1-9.16,5.31-13.49,8.36-1.9,1.35-3.78,2.74-5.71,4-1.45,1-3.22,1.6-4.41,2.81A27.74,27.74,0,0,0,81.4,69.36Z" fill="#f3e6a0"/><path d="M125.14,63.16c2.14,1.29,4.37,2.09,5.78,3.63a16.73,16.73,0,0,1,3.11,6c1.23,3.69.49,7.44-.35,11.13a12.34,12.34,0,0,1-5.42,7.91c-2.33,1.5-4.75,2.78-7.82,2.54a32.12,32.12,0,0,0-9.61.36c-4.1,1-6.46-1.36-9-3.59a14.21,14.21,0,0,1-3.46-4.18c-1.61-3.34-2.83-6.94-1.57-10.67a13.85,13.85,0,0,1,4.13-6.12,32.26,32.26,0,0,1,9.68-5.85,24.23,24.23,0,0,1,11-1.62C122.88,62.8,124.15,63,125.14,63.16Zm.11,1.67c-1.5-.27-3-.65-4.5-.8-4.22-.41-8.08.88-11.89,2.56a19.92,19.92,0,0,0-8.33,6.21c-1.07,1.45-2.28,3.1-2.51,4.78A17.78,17.78,0,0,0,98.73,84a13.09,13.09,0,0,0,5.7,7.62c1.81,1.23,3.8,2.34,6.23,1.75,1.08-.26,2.23-.17,3.32-.37,3.18-.58,6.42.09,9.65-.84,2.84-.82,5.27-1.87,6.81-4.43a17.58,17.58,0,0,0,2.17-5.33,20.62,20.62,0,0,0-.32-10.49C131.25,68.28,128.4,66.49,125.25,64.84Z" fill="#f3e6a0"/><path d="M103.47,79.35c1.68-4,4.93-6.17,8.69-7.83a18.49,18.49,0,0,1,9.23-1.44c6.79.63,9.84,5.12,9,11.82a10.81,10.81,0,0,1-3.14,6.24c-.91,1-2.59,1.35-4,1.62A87.75,87.75,0,0,1,113,91.27a12.14,12.14,0,0,1-7.51-1.42c-1.74-1.09-3.6-3.8-3-6.18.24-1,.26-2,.45-3.06A6.66,6.66,0,0,1,103.47,79.35Zm19.37,9c-.18-.06-.06,0,.06,0a6.83,6.83,0,0,0,5.71-5.26c.25-1.45.21-3,.4-4.42.31-2.48-2.1-5.46-4.14-6.23a16.43,16.43,0,0,0-8.7-.63,17.86,17.86,0,0,0-4,1.41c-4.68,2.06-8.27,5-8.27,10.7,0,1.81,1.29,4.61,2.73,5.12a16.93,16.93,0,0,0,7.3.85c1-.09,1.89-.3,2.84-.46A10.6,10.6,0,0,0,114,89c-4.12-.42-7.2-2.88-6.07-7.31a10.09,10.09,0,0,1,4.84-6.11,37.92,37.92,0,0,1,5.55-2.35c1.75-.69,5.28.41,6.52,1.86a7.79,7.79,0,0,1,1.69,6.58c-.17,1.08.76,2.22-.31,3.23S123.91,87.25,122.85,88.36Zm-13.38-7.86c-1.1,3.9-.09,6.11,3.26,6.94a14.7,14.7,0,0,0,8.84-.42,5.25,5.25,0,0,0,3.6-3.9c.33-2.28.41-4.84-1.33-6.88a4,4,0,0,0-2.86-1.7c-3.25-.32-5.91.93-8.35,2.75A27.88,27.88,0,0,0,109.47,80.51Z" fill="#f3e6a0"/><path d="M122.17,83.21a5.53,5.53,0,0,1-5.6,3.25c-1-.1-2-.19-3.06-.39a1.78,1.78,0,0,1-1.4-1.79,6.21,6.21,0,0,1,2-5.47,7.82,7.82,0,0,1,5.25-2.42c2.47,0,4.07,1.74,3.48,4.09C122.67,81.4,122.41,82.3,122.17,83.21Zm-8.1-1.49c-.14.34-.3.67-.42,1-.53,1.5-.05,2.34,1.51,2.51a5.07,5.07,0,0,0,4.43-1.36c1-1,2.28-3.9,1.84-5.14-.07-.2-.26-.48-.42-.5a9,9,0,0,0-3.2-.23A5.43,5.43,0,0,0,114.07,81.72Z" fill="#f3e6a0"/><path d="M116,83.42c-.14-.57-.57-1.28-.4-1.8.45-1.37,1.07-2.76,2.61-3.27a2,2,0,0,1,2.36.71,1.68,1.68,0,0,1-.31,2.33,25.75,25.75,0,0,1-2.94,2.07C117.05,83.6,116.66,83.45,116,83.42Zm.54-1.19c1.85-.13,2-1.7,3-2.75C117.53,79.58,117.21,81,116.49,82.23Z" fill="#f3e6a0"/><path d="M127.49,97.52c.46,0,.92-.11,1.38-.2-.45.08-.91.15-1.38.2Z" fill="#f3e6a0"/><path d="M96.08,63c.69-.77,1.36-1.57,2.09-2.29C97.44,61.45,96.77,62.25,96.08,63Z" fill="#f3e6a0"/><path d="M145.61,88.44A5.74,5.74,0,0,0,147,85.53c.06-.42.12-.84.19-1.26-.06.42-.13.84-.19,1.26A5.74,5.74,0,0,1,145.61,88.44Z" fill="#f3e6a0"/><path d="M92.84,66.39c.72-.75,1.45-1.5,2.18-2.23C94.29,64.89,93.56,65.63,92.84,66.39Z" fill="#f3e6a0"/><path d="M147.19,74.25a12.66,12.66,0,0,1,.33,2A12.66,12.66,0,0,0,147.19,74.25Z" fill="#f3e6a0"/><path d="M127.51,54.78a21.39,21.39,0,0,0-2.4-.87,21.39,21.39,0,0,1,2.4.87Z" fill="#f3e6a0"/><path d="M116,99.6c.85-.16,1.71-.29,2.56-.41h0C117.75,99.31,116.89,99.44,116,99.6Z" fill="#f3e6a0"/><path d="M109.89,100.78l1.41-.16a19.25,19.25,0,0,0,2.37-.48,19.25,19.25,0,0,1-2.37.48Z" fill="#f3e6a0"/><path d="M147.32,83a23.86,23.86,0,0,0,.22-2.53c0-1,.07-2.1,0-3.14,0,1,0,2.1,0,3.14A23.93,23.93,0,0,1,147.32,83Z" fill="#f3e6a0"/><path d="M130.43,96.94a13.13,13.13,0,0,1-1.41.35A13.78,13.78,0,0,0,130.43,96.94Z" fill="#f3e6a0"/><path d="M91.2,94.83a21,21,0,0,1-1.85-2.09A21,21,0,0,0,91.2,94.83Z" fill="#f3e6a0"/><path d="M87.94,72.43c.57-.88,1.18-1.72,1.82-2.53C89.12,70.71,88.51,71.55,87.94,72.43Z" fill="#f3e6a0"/><path d="M107.73,55.69l2.47-.59-2.47.59a20.65,20.65,0,0,0-4.44,1.56A20.65,20.65,0,0,1,107.73,55.69Z" fill="#f3e6a0"/><path d="M145.1,70.14c-.5-.68-1-1.35-1.57-2s-1.2-1.48-1.82-2.21c.62.72,1.22,1.46,1.82,2.21S144.59,69.46,145.1,70.14Z" fill="#f3e6a0"/><path d="M136.5,61.06q-.59-.41-1.23-.78c-.81-.47-1.59-1-2.36-1.55.77.55,1.55,1.08,2.36,1.55Q135.91,60.65,136.5,61.06Z" fill="#f3e6a0"/><path d="M90.75,68.7c.67-.79,1.37-1.56,2.09-2.31C92.12,67.14,91.42,67.91,90.75,68.7Z" fill="#f3e6a0"/><path d="M103.36,102.13a48.34,48.34,0,0,0,15.9-1.58c2.39-.58,4.83-.95,7.21-1.54a54.22,54.22,0,0,0,8.76-2.52c3.07-1.35,5.78-3.48,8.77-5,3.57-1.87,4.71-5,5-8.67a44.69,44.69,0,0,0-.13-7.24,9.06,9.06,0,0,0-1.22-4.06,59.06,59.06,0,0,0-5.81-7.62,18.36,18.36,0,0,0-6.33-5A23.08,23.08,0,0,1,132,56.66c-2.07-1.33-3.48-3.55-6.28-3.91-3.54-.46-7-1.15-10.59-.24-2.31.59-4.64,1.05-6.94,1.66a26.46,26.46,0,0,0-11.49,6c-1.49,1.38-2.68,3.07-4.14,4.48a30.51,30.51,0,0,0-7.78,11A15.18,15.18,0,0,0,84,80.45a37.63,37.63,0,0,0,1.11,7.7c1,3.38,3.24,6,5.71,8.54C94.33,100.21,98.74,101.7,103.36,102.13ZM92.22,95.79q-.53-.46-1-1a21,21,0,0,1-1.85-2.09,16.63,16.63,0,0,1-2.11-3.55,14,14,0,0,1-.84-2.64c-.11-.53-.22-1.06-.32-1.6s-.2-1.07-.27-1.61c-.48-3.22-.45-6.48,1.33-9.59q.39-.69.82-1.34c.57-.88,1.18-1.72,1.82-2.53q.48-.61,1-1.2c.67-.79,1.37-1.56,2.09-2.31s1.45-1.5,2.18-2.23c.36-.36.71-.75,1.06-1.13.69-.77,1.36-1.57,2.09-2.29a12.5,12.5,0,0,1,1.15-1,22.76,22.76,0,0,1,4-2.47,20.65,20.65,0,0,1,4.44-1.56l2.47-.59,2.46-.61c1.64-.4,3.29-.78,4.95-1.08q.64-.12,1.27-.17a15.33,15.33,0,0,1,2.53,0,17.55,17.55,0,0,1,3.71.69,21.39,21.39,0,0,1,2.4.87h0a6.77,6.77,0,0,1,1.6,1c.5.42,1,.87,1.52,1.24l1.14.83,1.15.83c.77.55,1.55,1.08,2.36,1.55q.64.37,1.23.78a27.66,27.66,0,0,1,5.2,4.87c.62.72,1.23,1.46,1.82,2.21s1.07,1.32,1.57,2a16.32,16.32,0,0,1,1.35,2.13,9.2,9.2,0,0,1,.74,2,12.66,12.66,0,0,1,.33,2c0,.35,0,.69.06,1,0,1,0,2.1,0,3.14a23.86,23.86,0,0,1-.22,2.53c-.06.42-.12.84-.18,1.26s-.13.84-.19,1.26a5.74,5.74,0,0,1-1.35,2.91,12.47,12.47,0,0,1-2.36,2.08,46.83,46.83,0,0,1-6.15,3.72,43.85,43.85,0,0,1-6.67,2.7,13.78,13.78,0,0,1-1.41.35l-.14,0c-.45.09-.91.15-1.38.2a72.84,72.84,0,0,1-8.3,1.64l-.59,0c-.86.13-1.71.26-2.56.41s-1.58.35-2.37.55a19.25,19.25,0,0,1-2.37.48l-1.41.16a20.25,20.25,0,0,1-4.23,0c-1.35-.15-2.72-.33-4.07-.58a25.89,25.89,0,0,1-3.95-1A17.29,17.29,0,0,1,92.22,95.79Z" fill="#f3e6a0"/><path d="M89.82,85.26a13.36,13.36,0,0,1-.26-1.81A13.36,13.36,0,0,0,89.82,85.26Z" fill="#f3e6a0"/><path d="M132.61,60.32q.5.22,1,.46Q133.11,60.54,132.61,60.32Z" fill="#f3e6a0"/><path d="M100.79,97.42q-.72-.29-1.42-.65Q100.07,97.12,100.79,97.42Z" fill="#f3e6a0"/><path d="M139.34,87.5a15.71,15.71,0,0,0,1.82-5A15.71,15.71,0,0,1,139.34,87.5Z" fill="#f3e6a0"/><path d="M133.6,60.78a18.34,18.34,0,0,1,1.89,1.09A18.35,18.35,0,0,0,133.6,60.78Z" fill="#f3e6a0"/><path d="M108.27,99q.78,0,1.57,0c1.12,0,2.24-.08,3.36-.15-1.12.07-2.24.13-3.36.15Q109,99,108.27,99Z" fill="#f3e6a0"/><path d="M89.55,83.45a16.36,16.36,0,0,1,0-2.79A16.36,16.36,0,0,0,89.55,83.45Z" fill="#f3e6a0"/><path d="M95.29,93.76A12.87,12.87,0,0,0,98,96q.69.42,1.39.77-.7-.35-1.39-.77A12.87,12.87,0,0,1,95.29,93.76Z" fill="#f3e6a0"/><path d="M117.83,98.51a56.48,56.48,0,0,0,9-1.37l.66-.24A20,20,0,0,0,132.88,94q.82-.61,1.59-1.3c.68-.61,1.43-1.18,2.13-1.77a9.67,9.67,0,0,0,1.84-2c.32-.48.62-1,.91-1.49a15.71,15.71,0,0,0,1.82-5,38.94,38.94,0,0,0,.63-6.5c0-.73,0-1.45-.08-2.19a20.92,20.92,0,0,0-1.17-5.8,12.66,12.66,0,0,0-1.32-2.58,11.54,11.54,0,0,0-2-2.26,15.77,15.77,0,0,0-1.74-1.32,18.34,18.34,0,0,0-1.89-1.09q-.49-.24-1-.46a26.84,26.84,0,0,0-3.11-1.12l-1.18-.33a26.41,26.41,0,0,1-3.48-1.12,12.33,12.33,0,0,0-8-.6c-3.86,1-7.77,1.95-11.53,3.25-1.25.43-2.49.9-3.71,1.42a19.83,19.83,0,0,0-2.49,1.27q-.6.36-1.17.78a15.7,15.7,0,0,0-2.14,1.86,14.41,14.41,0,0,0-2.54,3.62,39.29,39.29,0,0,0-3,7.48,24.29,24.29,0,0,0-.7,3.84,16.36,16.36,0,0,0,0,2.79,13.36,13.36,0,0,0,.26,1.81,12.11,12.11,0,0,0,1.86,4.3A13.94,13.94,0,0,0,93,91.18l.58.64,1.15,1.3.59.64A12.87,12.87,0,0,0,98,96q.69.42,1.39.77t1.42.65q.72.29,1.45.53a21,21,0,0,0,3,.72,23.56,23.56,0,0,0,3.07.31q.78,0,1.57,0c1.12,0,2.24-.08,3.36-.15l3.35-.21,1.23-.07Zm-13.31-1.29a12.38,12.38,0,0,1-8.15-4.35,52.6,52.6,0,0,1-4.27-5.65c-1.57-2.55-1.35-5.48-.87-8.28A58.59,58.59,0,0,1,93,72.69a17.53,17.53,0,0,1,7.64-9.08,28.87,28.87,0,0,1,5.83-2.18c2.81-.95,5.6-2,8.47-2.7,2.33-.56,4.77-1.09,7.21-.3,2.24.73,4.51,1.37,6.71,2.22a52,52,0,0,1,5.85,2.73c2.68,1.45,4,4,4.76,6.78a26.45,26.45,0,0,1,0,13.35,15.26,15.26,0,0,1-5.19,8.11,31.88,31.88,0,0,1-7.84,4.62,13.57,13.57,0,0,1-4.31.79c-2.42.23-4.85.42-7.27.44A75,75,0,0,1,104.52,97.22Z" fill="#f3e6a0"/></g></g></svg>